0
SECTION
2
HEADER
9
$INSUNITS
70
4
9
$ACADVER
1
AC1014
9
$HANDSEED
5
FFFF
0
ENDSEC
0
SECTION
2
TABLES
0
TABLE
2
VPORT
5
8
100
AcDbSymbolTable
0
ENDTAB
0
TABLE
2
LTYPE
5
5
100
AcDbSymbolTable
0
LTYPE
5
14
100
AcDbSymbolTableRecord
100
AcDbLinetypeTableRecord
2
BYBLOCK
70
0
0
LTYPE
5
15
100
AcDbSymbolTableRecord
100
AcDbLinetypeTableRecord
2
BYLAYER
70
0
0
ENDTAB
0
TABLE
2
LAYER
5
2
100
AcDbSymbolTable
70
2
0
LAYER
5
50
100
AcDbSymbolTableRecord
100
AcDbLayerTableRecord
2
0
70
0
6
CONTINUOUS
0
ENDTAB
0
TABLE
2
STYLE
5
3
100
AcDbSymbolTable
70
1
0
STYLE
5
11
100
AcDbSymbolTableRecord
100
AcDbTextStyleTableRecord
2
STANDARD
70
0
0
ENDTAB
0
TABLE
2
VIEW
5
6
100
AcDbSymbolTable
70
0
0
ENDTAB
0
TABLE
2
UCS
5
7
100
AcDbSymbolTable
70
0
0
ENDTAB
0
TABLE
2
APPID
5
9
100
AcDbSymbolTable
70
2
0
APPID
5
12
100
AcDbSymbolTableRecord
100
AcDbRegAppTableRecord
2
ACAD
70
0
0
ENDTAB
0
TABLE
2
DIMSTYLE
5
A
100
AcDbSymbolTable
70
1
0
ENDTAB
0
TABLE
2
BLOCK_RECORD
5
1
100
AcDbSymbolTable
70
1
0
BLOCK_RECORD
5
1F
100
AcDbSymbolTableRecord
100
AcDbBlockTableRecord
2
*MODEL_SPACE
0
BLOCK_RECORD
5
1B
100
AcDbSymbolTableRecord
100
AcDbBlockTableRecord
2
*PAPER_SPACE
0
ENDTAB
0
ENDSEC
0
SECTION
2
BLOCKS
0
BLOCK
5
20
100
AcDbEntity
100
AcDbBlockBegin
2
*MODEL_SPACE
0
ENDBLK
5
21
100
AcDbEntity
100
AcDbBlockEnd
0
BLOCK
5
1C
100
AcDbEntity
100
AcDbBlockBegin
2
*PAPER_SPACE
0
ENDBLK
5
1D
100
AcDbEntity
100
AcDbBlockEnd
0
ENDSEC
0
SECTION
2
ENTITIES
0
LWPOLYLINE
5
100
100
AcDbEntity
8
0
100
AcDbPolyline
90
4
70
1
43
0.0
10
50.799999999999997
20
64.25
10
-50.799999999999997
20
64.25
10
-50.799999999999997
20
-64.25
10
50.799999999999997
20
-64.25
0
LWPOLYLINE
5
101
100
AcDbEntity
8
0
100
AcDbPolyline
90
4
70
1
43
0.0
10
50.549999999999997
20
64.25
10
-50.549999999999997
20
64.25
10
-50.549999999999997
20
-64.25
10
50.549999999999997
20
-64.25
0
LINE
5
102
100
AcDbEntity
8
0
100
AcDbLine
10
-2.2204460492503127e-15
20
64.25
30
0
11
2.2204460492503131e-15
21
-64.25
31
0
0
LWPOLYLINE
5
103
100
AcDbEntity
8
0
100
AcDbPolyline
90
4
70
1
43
0.0
10
50.299999999999997
20
53.249999999999993
10
-50.299999999999997
20
53.249999999999993
10
-50.299999999999997
20
-53.250000000000014
10
50.299999999999997
20
-53.250000000000014
0
CIRCLE
5
104
100
AcDbEntity
8
0
100
AcDbCircle
10
-43.299999999999997
20
61.250000000000007
30
0
40
1.5000000000000009
0
CIRCLE
5
105
100
AcDbEntity
8
0
100
AcDbCircle
10
43.060000000000009
20
61.250000000000007
30
0
40
1.5000000000000002
0
LINE
5
106
100
AcDbEntity
8
0
100
AcDbLine
10
50.549999999999997
20
1.7986817999337045e-15
30
0
11
-50.299999999999997
21
-1.0518687546770093e-14
31
0
0
CIRCLE
5
107
100
AcDbEntity
8
0
100
AcDbCircle
10
-43.299999999999997
20
-61.250000000000007
30
0
40
1.5000000000000013
0
CIRCLE
5
108
100
AcDbEntity
8
0
100
AcDbCircle
10
43.060000000000009
20
-61.250000000000007
30
0
40
1.4999999999999989
0
LINE
5
109
100
AcDbEntity
8
0
100
AcDbLine
10
-50.299999999999997
20
49.999999999999986
30
0
11
50.299999999999997
21
50
31
0
0
LINE
5
110
100
AcDbEntity
8
0
100
AcDbLine
10
-50.299999999999997
20
-50.000000000000014
30
0
11
50.299999999999997
21
-50.000000000000014
31
0
0
LINE
5
111
100
AcDbEntity
8
0
100
AcDbLine
10
-44.800000000000004
20
61.250000000000007
30
0
11
-41.799999999999997
21
61.250000000000007
31
0
0
CIRCLE
5
112
100
AcDbEntity
8
0
100
AcDbCircle
10
-44.800000000000004
20
61.250000000000007
30
0
40
1.4999999999999989
0
CIRCLE
5
113
100
AcDbEntity
8
0
100
AcDbCircle
10
-41.799999999999997
20
61.250000000000007
30
0
40
1.4999999999999978
0
LINE
5
114
100
AcDbEntity
8
0
100
AcDbLine
10
-44.800000000000004
20
62.75
30
0
11
-41.799999999999997
21
62.75
31
0
0
LINE
5
115
100
AcDbEntity
8
0
100
AcDbLine
10
41.560000000000002
20
62.75
30
0
11
44.560000000000016
21
62.75
31
0
0
LINE
5
116
100
AcDbEntity
8
0
100
AcDbLine
10
-41.799999999998377
20
59.750000000003254
30
0
11
-44.799999999998406
21
59.750000000000014
31
0
0
CIRCLE
5
117
100
AcDbEntity
8
0
100
AcDbCircle
10
41.560000000000002
20
61.250000000000007
30
0
40
1.4999999999999989
0
LINE
5
118
100
AcDbEntity
8
0
100
AcDbLine
10
41.560000000000002
20
61.250000000000007
30
0
11
44.560000000000016
21
61.250000000000007
31
0
0
CIRCLE
5
119
100
AcDbEntity
8
0
100
AcDbCircle
10
44.560000000000016
20
61.250000000000007
30
0
40
1.4999999999999978
0
LINE
5
120
100
AcDbEntity
8
0
100
AcDbLine
10
44.560000000001629
20
59.750000000003254
30
0
11
41.560000000001608
21
59.750000000000014
31
0
0
LINE
5
121
100
AcDbEntity
8
0
100
AcDbLine
10
-44.800000000000004
20
-61.250000000000007
30
0
11
-41.799999999999997
21
-61.250000000000007
31
0
0
CIRCLE
5
122
100
AcDbEntity
8
0
100
AcDbCircle
10
-44.800000000000004
20
-61.250000000000007
30
0
40
1.4999999999999989
0
CIRCLE
5
123
100
AcDbEntity
8
0
100
AcDbCircle
10
-41.799999999999997
20
-61.250000000000007
30
0
40
1.4999999999999978
0
LINE
5
124
100
AcDbEntity
8
0
100
AcDbLine
10
-44.800000000000004
20
-59.750000000000014
30
0
11
-41.799999999999997
21
-59.750000000000014
31
0
0
LINE
5
125
100
AcDbEntity
8
0
100
AcDbLine
10
41.560000000000002
20
-59.750000000000014
30
0
11
44.560000000000016
21
-59.750000000000014
31
0
0
LINE
5
126
100
AcDbEntity
8
0
100
AcDbLine
10
-41.799999999998377
20
-62.74999999999676
30
0
11
-44.799999999998406
21
-62.75
31
0
0
CIRCLE
5
127
100
AcDbEntity
8
0
100
AcDbCircle
10
41.560000000000002
20
-61.250000000000007
30
0
40
1.4999999999999989
0
LINE
5
128
100
AcDbEntity
8
0
100
AcDbLine
10
41.560000000000002
20
-61.250000000000007
30
0
11
44.560000000000016
21
-61.250000000000007
31
0
0
CIRCLE
5
129
100
AcDbEntity
8
0
100
AcDbCircle
10
44.560000000000016
20
-61.250000000000007
30
0
40
1.4999999999999978
0
LINE
5
130
100
AcDbEntity
8
0
100
AcDbLine
10
44.560000000001629
20
-62.74999999999676
30
0
11
41.560000000001608
21
-62.75
31
0
0
LINE
5
131
100
AcDbEntity
8
0
100
AcDbLine
10
-40.640000000000001
20
40.640000000000001
30
0
11
-40.640000000000001
21
-53.250000000000014
31
0
0
CIRCLE
5
132
100
AcDbEntity
8
0
100
AcDbCircle
10
-40.640000000000001
20
40.640000000000001
30
0
40
3.0000000000000018
0
LINE
5
133
100
AcDbEntity
8
0
100
AcDbLine
10
-43.179999999999993
20
0
30
0
11
-38.100000000000001
21
0
31
0
0
CIRCLE
5
134
100
AcDbEntity
8
0
100
AcDbCircle
10
-40.640000000000001
20
20.319999999999993
30
0
40
3.5
0
CIRCLE
5
135
100
AcDbEntity
8
0
100
AcDbCircle
10
-40.640000000000001
20
-9.4205454821588335e-15
30
0
40
3.0000000000000004
0
CIRCLE
5
136
100
AcDbEntity
8
0
100
AcDbCircle
10
-40.640000000000001
20
-43.180000000000014
30
0
40
2.9999999999999982
0
CIRCLE
5
137
100
AcDbEntity
8
0
100
AcDbCircle
10
-40.640000000000001
20
-33.02000000000001
30
0
40
2.9999999999999982
0
CIRCLE
5
138
100
AcDbEntity
8
0
100
AcDbCircle
10
-40.640000000000001
20
-22.860000000000014
30
0
40
2.9999999999999982
0
CIRCLE
5
139
100
AcDbEntity
8
0
100
AcDbCircle
10
-40.640000000000001
20
-12.700000000000028
30
0
40
2.9999999999999982
0
CIRCLE
5
140
100
AcDbEntity
8
0
100
AcDbCircle
10
-20.32
20
-12.700000000000028
30
0
40
2.9999999999999982
0
CIRCLE
5
141
100
AcDbEntity
8
0
100
AcDbCircle
10
-20.32
20
-33.02000000000001
30
0
40
2.9999999999999982
0
CIRCLE
5
142
100
AcDbEntity
8
0
100
AcDbCircle
10
-20.32
20
-9.4205454821588335e-15
30
0
40
3.0000000000000004
0
CIRCLE
5
143
100
AcDbEntity
8
0
100
AcDbCircle
10
-20.32
20
-43.180000000000014
30
0
40
2.9999999999999982
0
LINE
5
144
100
AcDbEntity
8
0
100
AcDbLine
10
-22.859999999999996
20
0
30
0
11
-17.780000000000001
21
0
31
0
0
CIRCLE
5
145
100
AcDbEntity
8
0
100
AcDbCircle
10
-20.32
20
40.640000000000001
30
0
40
3.0000000000000018
0
CIRCLE
5
146
100
AcDbEntity
8
0
100
AcDbCircle
10
-20.32
20
20.319999999999993
30
0
40
3.5
0
CIRCLE
5
147
100
AcDbEntity
8
0
100
AcDbCircle
10
-20.32
20
-22.860000000000014
30
0
40
2.9999999999999982
0
CIRCLE
5
148
100
AcDbEntity
8
0
100
AcDbCircle
10
20.32
20
-12.700000000000028
30
0
40
2.9999999999999982
0
CIRCLE
5
149
100
AcDbEntity
8
0
100
AcDbCircle
10
20.32
20
-33.02000000000001
30
0
40
2.9999999999999982
0
CIRCLE
5
150
100
AcDbEntity
8
0
100
AcDbCircle
10
20.32
20
-9.4205454821588335e-15
30
0
40
3.0000000000000004
0
CIRCLE
5
151
100
AcDbEntity
8
0
100
AcDbCircle
10
20.32
20
-43.180000000000014
30
0
40
2.9999999999999982
0
LINE
5
152
100
AcDbEntity
8
0
100
AcDbLine
10
17.780000000000005
20
0
30
0
11
22.859999999999999
21
0
31
0
0
CIRCLE
5
153
100
AcDbEntity
8
0
100
AcDbCircle
10
20.32
20
40.640000000000001
30
0
40
3.0000000000000018
0
CIRCLE
5
154
100
AcDbEntity
8
0
100
AcDbCircle
10
20.32
20
20.319999999999993
30
0
40
3.5
0
CIRCLE
5
155
100
AcDbEntity
8
0
100
AcDbCircle
10
20.32
20
-22.860000000000014
30
0
40
2.9999999999999982
0
CIRCLE
5
156
100
AcDbEntity
8
0
100
AcDbCircle
10
40.640000000000001
20
-12.700000000000028
30
0
40
2.9999999999999982
0
CIRCLE
5
157
100
AcDbEntity
8
0
100
AcDbCircle
10
40.640000000000001
20
-33.02000000000001
30
0
40
2.9999999999999982
0
CIRCLE
5
158
100
AcDbEntity
8
0
100
AcDbCircle
10
40.640000000000001
20
-9.4205454821588335e-15
30
0
40
3.0000000000000004
0
CIRCLE
5
159
100
AcDbEntity
8
0
100
AcDbCircle
10
40.640000000000001
20
-43.180000000000014
30
0
40
2.9999999999999982
0
LINE
5
160
100
AcDbEntity
8
0
100
AcDbLine
10
38.100000000000009
20
0
30
0
11
43.179999999999993
21
0
31
0
0
CIRCLE
5
161
100
AcDbEntity
8
0
100
AcDbCircle
10
40.640000000000001
20
40.640000000000001
30
0
40
3.0000000000000018
0
CIRCLE
5
162
100
AcDbEntity
8
0
100
AcDbCircle
10
40.640000000000001
20
20.319999999999993
30
0
40
3.5
0
CIRCLE
5
163
100
AcDbEntity
8
0
100
AcDbCircle
10
40.640000000000001
20
-22.860000000000014
30
0
40
2.9999999999999982
0
CIRCLE
5
164
100
AcDbEntity
8
0
100
AcDbCircle
10
-1.4044969251600419e-15
20
40.640000000000001
30
0
40
3.0000000000000004
0
CIRCLE
5
165
100
AcDbEntity
8
0
100
AcDbCircle
10
7.7604520219662356e-17
20
20.320000000000004
30
0
40
3
0
CIRCLE
5
166
100
AcDbEntity
8
0
100
AcDbCircle
10
0
20
0
30
0
40
3.0000000000000009
0
LINE
5
167
100
AcDbEntity
8
0
100
AcDbLine
10
-40.640000000000001
20
-33.02000000000001
30
0
11
-20.32
21
-33.02000000000001
31
0
0
LINE
5
168
100
AcDbEntity
8
0
100
AcDbLine
10
-40.640000000000001
20
-43.180000000000014
30
0
11
-20.32
21
-43.180000000000014
31
0
0
LINE
5
169
100
AcDbEntity
8
0
100
AcDbLine
10
20.32
20
-33.02000000000001
30
0
11
40.640000000000001
21
-33.02000000000001
31
0
0
LINE
5
170
100
AcDbEntity
8
0
100
AcDbLine
10
20.32
20
-43.180000000000014
30
0
11
40.640000000000001
21
-43.180000000000014
31
0
0
CIRCLE
5
171
100
AcDbEntity
8
0
100
AcDbCircle
10
-30.48
20
-33.02000000000001
30
0
40
1.6000000000000014
0
CIRCLE
5
172
100
AcDbEntity
8
0
100
AcDbCircle
10
-30.48
20
-43.180000000000014
30
0
40
1.6000000000000014
0
CIRCLE
5
173
100
AcDbEntity
8
0
100
AcDbCircle
10
30.48
20
-33.02000000000001
30
0
40
1.6000000000000014
0
CIRCLE
5
174
100
AcDbEntity
8
0
100
AcDbCircle
10
30.48
20
-43.180000000000014
30
0
40
1.6000000000000014
0
ENDSEC
0
SECTION
2
OBJECTS
0
DICTIONARY
5
C
100
AcDbDictionary
3
ACAD_GROUP
350
D
3
ACAD_MLINESTYLE
350
17
0
DICTIONARY
5
D
100
AcDbDictionary
0
DICTIONARY
5
1A
330
C
100
AcDbDictionary
0
DICTIONARY
5
17
100
AcDbDictionary
0
ENDSEC
0
EOF
