G04 #@! TF.GenerationSoftware,KiCad,Pcbnew,5.0.2-bee76a0~70~ubuntu18.04.1*
G04 #@! TF.CreationDate,2018-12-31T19:04:56+08:00*
G04 #@! TF.ProjectId,Sequencer,53657175-656e-4636-9572-2e6b69636164,rev?*
G04 #@! TF.SameCoordinates,PX8d9e880PY6424e28*
G04 #@! TF.FileFunction,Legend,Top*
G04 #@! TF.FilePolarity,Positive*
%FSLAX46Y46*%
G04 Gerber Fmt 4.6, Leading zero omitted, Abs format (unit mm)*
G04 Created by KiCad (PCBNEW 5.0.2-bee76a0~70~ubuntu18.04.1) date Mon Dec 31 19:04:56 2018*
%MOMM*%
%LPD*%
G01*
G04 APERTURE LIST*
%ADD10C,0.120000*%
%ADD11C,0.150000*%
%ADD12C,0.200000*%
G04 APERTURE END LIST*
D10*
G04 #@! TO.C,SW1*
X-2174560Y-46394320D02*
X2325440Y-46394320D01*
X-3424560Y-42394320D02*
X-3424560Y-43894320D01*
X2325440Y-39894320D02*
X-2174560Y-39894320D01*
X3575440Y-43894320D02*
X3575440Y-42394320D01*
G04 #@! TO.C,D15*
X28920440Y-44260320D02*
X28920440Y-44416320D01*
X28920440Y-41944320D02*
X28920440Y-42100320D01*
X31521570Y-44260157D02*
G75*
G02X29439479Y-44260320I-1041130J1079837D01*
G01*
X31521570Y-42100483D02*
G75*
G03X29439479Y-42100320I-1041130J-1079837D01*
G01*
X32152775Y-44258928D02*
G75*
G02X28920440Y-44415836I-1672335J1078608D01*
G01*
X32152775Y-42101712D02*
G75*
G03X28920440Y-41944804I-1672335J-1078608D01*
G01*
G04 #@! TO.C,D14*
X32152775Y-31941712D02*
G75*
G03X28920440Y-31784804I-1672335J-1078608D01*
G01*
X32152775Y-34098928D02*
G75*
G02X28920440Y-34255836I-1672335J1078608D01*
G01*
X31521570Y-31940483D02*
G75*
G03X29439479Y-31940320I-1041130J-1079837D01*
G01*
X31521570Y-34100157D02*
G75*
G02X29439479Y-34100320I-1041130J1079837D01*
G01*
X28920440Y-31784320D02*
X28920440Y-31940320D01*
X28920440Y-34100320D02*
X28920440Y-34256320D01*
G04 #@! TO.C,D13*
X-32039560Y-44260320D02*
X-32039560Y-44416320D01*
X-32039560Y-41944320D02*
X-32039560Y-42100320D01*
X-29438430Y-44260157D02*
G75*
G02X-31520521Y-44260320I-1041130J1079837D01*
G01*
X-29438430Y-42100483D02*
G75*
G03X-31520521Y-42100320I-1041130J-1079837D01*
G01*
X-28807225Y-44258928D02*
G75*
G02X-32039560Y-44415836I-1672335J1078608D01*
G01*
X-28807225Y-42101712D02*
G75*
G03X-32039560Y-41944804I-1672335J-1078608D01*
G01*
G04 #@! TO.C,D4*
X-28807225Y-31941712D02*
G75*
G03X-32039560Y-31784804I-1672335J-1078608D01*
G01*
X-28807225Y-34098928D02*
G75*
G02X-32039560Y-34255836I-1672335J1078608D01*
G01*
X-29438430Y-31940483D02*
G75*
G03X-31520521Y-31940320I-1041130J-1079837D01*
G01*
X-29438430Y-34100157D02*
G75*
G02X-31520521Y-34100320I-1041130J1079837D01*
G01*
X-32039560Y-31784320D02*
X-32039560Y-31940320D01*
X-32039560Y-34100320D02*
X-32039560Y-34256320D01*
G04 #@! TO.C,RV2*
X-25300560Y13579980D02*
X-25300560Y17516980D01*
X-25300560Y21883980D02*
X-25300560Y25819980D01*
X-15259560Y13579980D02*
X-15259560Y17516980D01*
X-15259560Y21883980D02*
X-15259560Y25819980D01*
X-25300560Y13579980D02*
X-23650560Y13579980D01*
X-21908560Y13579980D02*
X-21149560Y13579980D01*
X-19408560Y13579980D02*
X-18649560Y13579980D01*
X-16909560Y13579980D02*
X-15259560Y13579980D01*
X-25300560Y25819980D02*
X-15259560Y25819980D01*
G04 #@! TO.C,RV3*
X15339440Y25819980D02*
X25380440Y25819980D01*
X23730440Y13579980D02*
X25380440Y13579980D01*
X21231440Y13579980D02*
X21990440Y13579980D01*
X18731440Y13579980D02*
X19490440Y13579980D01*
X15339440Y13579980D02*
X16989440Y13579980D01*
X25380440Y21883980D02*
X25380440Y25819980D01*
X25380440Y13579980D02*
X25380440Y17516980D01*
X15339440Y21883980D02*
X15339440Y25819980D01*
X15339440Y13579980D02*
X15339440Y17516980D01*
G04 #@! TO.C,RV4*
X35659440Y13579980D02*
X35659440Y17516980D01*
X35659440Y21883980D02*
X35659440Y25819980D01*
X45700440Y13579980D02*
X45700440Y17516980D01*
X45700440Y21883980D02*
X45700440Y25819980D01*
X35659440Y13579980D02*
X37309440Y13579980D01*
X39051440Y13579980D02*
X39810440Y13579980D01*
X41551440Y13579980D02*
X42310440Y13579980D01*
X44050440Y13579980D02*
X45700440Y13579980D01*
X35659440Y25819980D02*
X45700440Y25819980D01*
G04 #@! TO.C,RV1*
X-45620560Y25819980D02*
X-35579560Y25819980D01*
X-37229560Y13579980D02*
X-35579560Y13579980D01*
X-39728560Y13579980D02*
X-38969560Y13579980D01*
X-42228560Y13579980D02*
X-41469560Y13579980D01*
X-45620560Y13579980D02*
X-43970560Y13579980D01*
X-35579560Y21883980D02*
X-35579560Y25819980D01*
X-35579560Y13579980D02*
X-35579560Y17516980D01*
X-45620560Y21883980D02*
X-45620560Y25819980D01*
X-45620560Y13579980D02*
X-45620560Y17516980D01*
D11*
G04 #@! TO.C,J-Inv1*
X-38839560Y-22860320D02*
G75*
G03X-38839560Y-22860320I-1800000J0D01*
G01*
X-37632901Y-22860320D02*
G75*
G03X-37632901Y-22860320I-3006659J0D01*
G01*
X-34639560Y-18360320D02*
X-45139560Y-18360320D01*
X-34639560Y-27360320D02*
X-34639560Y-18360320D01*
X-45139560Y-27360320D02*
X-34639560Y-27360320D01*
X-45139560Y-18360320D02*
X-45139560Y-27360320D01*
X-38839560Y-22860320D02*
X-42439560Y-22860320D01*
X-40639560Y-24660320D02*
X-40639560Y-21060320D01*
G04 #@! TO.C,J-Inv2*
X-20319560Y-24660320D02*
X-20319560Y-21060320D01*
X-18519560Y-22860320D02*
X-22119560Y-22860320D01*
X-24819560Y-18360320D02*
X-24819560Y-27360320D01*
X-24819560Y-27360320D02*
X-14319560Y-27360320D01*
X-14319560Y-27360320D02*
X-14319560Y-18360320D01*
X-14319560Y-18360320D02*
X-24819560Y-18360320D01*
X-17312901Y-22860320D02*
G75*
G03X-17312901Y-22860320I-3006659J0D01*
G01*
X-18519560Y-22860320D02*
G75*
G03X-18519560Y-22860320I-1800000J0D01*
G01*
G04 #@! TO.C,J-Inv3*
X22120440Y-22860320D02*
G75*
G03X22120440Y-22860320I-1800000J0D01*
G01*
X23327099Y-22860320D02*
G75*
G03X23327099Y-22860320I-3006659J0D01*
G01*
X14320440Y-27360320D02*
X24820440Y-27360320D01*
X14320440Y-18360320D02*
X14320440Y-27360320D01*
X24820440Y-18360320D02*
X14320440Y-18360320D01*
X24820440Y-27360320D02*
X24820440Y-18360320D01*
X18520440Y-22860320D02*
X22120440Y-22860320D01*
X20320440Y-21060320D02*
X20320440Y-24660320D01*
G04 #@! TO.C,J-Inv4*
X40640440Y-21060320D02*
X40640440Y-24660320D01*
X38840440Y-22860320D02*
X42440440Y-22860320D01*
X45140440Y-27360320D02*
X45140440Y-18360320D01*
X45140440Y-18360320D02*
X34640440Y-18360320D01*
X34640440Y-18360320D02*
X34640440Y-27360320D01*
X34640440Y-27360320D02*
X45140440Y-27360320D01*
X43647099Y-22860320D02*
G75*
G03X43647099Y-22860320I-3006659J0D01*
G01*
X42440440Y-22860320D02*
G75*
G03X42440440Y-22860320I-1800000J0D01*
G01*
G04 #@! TO.C,J-Inv5*
X-38839560Y-12700320D02*
G75*
G03X-38839560Y-12700320I-1800000J0D01*
G01*
X-37632901Y-12700320D02*
G75*
G03X-37632901Y-12700320I-3006659J0D01*
G01*
X-34639560Y-8200320D02*
X-45139560Y-8200320D01*
X-34639560Y-17200320D02*
X-34639560Y-8200320D01*
X-45139560Y-17200320D02*
X-34639560Y-17200320D01*
X-45139560Y-8200320D02*
X-45139560Y-17200320D01*
X-38839560Y-12700320D02*
X-42439560Y-12700320D01*
X-40639560Y-14500320D02*
X-40639560Y-10900320D01*
G04 #@! TO.C,J-Inv6*
X-20319560Y-14500320D02*
X-20319560Y-10900320D01*
X-18519560Y-12700320D02*
X-22119560Y-12700320D01*
X-24819560Y-8200320D02*
X-24819560Y-17200320D01*
X-24819560Y-17200320D02*
X-14319560Y-17200320D01*
X-14319560Y-17200320D02*
X-14319560Y-8200320D01*
X-14319560Y-8200320D02*
X-24819560Y-8200320D01*
X-17312901Y-12700320D02*
G75*
G03X-17312901Y-12700320I-3006659J0D01*
G01*
X-18519560Y-12700320D02*
G75*
G03X-18519560Y-12700320I-1800000J0D01*
G01*
G04 #@! TO.C,J-Inv7*
X22120440Y-12700320D02*
G75*
G03X22120440Y-12700320I-1800000J0D01*
G01*
X23327099Y-12700320D02*
G75*
G03X23327099Y-12700320I-3006659J0D01*
G01*
X14320440Y-17200320D02*
X24820440Y-17200320D01*
X14320440Y-8200320D02*
X14320440Y-17200320D01*
X24820440Y-8200320D02*
X14320440Y-8200320D01*
X24820440Y-17200320D02*
X24820440Y-8200320D01*
X18520440Y-12700320D02*
X22120440Y-12700320D01*
X20320440Y-10900320D02*
X20320440Y-14500320D01*
G04 #@! TO.C,J-Inv8*
X40640440Y-10900320D02*
X40640440Y-14500320D01*
X38840440Y-12700320D02*
X42440440Y-12700320D01*
X45140440Y-17200320D02*
X45140440Y-8200320D01*
X45140440Y-8200320D02*
X34640440Y-8200320D01*
X34640440Y-8200320D02*
X34640440Y-17200320D01*
X34640440Y-17200320D02*
X45140440Y-17200320D01*
X43647099Y-12700320D02*
G75*
G03X43647099Y-12700320I-3006659J0D01*
G01*
X42440440Y-12700320D02*
G75*
G03X42440440Y-12700320I-1800000J0D01*
G01*
G04 #@! TO.C,J-Inv9*
X-38839560Y-33020320D02*
G75*
G03X-38839560Y-33020320I-1800000J0D01*
G01*
X-37632901Y-33020320D02*
G75*
G03X-37632901Y-33020320I-3006659J0D01*
G01*
X-34639560Y-28520320D02*
X-45139560Y-28520320D01*
X-34639560Y-37520320D02*
X-34639560Y-28520320D01*
X-45139560Y-37520320D02*
X-34639560Y-37520320D01*
X-45139560Y-28520320D02*
X-45139560Y-37520320D01*
X-38839560Y-33020320D02*
X-42439560Y-33020320D01*
X-40639560Y-34820320D02*
X-40639560Y-31220320D01*
G04 #@! TO.C,J-Inv10*
X-20319560Y-34820320D02*
X-20319560Y-31220320D01*
X-18519560Y-33020320D02*
X-22119560Y-33020320D01*
X-24819560Y-28520320D02*
X-24819560Y-37520320D01*
X-24819560Y-37520320D02*
X-14319560Y-37520320D01*
X-14319560Y-37520320D02*
X-14319560Y-28520320D01*
X-14319560Y-28520320D02*
X-24819560Y-28520320D01*
X-17312901Y-33020320D02*
G75*
G03X-17312901Y-33020320I-3006659J0D01*
G01*
X-18519560Y-33020320D02*
G75*
G03X-18519560Y-33020320I-1800000J0D01*
G01*
G04 #@! TO.C,J-Inv11*
X-38839560Y-43180320D02*
G75*
G03X-38839560Y-43180320I-1800000J0D01*
G01*
X-37632901Y-43180320D02*
G75*
G03X-37632901Y-43180320I-3006659J0D01*
G01*
X-34639560Y-38680320D02*
X-45139560Y-38680320D01*
X-34639560Y-47680320D02*
X-34639560Y-38680320D01*
X-45139560Y-47680320D02*
X-34639560Y-47680320D01*
X-45139560Y-38680320D02*
X-45139560Y-47680320D01*
X-38839560Y-43180320D02*
X-42439560Y-43180320D01*
X-40639560Y-44980320D02*
X-40639560Y-41380320D01*
G04 #@! TO.C,J-Inv12*
X-20319560Y-44980320D02*
X-20319560Y-41380320D01*
X-18519560Y-43180320D02*
X-22119560Y-43180320D01*
X-24819560Y-38680320D02*
X-24819560Y-47680320D01*
X-24819560Y-47680320D02*
X-14319560Y-47680320D01*
X-14319560Y-47680320D02*
X-14319560Y-38680320D01*
X-14319560Y-38680320D02*
X-24819560Y-38680320D01*
X-17312901Y-43180320D02*
G75*
G03X-17312901Y-43180320I-3006659J0D01*
G01*
X-18519560Y-43180320D02*
G75*
G03X-18519560Y-43180320I-1800000J0D01*
G01*
G04 #@! TO.C,J-Inv13*
X22120440Y-33020320D02*
G75*
G03X22120440Y-33020320I-1800000J0D01*
G01*
X23327099Y-33020320D02*
G75*
G03X23327099Y-33020320I-3006659J0D01*
G01*
X14320440Y-37520320D02*
X24820440Y-37520320D01*
X14320440Y-28520320D02*
X14320440Y-37520320D01*
X24820440Y-28520320D02*
X14320440Y-28520320D01*
X24820440Y-37520320D02*
X24820440Y-28520320D01*
X18520440Y-33020320D02*
X22120440Y-33020320D01*
X20320440Y-31220320D02*
X20320440Y-34820320D01*
G04 #@! TO.C,J-Inv14*
X40640440Y-31220320D02*
X40640440Y-34820320D01*
X38840440Y-33020320D02*
X42440440Y-33020320D01*
X45140440Y-37520320D02*
X45140440Y-28520320D01*
X45140440Y-28520320D02*
X34640440Y-28520320D01*
X34640440Y-28520320D02*
X34640440Y-37520320D01*
X34640440Y-37520320D02*
X45140440Y-37520320D01*
X43647099Y-33020320D02*
G75*
G03X43647099Y-33020320I-3006659J0D01*
G01*
X42440440Y-33020320D02*
G75*
G03X42440440Y-33020320I-1800000J0D01*
G01*
G04 #@! TO.C,J-Inv15*
X22120440Y-43180320D02*
G75*
G03X22120440Y-43180320I-1800000J0D01*
G01*
X23327099Y-43180320D02*
G75*
G03X23327099Y-43180320I-3006659J0D01*
G01*
X14320440Y-47680320D02*
X24820440Y-47680320D01*
X14320440Y-38680320D02*
X14320440Y-47680320D01*
X24820440Y-38680320D02*
X14320440Y-38680320D01*
X24820440Y-47680320D02*
X24820440Y-38680320D01*
X18520440Y-43180320D02*
X22120440Y-43180320D01*
X20320440Y-41380320D02*
X20320440Y-44980320D01*
G04 #@! TO.C,J-Inv16*
X40640440Y-41380320D02*
X40640440Y-44980320D01*
X38840440Y-43180320D02*
X42440440Y-43180320D01*
X45140440Y-47680320D02*
X45140440Y-38680320D01*
X45140440Y-38680320D02*
X34640440Y-38680320D01*
X34640440Y-38680320D02*
X34640440Y-47680320D01*
X34640440Y-47680320D02*
X45140440Y-47680320D01*
X43647099Y-43180320D02*
G75*
G03X43647099Y-43180320I-3006659J0D01*
G01*
X42440440Y-43180320D02*
G75*
G03X42440440Y-43180320I-1800000J0D01*
G01*
D12*
G04 #@! TO.C,SW12*
X36440440Y-6850320D02*
X44840440Y-6850320D01*
X36440440Y6849680D02*
X36440440Y-6850320D01*
X44840440Y-6850320D02*
X44840440Y6849680D01*
X44840440Y6849680D02*
X36440440Y6849680D01*
G04 #@! TO.C,SW11*
X24520440Y6849680D02*
X16120440Y6849680D01*
X24520440Y-6850320D02*
X24520440Y6849680D01*
X16120440Y6849680D02*
X16120440Y-6850320D01*
X16120440Y-6850320D02*
X24520440Y-6850320D01*
G04 #@! TO.C,SW10*
X-24519560Y-6850320D02*
X-16119560Y-6850320D01*
X-24519560Y6849680D02*
X-24519560Y-6850320D01*
X-16119560Y-6850320D02*
X-16119560Y6849680D01*
X-16119560Y6849680D02*
X-24519560Y6849680D01*
G04 #@! TO.C,SW9*
X-36439560Y6849680D02*
X-44839560Y6849680D01*
X-36439560Y-6850320D02*
X-36439560Y6849680D01*
X-44839560Y6849680D02*
X-44839560Y-6850320D01*
X-44839560Y-6850320D02*
X-36439560Y-6850320D01*
G04 #@! TO.C,SW8*
X-4199560Y-6850320D02*
X4200440Y-6850320D01*
X-4199560Y6849680D02*
X-4199560Y-6850320D01*
X4200440Y-6850320D02*
X4200440Y6849680D01*
X4200440Y6849680D02*
X-4199560Y6849680D01*
G04 #@! TO.C,SW7*
X-6849560Y44839980D02*
X-6849560Y36439980D01*
X6850440Y44839980D02*
X-6849560Y44839980D01*
X-6849560Y36439980D02*
X6850440Y36439980D01*
X6850440Y36439980D02*
X6850440Y44839980D01*
G04 #@! TO.C,SW6*
X6850440Y16119980D02*
X6850440Y24519980D01*
X-6849560Y16119980D02*
X6850440Y16119980D01*
X6850440Y24519980D02*
X-6849560Y24519980D01*
X-6849560Y24519980D02*
X-6849560Y16119980D01*
G04 #@! TO.C,SW5*
X44840440Y47489980D02*
X36440440Y47489980D01*
X44840440Y33789980D02*
X44840440Y47489980D01*
X36440440Y47489980D02*
X36440440Y33789980D01*
X36440440Y33789980D02*
X44840440Y33789980D01*
G04 #@! TO.C,SW4*
X16120440Y33789980D02*
X24520440Y33789980D01*
X16120440Y47489980D02*
X16120440Y33789980D01*
X24520440Y33789980D02*
X24520440Y47489980D01*
X24520440Y47489980D02*
X16120440Y47489980D01*
G04 #@! TO.C,SW3*
X-16119560Y47489980D02*
X-24519560Y47489980D01*
X-16119560Y33789980D02*
X-16119560Y47489980D01*
X-24519560Y47489980D02*
X-24519560Y33789980D01*
X-24519560Y33789980D02*
X-16119560Y33789980D01*
G04 #@! TO.C,SW2*
X-44839560Y33789980D02*
X-36439560Y33789980D01*
X-44839560Y47489980D02*
X-44839560Y33789980D01*
X-36439560Y33789980D02*
X-36439560Y47489980D01*
X-36439560Y47489980D02*
X-44839560Y47489980D01*
G04 #@! TO.C,SW1*
D11*
X-1257894Y-39197891D02*
X-1115037Y-39233605D01*
X-876941Y-39233605D01*
X-781703Y-39197891D01*
X-734084Y-39162177D01*
X-686465Y-39090748D01*
X-686465Y-39019320D01*
X-734084Y-38947891D01*
X-781703Y-38912177D01*
X-876941Y-38876462D01*
X-1067418Y-38840748D01*
X-1162656Y-38805034D01*
X-1210275Y-38769320D01*
X-1257894Y-38697891D01*
X-1257894Y-38626462D01*
X-1210275Y-38555034D01*
X-1162656Y-38519320D01*
X-1067418Y-38483605D01*
X-829322Y-38483605D01*
X-686465Y-38519320D01*
X-353132Y-38483605D02*
X-115037Y-39233605D01*
X75440Y-38697891D01*
X265916Y-39233605D01*
X504011Y-38483605D01*
X1408773Y-39233605D02*
X837344Y-39233605D01*
X1123059Y-39233605D02*
X1123059Y-38483605D01*
X1027820Y-38590748D01*
X932582Y-38662177D01*
X837344Y-38697891D01*
G04 #@! TO.C,D15*
X29266154Y-40559605D02*
X29266154Y-39809605D01*
X29504249Y-39809605D01*
X29647106Y-39845320D01*
X29742344Y-39916748D01*
X29789963Y-39988177D01*
X29837582Y-40131034D01*
X29837582Y-40238177D01*
X29789963Y-40381034D01*
X29742344Y-40452462D01*
X29647106Y-40523891D01*
X29504249Y-40559605D01*
X29266154Y-40559605D01*
X30789963Y-40559605D02*
X30218535Y-40559605D01*
X30504249Y-40559605D02*
X30504249Y-39809605D01*
X30409011Y-39916748D01*
X30313773Y-39988177D01*
X30218535Y-40023891D01*
X31694725Y-39809605D02*
X31218535Y-39809605D01*
X31170916Y-40166748D01*
X31218535Y-40131034D01*
X31313773Y-40095320D01*
X31551868Y-40095320D01*
X31647106Y-40131034D01*
X31694725Y-40166748D01*
X31742344Y-40238177D01*
X31742344Y-40416748D01*
X31694725Y-40488177D01*
X31647106Y-40523891D01*
X31551868Y-40559605D01*
X31313773Y-40559605D01*
X31218535Y-40523891D01*
X31170916Y-40488177D01*
G04 #@! TO.C,D14*
X29266154Y-30399605D02*
X29266154Y-29649605D01*
X29504249Y-29649605D01*
X29647106Y-29685320D01*
X29742344Y-29756748D01*
X29789963Y-29828177D01*
X29837582Y-29971034D01*
X29837582Y-30078177D01*
X29789963Y-30221034D01*
X29742344Y-30292462D01*
X29647106Y-30363891D01*
X29504249Y-30399605D01*
X29266154Y-30399605D01*
X30789963Y-30399605D02*
X30218535Y-30399605D01*
X30504249Y-30399605D02*
X30504249Y-29649605D01*
X30409011Y-29756748D01*
X30313773Y-29828177D01*
X30218535Y-29863891D01*
X31647106Y-29899605D02*
X31647106Y-30399605D01*
X31409011Y-29613891D02*
X31170916Y-30149605D01*
X31789963Y-30149605D01*
G04 #@! TO.C,D13*
X-31693846Y-40559605D02*
X-31693846Y-39809605D01*
X-31455751Y-39809605D01*
X-31312894Y-39845320D01*
X-31217656Y-39916748D01*
X-31170037Y-39988177D01*
X-31122418Y-40131034D01*
X-31122418Y-40238177D01*
X-31170037Y-40381034D01*
X-31217656Y-40452462D01*
X-31312894Y-40523891D01*
X-31455751Y-40559605D01*
X-31693846Y-40559605D01*
X-30170037Y-40559605D02*
X-30741465Y-40559605D01*
X-30455751Y-40559605D02*
X-30455751Y-39809605D01*
X-30550989Y-39916748D01*
X-30646227Y-39988177D01*
X-30741465Y-40023891D01*
X-29836703Y-39809605D02*
X-29217656Y-39809605D01*
X-29550989Y-40095320D01*
X-29408132Y-40095320D01*
X-29312894Y-40131034D01*
X-29265275Y-40166748D01*
X-29217656Y-40238177D01*
X-29217656Y-40416748D01*
X-29265275Y-40488177D01*
X-29312894Y-40523891D01*
X-29408132Y-40559605D01*
X-29693846Y-40559605D01*
X-29789084Y-40523891D01*
X-29836703Y-40488177D01*
G04 #@! TO.C,D4*
X-31217656Y-30399605D02*
X-31217656Y-29649605D01*
X-30979560Y-29649605D01*
X-30836703Y-29685320D01*
X-30741465Y-29756748D01*
X-30693846Y-29828177D01*
X-30646227Y-29971034D01*
X-30646227Y-30078177D01*
X-30693846Y-30221034D01*
X-30741465Y-30292462D01*
X-30836703Y-30363891D01*
X-30979560Y-30399605D01*
X-31217656Y-30399605D01*
X-29789084Y-29899605D02*
X-29789084Y-30399605D01*
X-30027180Y-29613891D02*
X-30265275Y-30149605D01*
X-29646227Y-30149605D01*
G04 #@! TO.C,RV2*
X-20915239Y26330715D02*
X-21248572Y26687858D01*
X-21486667Y26330715D02*
X-21486667Y27080715D01*
X-21105715Y27080715D01*
X-21010477Y27045000D01*
X-20962858Y27009286D01*
X-20915239Y26937858D01*
X-20915239Y26830715D01*
X-20962858Y26759286D01*
X-21010477Y26723572D01*
X-21105715Y26687858D01*
X-21486667Y26687858D01*
X-20629524Y27080715D02*
X-20296191Y26330715D01*
X-19962858Y27080715D01*
X-19677143Y27009286D02*
X-19629524Y27045000D01*
X-19534286Y27080715D01*
X-19296191Y27080715D01*
X-19200953Y27045000D01*
X-19153334Y27009286D01*
X-19105715Y26937858D01*
X-19105715Y26866429D01*
X-19153334Y26759286D01*
X-19724762Y26330715D01*
X-19105715Y26330715D01*
G04 #@! TO.C,RV3*
X19724761Y26330715D02*
X19391428Y26687858D01*
X19153333Y26330715D02*
X19153333Y27080715D01*
X19534285Y27080715D01*
X19629523Y27045000D01*
X19677142Y27009286D01*
X19724761Y26937858D01*
X19724761Y26830715D01*
X19677142Y26759286D01*
X19629523Y26723572D01*
X19534285Y26687858D01*
X19153333Y26687858D01*
X20010476Y27080715D02*
X20343809Y26330715D01*
X20677142Y27080715D01*
X20915238Y27080715D02*
X21534285Y27080715D01*
X21200952Y26795000D01*
X21343809Y26795000D01*
X21439047Y26759286D01*
X21486666Y26723572D01*
X21534285Y26652143D01*
X21534285Y26473572D01*
X21486666Y26402143D01*
X21439047Y26366429D01*
X21343809Y26330715D01*
X21058095Y26330715D01*
X20962857Y26366429D01*
X20915238Y26402143D01*
G04 #@! TO.C,RV4*
X40044761Y26330715D02*
X39711428Y26687858D01*
X39473333Y26330715D02*
X39473333Y27080715D01*
X39854285Y27080715D01*
X39949523Y27045000D01*
X39997142Y27009286D01*
X40044761Y26937858D01*
X40044761Y26830715D01*
X39997142Y26759286D01*
X39949523Y26723572D01*
X39854285Y26687858D01*
X39473333Y26687858D01*
X40330476Y27080715D02*
X40663809Y26330715D01*
X40997142Y27080715D01*
X41759047Y26830715D02*
X41759047Y26330715D01*
X41520952Y27116429D02*
X41282857Y26580715D01*
X41901904Y26580715D01*
G04 #@! TO.C,RV1*
X-41235239Y26330715D02*
X-41568572Y26687858D01*
X-41806667Y26330715D02*
X-41806667Y27080715D01*
X-41425715Y27080715D01*
X-41330477Y27045000D01*
X-41282858Y27009286D01*
X-41235239Y26937858D01*
X-41235239Y26830715D01*
X-41282858Y26759286D01*
X-41330477Y26723572D01*
X-41425715Y26687858D01*
X-41806667Y26687858D01*
X-40949524Y27080715D02*
X-40616191Y26330715D01*
X-40282858Y27080715D01*
X-39425715Y26330715D02*
X-39997143Y26330715D01*
X-39711429Y26330715D02*
X-39711429Y27080715D01*
X-39806667Y26973572D01*
X-39901905Y26902143D01*
X-39997143Y26866429D01*
G04 #@! TO.C,J-Inv1*
X-34150275Y-24884129D02*
X-33614560Y-24884129D01*
X-33507418Y-24931748D01*
X-33435989Y-25026986D01*
X-33400275Y-25169843D01*
X-33400275Y-25265081D01*
X-33685989Y-24407939D02*
X-33685989Y-23646034D01*
X-33400275Y-23169843D02*
X-34150275Y-23169843D01*
X-33900275Y-22693653D02*
X-33400275Y-22693653D01*
X-33828846Y-22693653D02*
X-33864560Y-22646034D01*
X-33900275Y-22550796D01*
X-33900275Y-22407939D01*
X-33864560Y-22312700D01*
X-33793132Y-22265081D01*
X-33400275Y-22265081D01*
X-33900275Y-21884129D02*
X-33400275Y-21646034D01*
X-33900275Y-21407939D01*
X-33400275Y-20503177D02*
X-33400275Y-21074605D01*
X-33400275Y-20788891D02*
X-34150275Y-20788891D01*
X-34043132Y-20884129D01*
X-33971703Y-20979367D01*
X-33935989Y-21074605D01*
G04 #@! TO.C,J-Inv2*
X-13830275Y-24884129D02*
X-13294560Y-24884129D01*
X-13187418Y-24931748D01*
X-13115989Y-25026986D01*
X-13080275Y-25169843D01*
X-13080275Y-25265081D01*
X-13365989Y-24407939D02*
X-13365989Y-23646034D01*
X-13080275Y-23169843D02*
X-13830275Y-23169843D01*
X-13580275Y-22693653D02*
X-13080275Y-22693653D01*
X-13508846Y-22693653D02*
X-13544560Y-22646034D01*
X-13580275Y-22550796D01*
X-13580275Y-22407939D01*
X-13544560Y-22312700D01*
X-13473132Y-22265081D01*
X-13080275Y-22265081D01*
X-13580275Y-21884129D02*
X-13080275Y-21646034D01*
X-13580275Y-21407939D01*
X-13758846Y-21074605D02*
X-13794560Y-21026986D01*
X-13830275Y-20931748D01*
X-13830275Y-20693653D01*
X-13794560Y-20598415D01*
X-13758846Y-20550796D01*
X-13687418Y-20503177D01*
X-13615989Y-20503177D01*
X-13508846Y-20550796D01*
X-13080275Y-21122224D01*
X-13080275Y-20503177D01*
G04 #@! TO.C,J-Inv3*
X13009725Y-24884129D02*
X13545440Y-24884129D01*
X13652582Y-24931748D01*
X13724011Y-25026986D01*
X13759725Y-25169843D01*
X13759725Y-25265081D01*
X13474011Y-24407939D02*
X13474011Y-23646034D01*
X13759725Y-23169843D02*
X13009725Y-23169843D01*
X13259725Y-22693653D02*
X13759725Y-22693653D01*
X13331154Y-22693653D02*
X13295440Y-22646034D01*
X13259725Y-22550796D01*
X13259725Y-22407939D01*
X13295440Y-22312700D01*
X13366868Y-22265081D01*
X13759725Y-22265081D01*
X13259725Y-21884129D02*
X13759725Y-21646034D01*
X13259725Y-21407939D01*
X13009725Y-21122224D02*
X13009725Y-20503177D01*
X13295440Y-20836510D01*
X13295440Y-20693653D01*
X13331154Y-20598415D01*
X13366868Y-20550796D01*
X13438297Y-20503177D01*
X13616868Y-20503177D01*
X13688297Y-20550796D01*
X13724011Y-20598415D01*
X13759725Y-20693653D01*
X13759725Y-20979367D01*
X13724011Y-21074605D01*
X13688297Y-21122224D01*
G04 #@! TO.C,J-Inv4*
X33329725Y-24884129D02*
X33865440Y-24884129D01*
X33972582Y-24931748D01*
X34044011Y-25026986D01*
X34079725Y-25169843D01*
X34079725Y-25265081D01*
X33794011Y-24407939D02*
X33794011Y-23646034D01*
X34079725Y-23169843D02*
X33329725Y-23169843D01*
X33579725Y-22693653D02*
X34079725Y-22693653D01*
X33651154Y-22693653D02*
X33615440Y-22646034D01*
X33579725Y-22550796D01*
X33579725Y-22407939D01*
X33615440Y-22312700D01*
X33686868Y-22265081D01*
X34079725Y-22265081D01*
X33579725Y-21884129D02*
X34079725Y-21646034D01*
X33579725Y-21407939D01*
X33579725Y-20598415D02*
X34079725Y-20598415D01*
X33294011Y-20836510D02*
X33829725Y-21074605D01*
X33829725Y-20455558D01*
G04 #@! TO.C,J-Inv5*
X-34150275Y-14724129D02*
X-33614560Y-14724129D01*
X-33507418Y-14771748D01*
X-33435989Y-14866986D01*
X-33400275Y-15009843D01*
X-33400275Y-15105081D01*
X-33685989Y-14247939D02*
X-33685989Y-13486034D01*
X-33400275Y-13009843D02*
X-34150275Y-13009843D01*
X-33900275Y-12533653D02*
X-33400275Y-12533653D01*
X-33828846Y-12533653D02*
X-33864560Y-12486034D01*
X-33900275Y-12390796D01*
X-33900275Y-12247939D01*
X-33864560Y-12152700D01*
X-33793132Y-12105081D01*
X-33400275Y-12105081D01*
X-33900275Y-11724129D02*
X-33400275Y-11486034D01*
X-33900275Y-11247939D01*
X-34150275Y-10390796D02*
X-34150275Y-10866986D01*
X-33793132Y-10914605D01*
X-33828846Y-10866986D01*
X-33864560Y-10771748D01*
X-33864560Y-10533653D01*
X-33828846Y-10438415D01*
X-33793132Y-10390796D01*
X-33721703Y-10343177D01*
X-33543132Y-10343177D01*
X-33471703Y-10390796D01*
X-33435989Y-10438415D01*
X-33400275Y-10533653D01*
X-33400275Y-10771748D01*
X-33435989Y-10866986D01*
X-33471703Y-10914605D01*
G04 #@! TO.C,J-Inv6*
X-13830275Y-14724129D02*
X-13294560Y-14724129D01*
X-13187418Y-14771748D01*
X-13115989Y-14866986D01*
X-13080275Y-15009843D01*
X-13080275Y-15105081D01*
X-13365989Y-14247939D02*
X-13365989Y-13486034D01*
X-13080275Y-13009843D02*
X-13830275Y-13009843D01*
X-13580275Y-12533653D02*
X-13080275Y-12533653D01*
X-13508846Y-12533653D02*
X-13544560Y-12486034D01*
X-13580275Y-12390796D01*
X-13580275Y-12247939D01*
X-13544560Y-12152700D01*
X-13473132Y-12105081D01*
X-13080275Y-12105081D01*
X-13580275Y-11724129D02*
X-13080275Y-11486034D01*
X-13580275Y-11247939D01*
X-13830275Y-10438415D02*
X-13830275Y-10628891D01*
X-13794560Y-10724129D01*
X-13758846Y-10771748D01*
X-13651703Y-10866986D01*
X-13508846Y-10914605D01*
X-13223132Y-10914605D01*
X-13151703Y-10866986D01*
X-13115989Y-10819367D01*
X-13080275Y-10724129D01*
X-13080275Y-10533653D01*
X-13115989Y-10438415D01*
X-13151703Y-10390796D01*
X-13223132Y-10343177D01*
X-13401703Y-10343177D01*
X-13473132Y-10390796D01*
X-13508846Y-10438415D01*
X-13544560Y-10533653D01*
X-13544560Y-10724129D01*
X-13508846Y-10819367D01*
X-13473132Y-10866986D01*
X-13401703Y-10914605D01*
G04 #@! TO.C,J-Inv7*
X13009725Y-14724129D02*
X13545440Y-14724129D01*
X13652582Y-14771748D01*
X13724011Y-14866986D01*
X13759725Y-15009843D01*
X13759725Y-15105081D01*
X13474011Y-14247939D02*
X13474011Y-13486034D01*
X13759725Y-13009843D02*
X13009725Y-13009843D01*
X13259725Y-12533653D02*
X13759725Y-12533653D01*
X13331154Y-12533653D02*
X13295440Y-12486034D01*
X13259725Y-12390796D01*
X13259725Y-12247939D01*
X13295440Y-12152700D01*
X13366868Y-12105081D01*
X13759725Y-12105081D01*
X13259725Y-11724129D02*
X13759725Y-11486034D01*
X13259725Y-11247939D01*
X13009725Y-10962224D02*
X13009725Y-10295558D01*
X13759725Y-10724129D01*
G04 #@! TO.C,J-Inv8*
X33329725Y-14724129D02*
X33865440Y-14724129D01*
X33972582Y-14771748D01*
X34044011Y-14866986D01*
X34079725Y-15009843D01*
X34079725Y-15105081D01*
X33794011Y-14247939D02*
X33794011Y-13486034D01*
X34079725Y-13009843D02*
X33329725Y-13009843D01*
X33579725Y-12533653D02*
X34079725Y-12533653D01*
X33651154Y-12533653D02*
X33615440Y-12486034D01*
X33579725Y-12390796D01*
X33579725Y-12247939D01*
X33615440Y-12152700D01*
X33686868Y-12105081D01*
X34079725Y-12105081D01*
X33579725Y-11724129D02*
X34079725Y-11486034D01*
X33579725Y-11247939D01*
X33651154Y-10724129D02*
X33615440Y-10819367D01*
X33579725Y-10866986D01*
X33508297Y-10914605D01*
X33472582Y-10914605D01*
X33401154Y-10866986D01*
X33365440Y-10819367D01*
X33329725Y-10724129D01*
X33329725Y-10533653D01*
X33365440Y-10438415D01*
X33401154Y-10390796D01*
X33472582Y-10343177D01*
X33508297Y-10343177D01*
X33579725Y-10390796D01*
X33615440Y-10438415D01*
X33651154Y-10533653D01*
X33651154Y-10724129D01*
X33686868Y-10819367D01*
X33722582Y-10866986D01*
X33794011Y-10914605D01*
X33936868Y-10914605D01*
X34008297Y-10866986D01*
X34044011Y-10819367D01*
X34079725Y-10724129D01*
X34079725Y-10533653D01*
X34044011Y-10438415D01*
X34008297Y-10390796D01*
X33936868Y-10343177D01*
X33794011Y-10343177D01*
X33722582Y-10390796D01*
X33686868Y-10438415D01*
X33651154Y-10533653D01*
G04 #@! TO.C,J-Inv9*
X-34150275Y-35044129D02*
X-33614560Y-35044129D01*
X-33507418Y-35091748D01*
X-33435989Y-35186986D01*
X-33400275Y-35329843D01*
X-33400275Y-35425081D01*
X-33685989Y-34567939D02*
X-33685989Y-33806034D01*
X-33400275Y-33329843D02*
X-34150275Y-33329843D01*
X-33900275Y-32853653D02*
X-33400275Y-32853653D01*
X-33828846Y-32853653D02*
X-33864560Y-32806034D01*
X-33900275Y-32710796D01*
X-33900275Y-32567939D01*
X-33864560Y-32472700D01*
X-33793132Y-32425081D01*
X-33400275Y-32425081D01*
X-33900275Y-32044129D02*
X-33400275Y-31806034D01*
X-33900275Y-31567939D01*
X-33400275Y-31139367D02*
X-33400275Y-30948891D01*
X-33435989Y-30853653D01*
X-33471703Y-30806034D01*
X-33578846Y-30710796D01*
X-33721703Y-30663177D01*
X-34007418Y-30663177D01*
X-34078846Y-30710796D01*
X-34114560Y-30758415D01*
X-34150275Y-30853653D01*
X-34150275Y-31044129D01*
X-34114560Y-31139367D01*
X-34078846Y-31186986D01*
X-34007418Y-31234605D01*
X-33828846Y-31234605D01*
X-33757418Y-31186986D01*
X-33721703Y-31139367D01*
X-33685989Y-31044129D01*
X-33685989Y-30853653D01*
X-33721703Y-30758415D01*
X-33757418Y-30710796D01*
X-33828846Y-30663177D01*
G04 #@! TO.C,J-Inv10*
X-13830275Y-35520320D02*
X-13294560Y-35520320D01*
X-13187418Y-35567939D01*
X-13115989Y-35663177D01*
X-13080275Y-35806034D01*
X-13080275Y-35901272D01*
X-13365989Y-35044129D02*
X-13365989Y-34282224D01*
X-13080275Y-33806034D02*
X-13830275Y-33806034D01*
X-13580275Y-33329843D02*
X-13080275Y-33329843D01*
X-13508846Y-33329843D02*
X-13544560Y-33282224D01*
X-13580275Y-33186986D01*
X-13580275Y-33044129D01*
X-13544560Y-32948891D01*
X-13473132Y-32901272D01*
X-13080275Y-32901272D01*
X-13580275Y-32520320D02*
X-13080275Y-32282224D01*
X-13580275Y-32044129D01*
X-13080275Y-31139367D02*
X-13080275Y-31710796D01*
X-13080275Y-31425081D02*
X-13830275Y-31425081D01*
X-13723132Y-31520320D01*
X-13651703Y-31615558D01*
X-13615989Y-31710796D01*
X-13830275Y-30520320D02*
X-13830275Y-30425081D01*
X-13794560Y-30329843D01*
X-13758846Y-30282224D01*
X-13687418Y-30234605D01*
X-13544560Y-30186986D01*
X-13365989Y-30186986D01*
X-13223132Y-30234605D01*
X-13151703Y-30282224D01*
X-13115989Y-30329843D01*
X-13080275Y-30425081D01*
X-13080275Y-30520320D01*
X-13115989Y-30615558D01*
X-13151703Y-30663177D01*
X-13223132Y-30710796D01*
X-13365989Y-30758415D01*
X-13544560Y-30758415D01*
X-13687418Y-30710796D01*
X-13758846Y-30663177D01*
X-13794560Y-30615558D01*
X-13830275Y-30520320D01*
G04 #@! TO.C,J-Inv11*
X-34150275Y-45680320D02*
X-33614560Y-45680320D01*
X-33507418Y-45727939D01*
X-33435989Y-45823177D01*
X-33400275Y-45966034D01*
X-33400275Y-46061272D01*
X-33685989Y-45204129D02*
X-33685989Y-44442224D01*
X-33400275Y-43966034D02*
X-34150275Y-43966034D01*
X-33900275Y-43489843D02*
X-33400275Y-43489843D01*
X-33828846Y-43489843D02*
X-33864560Y-43442224D01*
X-33900275Y-43346986D01*
X-33900275Y-43204129D01*
X-33864560Y-43108891D01*
X-33793132Y-43061272D01*
X-33400275Y-43061272D01*
X-33900275Y-42680320D02*
X-33400275Y-42442224D01*
X-33900275Y-42204129D01*
X-33400275Y-41299367D02*
X-33400275Y-41870796D01*
X-33400275Y-41585081D02*
X-34150275Y-41585081D01*
X-34043132Y-41680320D01*
X-33971703Y-41775558D01*
X-33935989Y-41870796D01*
X-33400275Y-40346986D02*
X-33400275Y-40918415D01*
X-33400275Y-40632700D02*
X-34150275Y-40632700D01*
X-34043132Y-40727939D01*
X-33971703Y-40823177D01*
X-33935989Y-40918415D01*
G04 #@! TO.C,J-Inv12*
X-13830275Y-45680320D02*
X-13294560Y-45680320D01*
X-13187418Y-45727939D01*
X-13115989Y-45823177D01*
X-13080275Y-45966034D01*
X-13080275Y-46061272D01*
X-13365989Y-45204129D02*
X-13365989Y-44442224D01*
X-13080275Y-43966034D02*
X-13830275Y-43966034D01*
X-13580275Y-43489843D02*
X-13080275Y-43489843D01*
X-13508846Y-43489843D02*
X-13544560Y-43442224D01*
X-13580275Y-43346986D01*
X-13580275Y-43204129D01*
X-13544560Y-43108891D01*
X-13473132Y-43061272D01*
X-13080275Y-43061272D01*
X-13580275Y-42680320D02*
X-13080275Y-42442224D01*
X-13580275Y-42204129D01*
X-13080275Y-41299367D02*
X-13080275Y-41870796D01*
X-13080275Y-41585081D02*
X-13830275Y-41585081D01*
X-13723132Y-41680320D01*
X-13651703Y-41775558D01*
X-13615989Y-41870796D01*
X-13758846Y-40918415D02*
X-13794560Y-40870796D01*
X-13830275Y-40775558D01*
X-13830275Y-40537462D01*
X-13794560Y-40442224D01*
X-13758846Y-40394605D01*
X-13687418Y-40346986D01*
X-13615989Y-40346986D01*
X-13508846Y-40394605D01*
X-13080275Y-40966034D01*
X-13080275Y-40346986D01*
G04 #@! TO.C,J-Inv13*
X13009725Y-35520320D02*
X13545440Y-35520320D01*
X13652582Y-35567939D01*
X13724011Y-35663177D01*
X13759725Y-35806034D01*
X13759725Y-35901272D01*
X13474011Y-35044129D02*
X13474011Y-34282224D01*
X13759725Y-33806034D02*
X13009725Y-33806034D01*
X13259725Y-33329843D02*
X13759725Y-33329843D01*
X13331154Y-33329843D02*
X13295440Y-33282224D01*
X13259725Y-33186986D01*
X13259725Y-33044129D01*
X13295440Y-32948891D01*
X13366868Y-32901272D01*
X13759725Y-32901272D01*
X13259725Y-32520320D02*
X13759725Y-32282224D01*
X13259725Y-32044129D01*
X13759725Y-31139367D02*
X13759725Y-31710796D01*
X13759725Y-31425081D02*
X13009725Y-31425081D01*
X13116868Y-31520320D01*
X13188297Y-31615558D01*
X13224011Y-31710796D01*
X13009725Y-30806034D02*
X13009725Y-30186986D01*
X13295440Y-30520320D01*
X13295440Y-30377462D01*
X13331154Y-30282224D01*
X13366868Y-30234605D01*
X13438297Y-30186986D01*
X13616868Y-30186986D01*
X13688297Y-30234605D01*
X13724011Y-30282224D01*
X13759725Y-30377462D01*
X13759725Y-30663177D01*
X13724011Y-30758415D01*
X13688297Y-30806034D01*
G04 #@! TO.C,J-Inv14*
X33329725Y-35520320D02*
X33865440Y-35520320D01*
X33972582Y-35567939D01*
X34044011Y-35663177D01*
X34079725Y-35806034D01*
X34079725Y-35901272D01*
X33794011Y-35044129D02*
X33794011Y-34282224D01*
X34079725Y-33806034D02*
X33329725Y-33806034D01*
X33579725Y-33329843D02*
X34079725Y-33329843D01*
X33651154Y-33329843D02*
X33615440Y-33282224D01*
X33579725Y-33186986D01*
X33579725Y-33044129D01*
X33615440Y-32948891D01*
X33686868Y-32901272D01*
X34079725Y-32901272D01*
X33579725Y-32520320D02*
X34079725Y-32282224D01*
X33579725Y-32044129D01*
X34079725Y-31139367D02*
X34079725Y-31710796D01*
X34079725Y-31425081D02*
X33329725Y-31425081D01*
X33436868Y-31520320D01*
X33508297Y-31615558D01*
X33544011Y-31710796D01*
X33579725Y-30282224D02*
X34079725Y-30282224D01*
X33294011Y-30520320D02*
X33829725Y-30758415D01*
X33829725Y-30139367D01*
G04 #@! TO.C,J-Inv15*
X13009725Y-45680320D02*
X13545440Y-45680320D01*
X13652582Y-45727939D01*
X13724011Y-45823177D01*
X13759725Y-45966034D01*
X13759725Y-46061272D01*
X13474011Y-45204129D02*
X13474011Y-44442224D01*
X13759725Y-43966034D02*
X13009725Y-43966034D01*
X13259725Y-43489843D02*
X13759725Y-43489843D01*
X13331154Y-43489843D02*
X13295440Y-43442224D01*
X13259725Y-43346986D01*
X13259725Y-43204129D01*
X13295440Y-43108891D01*
X13366868Y-43061272D01*
X13759725Y-43061272D01*
X13259725Y-42680320D02*
X13759725Y-42442224D01*
X13259725Y-42204129D01*
X13759725Y-41299367D02*
X13759725Y-41870796D01*
X13759725Y-41585081D02*
X13009725Y-41585081D01*
X13116868Y-41680320D01*
X13188297Y-41775558D01*
X13224011Y-41870796D01*
X13009725Y-40394605D02*
X13009725Y-40870796D01*
X13366868Y-40918415D01*
X13331154Y-40870796D01*
X13295440Y-40775558D01*
X13295440Y-40537462D01*
X13331154Y-40442224D01*
X13366868Y-40394605D01*
X13438297Y-40346986D01*
X13616868Y-40346986D01*
X13688297Y-40394605D01*
X13724011Y-40442224D01*
X13759725Y-40537462D01*
X13759725Y-40775558D01*
X13724011Y-40870796D01*
X13688297Y-40918415D01*
G04 #@! TO.C,J-Inv16*
X33329725Y-45680320D02*
X33865440Y-45680320D01*
X33972582Y-45727939D01*
X34044011Y-45823177D01*
X34079725Y-45966034D01*
X34079725Y-46061272D01*
X33794011Y-45204129D02*
X33794011Y-44442224D01*
X34079725Y-43966034D02*
X33329725Y-43966034D01*
X33579725Y-43489843D02*
X34079725Y-43489843D01*
X33651154Y-43489843D02*
X33615440Y-43442224D01*
X33579725Y-43346986D01*
X33579725Y-43204129D01*
X33615440Y-43108891D01*
X33686868Y-43061272D01*
X34079725Y-43061272D01*
X33579725Y-42680320D02*
X34079725Y-42442224D01*
X33579725Y-42204129D01*
X34079725Y-41299367D02*
X34079725Y-41870796D01*
X34079725Y-41585081D02*
X33329725Y-41585081D01*
X33436868Y-41680320D01*
X33508297Y-41775558D01*
X33544011Y-41870796D01*
X33329725Y-40442224D02*
X33329725Y-40632700D01*
X33365440Y-40727939D01*
X33401154Y-40775558D01*
X33508297Y-40870796D01*
X33651154Y-40918415D01*
X33936868Y-40918415D01*
X34008297Y-40870796D01*
X34044011Y-40823177D01*
X34079725Y-40727939D01*
X34079725Y-40537462D01*
X34044011Y-40442224D01*
X34008297Y-40394605D01*
X33936868Y-40346986D01*
X33758297Y-40346986D01*
X33686868Y-40394605D01*
X33651154Y-40442224D01*
X33615440Y-40537462D01*
X33615440Y-40727939D01*
X33651154Y-40823177D01*
X33686868Y-40870796D01*
X33758297Y-40918415D01*
G04 #@! TO.C,SW12*
X38830916Y7443109D02*
X38973773Y7407395D01*
X39211868Y7407395D01*
X39307106Y7443109D01*
X39354725Y7478823D01*
X39402344Y7550252D01*
X39402344Y7621680D01*
X39354725Y7693109D01*
X39307106Y7728823D01*
X39211868Y7764538D01*
X39021392Y7800252D01*
X38926154Y7835966D01*
X38878535Y7871680D01*
X38830916Y7943109D01*
X38830916Y8014538D01*
X38878535Y8085966D01*
X38926154Y8121680D01*
X39021392Y8157395D01*
X39259487Y8157395D01*
X39402344Y8121680D01*
X39735678Y8157395D02*
X39973773Y7407395D01*
X40164249Y7943109D01*
X40354725Y7407395D01*
X40592820Y8157395D01*
X41497582Y7407395D02*
X40926154Y7407395D01*
X41211868Y7407395D02*
X41211868Y8157395D01*
X41116630Y8050252D01*
X41021392Y7978823D01*
X40926154Y7943109D01*
X41878535Y8085966D02*
X41926154Y8121680D01*
X42021392Y8157395D01*
X42259487Y8157395D01*
X42354725Y8121680D01*
X42402344Y8085966D01*
X42449963Y8014538D01*
X42449963Y7943109D01*
X42402344Y7835966D01*
X41830916Y7407395D01*
X42449963Y7407395D01*
G04 #@! TO.C,SW11*
X18510916Y7443109D02*
X18653773Y7407395D01*
X18891868Y7407395D01*
X18987106Y7443109D01*
X19034725Y7478823D01*
X19082344Y7550252D01*
X19082344Y7621680D01*
X19034725Y7693109D01*
X18987106Y7728823D01*
X18891868Y7764538D01*
X18701392Y7800252D01*
X18606154Y7835966D01*
X18558535Y7871680D01*
X18510916Y7943109D01*
X18510916Y8014538D01*
X18558535Y8085966D01*
X18606154Y8121680D01*
X18701392Y8157395D01*
X18939487Y8157395D01*
X19082344Y8121680D01*
X19415678Y8157395D02*
X19653773Y7407395D01*
X19844249Y7943109D01*
X20034725Y7407395D01*
X20272820Y8157395D01*
X21177582Y7407395D02*
X20606154Y7407395D01*
X20891868Y7407395D02*
X20891868Y8157395D01*
X20796630Y8050252D01*
X20701392Y7978823D01*
X20606154Y7943109D01*
X22129963Y7407395D02*
X21558535Y7407395D01*
X21844249Y7407395D02*
X21844249Y8157395D01*
X21749011Y8050252D01*
X21653773Y7978823D01*
X21558535Y7943109D01*
G04 #@! TO.C,SW10*
X-22129084Y7570429D02*
X-21986227Y7534715D01*
X-21748132Y7534715D01*
X-21652894Y7570429D01*
X-21605275Y7606143D01*
X-21557656Y7677572D01*
X-21557656Y7749000D01*
X-21605275Y7820429D01*
X-21652894Y7856143D01*
X-21748132Y7891858D01*
X-21938608Y7927572D01*
X-22033846Y7963286D01*
X-22081465Y7999000D01*
X-22129084Y8070429D01*
X-22129084Y8141858D01*
X-22081465Y8213286D01*
X-22033846Y8249000D01*
X-21938608Y8284715D01*
X-21700513Y8284715D01*
X-21557656Y8249000D01*
X-21224322Y8284715D02*
X-20986227Y7534715D01*
X-20795751Y8070429D01*
X-20605275Y7534715D01*
X-20367180Y8284715D01*
X-19462418Y7534715D02*
X-20033846Y7534715D01*
X-19748132Y7534715D02*
X-19748132Y8284715D01*
X-19843370Y8177572D01*
X-19938608Y8106143D01*
X-20033846Y8070429D01*
X-18843370Y8284715D02*
X-18748132Y8284715D01*
X-18652894Y8249000D01*
X-18605275Y8213286D01*
X-18557656Y8141858D01*
X-18510037Y7999000D01*
X-18510037Y7820429D01*
X-18557656Y7677572D01*
X-18605275Y7606143D01*
X-18652894Y7570429D01*
X-18748132Y7534715D01*
X-18843370Y7534715D01*
X-18938608Y7570429D01*
X-18986227Y7606143D01*
X-19033846Y7677572D01*
X-19081465Y7820429D01*
X-19081465Y7999000D01*
X-19033846Y8141858D01*
X-18986227Y8213286D01*
X-18938608Y8249000D01*
X-18843370Y8284715D01*
G04 #@! TO.C,SW9*
X-41973334Y7570429D02*
X-41830477Y7534715D01*
X-41592381Y7534715D01*
X-41497143Y7570429D01*
X-41449524Y7606143D01*
X-41401905Y7677572D01*
X-41401905Y7749000D01*
X-41449524Y7820429D01*
X-41497143Y7856143D01*
X-41592381Y7891858D01*
X-41782858Y7927572D01*
X-41878096Y7963286D01*
X-41925715Y7999000D01*
X-41973334Y8070429D01*
X-41973334Y8141858D01*
X-41925715Y8213286D01*
X-41878096Y8249000D01*
X-41782858Y8284715D01*
X-41544762Y8284715D01*
X-41401905Y8249000D01*
X-41068572Y8284715D02*
X-40830477Y7534715D01*
X-40640000Y8070429D01*
X-40449524Y7534715D01*
X-40211429Y8284715D01*
X-39782858Y7534715D02*
X-39592381Y7534715D01*
X-39497143Y7570429D01*
X-39449524Y7606143D01*
X-39354286Y7713286D01*
X-39306667Y7856143D01*
X-39306667Y8141858D01*
X-39354286Y8213286D01*
X-39401905Y8249000D01*
X-39497143Y8284715D01*
X-39687620Y8284715D01*
X-39782858Y8249000D01*
X-39830477Y8213286D01*
X-39878096Y8141858D01*
X-39878096Y7963286D01*
X-39830477Y7891858D01*
X-39782858Y7856143D01*
X-39687620Y7820429D01*
X-39497143Y7820429D01*
X-39401905Y7856143D01*
X-39354286Y7891858D01*
X-39306667Y7963286D01*
G04 #@! TO.C,SW8*
X-1332894Y7570429D02*
X-1190037Y7534715D01*
X-951941Y7534715D01*
X-856703Y7570429D01*
X-809084Y7606143D01*
X-761465Y7677572D01*
X-761465Y7749000D01*
X-809084Y7820429D01*
X-856703Y7856143D01*
X-951941Y7891858D01*
X-1142418Y7927572D01*
X-1237656Y7963286D01*
X-1285275Y7999000D01*
X-1332894Y8070429D01*
X-1332894Y8141858D01*
X-1285275Y8213286D01*
X-1237656Y8249000D01*
X-1142418Y8284715D01*
X-904322Y8284715D01*
X-761465Y8249000D01*
X-428132Y8284715D02*
X-190037Y7534715D01*
X440Y8070429D01*
X190916Y7534715D01*
X429011Y8284715D01*
X952820Y7963286D02*
X857582Y7999000D01*
X809963Y8034715D01*
X762344Y8106143D01*
X762344Y8141858D01*
X809963Y8213286D01*
X857582Y8249000D01*
X952820Y8284715D01*
X1143297Y8284715D01*
X1238535Y8249000D01*
X1286154Y8213286D01*
X1333773Y8141858D01*
X1333773Y8106143D01*
X1286154Y8034715D01*
X1238535Y7999000D01*
X1143297Y7963286D01*
X952820Y7963286D01*
X857582Y7927572D01*
X809963Y7891858D01*
X762344Y7820429D01*
X762344Y7677572D01*
X809963Y7606143D01*
X857582Y7570429D01*
X952820Y7534715D01*
X1143297Y7534715D01*
X1238535Y7570429D01*
X1286154Y7606143D01*
X1333773Y7677572D01*
X1333773Y7820429D01*
X1286154Y7891858D01*
X1238535Y7927572D01*
X1143297Y7963286D01*
G04 #@! TO.C,SW7*
X-1333334Y45416429D02*
X-1190477Y45380715D01*
X-952381Y45380715D01*
X-857143Y45416429D01*
X-809524Y45452143D01*
X-761905Y45523572D01*
X-761905Y45595000D01*
X-809524Y45666429D01*
X-857143Y45702143D01*
X-952381Y45737858D01*
X-1142858Y45773572D01*
X-1238096Y45809286D01*
X-1285715Y45845000D01*
X-1333334Y45916429D01*
X-1333334Y45987858D01*
X-1285715Y46059286D01*
X-1238096Y46095000D01*
X-1142858Y46130715D01*
X-904762Y46130715D01*
X-761905Y46095000D01*
X-428572Y46130715D02*
X-190477Y45380715D01*
X0Y45916429D01*
X190476Y45380715D01*
X428571Y46130715D01*
X714285Y46130715D02*
X1380952Y46130715D01*
X952380Y45380715D01*
G04 #@! TO.C,SW6*
X-1333334Y25096429D02*
X-1190477Y25060715D01*
X-952381Y25060715D01*
X-857143Y25096429D01*
X-809524Y25132143D01*
X-761905Y25203572D01*
X-761905Y25275000D01*
X-809524Y25346429D01*
X-857143Y25382143D01*
X-952381Y25417858D01*
X-1142858Y25453572D01*
X-1238096Y25489286D01*
X-1285715Y25525000D01*
X-1333334Y25596429D01*
X-1333334Y25667858D01*
X-1285715Y25739286D01*
X-1238096Y25775000D01*
X-1142858Y25810715D01*
X-904762Y25810715D01*
X-761905Y25775000D01*
X-428572Y25810715D02*
X-190477Y25060715D01*
X0Y25596429D01*
X190476Y25060715D01*
X428571Y25810715D01*
X1238095Y25810715D02*
X1047619Y25810715D01*
X952380Y25775000D01*
X904761Y25739286D01*
X809523Y25632143D01*
X761904Y25489286D01*
X761904Y25203572D01*
X809523Y25132143D01*
X857142Y25096429D01*
X952380Y25060715D01*
X1142857Y25060715D01*
X1238095Y25096429D01*
X1285714Y25132143D01*
X1333333Y25203572D01*
X1333333Y25382143D01*
X1285714Y25453572D01*
X1238095Y25489286D01*
X1142857Y25525000D01*
X952380Y25525000D01*
X857142Y25489286D01*
X809523Y25453572D01*
X761904Y25382143D01*
G04 #@! TO.C,SW5*
X39306666Y47956429D02*
X39449523Y47920715D01*
X39687619Y47920715D01*
X39782857Y47956429D01*
X39830476Y47992143D01*
X39878095Y48063572D01*
X39878095Y48135000D01*
X39830476Y48206429D01*
X39782857Y48242143D01*
X39687619Y48277858D01*
X39497142Y48313572D01*
X39401904Y48349286D01*
X39354285Y48385000D01*
X39306666Y48456429D01*
X39306666Y48527858D01*
X39354285Y48599286D01*
X39401904Y48635000D01*
X39497142Y48670715D01*
X39735238Y48670715D01*
X39878095Y48635000D01*
X40211428Y48670715D02*
X40449523Y47920715D01*
X40640000Y48456429D01*
X40830476Y47920715D01*
X41068571Y48670715D01*
X41925714Y48670715D02*
X41449523Y48670715D01*
X41401904Y48313572D01*
X41449523Y48349286D01*
X41544761Y48385000D01*
X41782857Y48385000D01*
X41878095Y48349286D01*
X41925714Y48313572D01*
X41973333Y48242143D01*
X41973333Y48063572D01*
X41925714Y47992143D01*
X41878095Y47956429D01*
X41782857Y47920715D01*
X41544761Y47920715D01*
X41449523Y47956429D01*
X41401904Y47992143D01*
G04 #@! TO.C,SW4*
X18986666Y47956429D02*
X19129523Y47920715D01*
X19367619Y47920715D01*
X19462857Y47956429D01*
X19510476Y47992143D01*
X19558095Y48063572D01*
X19558095Y48135000D01*
X19510476Y48206429D01*
X19462857Y48242143D01*
X19367619Y48277858D01*
X19177142Y48313572D01*
X19081904Y48349286D01*
X19034285Y48385000D01*
X18986666Y48456429D01*
X18986666Y48527858D01*
X19034285Y48599286D01*
X19081904Y48635000D01*
X19177142Y48670715D01*
X19415238Y48670715D01*
X19558095Y48635000D01*
X19891428Y48670715D02*
X20129523Y47920715D01*
X20320000Y48456429D01*
X20510476Y47920715D01*
X20748571Y48670715D01*
X21558095Y48420715D02*
X21558095Y47920715D01*
X21320000Y48706429D02*
X21081904Y48170715D01*
X21700952Y48170715D01*
G04 #@! TO.C,SW3*
X-21653334Y47956429D02*
X-21510477Y47920715D01*
X-21272381Y47920715D01*
X-21177143Y47956429D01*
X-21129524Y47992143D01*
X-21081905Y48063572D01*
X-21081905Y48135000D01*
X-21129524Y48206429D01*
X-21177143Y48242143D01*
X-21272381Y48277858D01*
X-21462858Y48313572D01*
X-21558096Y48349286D01*
X-21605715Y48385000D01*
X-21653334Y48456429D01*
X-21653334Y48527858D01*
X-21605715Y48599286D01*
X-21558096Y48635000D01*
X-21462858Y48670715D01*
X-21224762Y48670715D01*
X-21081905Y48635000D01*
X-20748572Y48670715D02*
X-20510477Y47920715D01*
X-20320000Y48456429D01*
X-20129524Y47920715D01*
X-19891429Y48670715D01*
X-19605715Y48670715D02*
X-18986667Y48670715D01*
X-19320000Y48385000D01*
X-19177143Y48385000D01*
X-19081905Y48349286D01*
X-19034286Y48313572D01*
X-18986667Y48242143D01*
X-18986667Y48063572D01*
X-19034286Y47992143D01*
X-19081905Y47956429D01*
X-19177143Y47920715D01*
X-19462858Y47920715D01*
X-19558096Y47956429D01*
X-19605715Y47992143D01*
G04 #@! TO.C,SW2*
X-41972894Y47956429D02*
X-41830037Y47920715D01*
X-41591941Y47920715D01*
X-41496703Y47956429D01*
X-41449084Y47992143D01*
X-41401465Y48063572D01*
X-41401465Y48135000D01*
X-41449084Y48206429D01*
X-41496703Y48242143D01*
X-41591941Y48277858D01*
X-41782418Y48313572D01*
X-41877656Y48349286D01*
X-41925275Y48385000D01*
X-41972894Y48456429D01*
X-41972894Y48527858D01*
X-41925275Y48599286D01*
X-41877656Y48635000D01*
X-41782418Y48670715D01*
X-41544322Y48670715D01*
X-41401465Y48635000D01*
X-41068132Y48670715D02*
X-40830037Y47920715D01*
X-40639560Y48456429D01*
X-40449084Y47920715D01*
X-40210989Y48670715D01*
X-39877656Y48599286D02*
X-39830037Y48635000D01*
X-39734799Y48670715D01*
X-39496703Y48670715D01*
X-39401465Y48635000D01*
X-39353846Y48599286D01*
X-39306227Y48527858D01*
X-39306227Y48456429D01*
X-39353846Y48349286D01*
X-39925275Y47920715D01*
X-39306227Y47920715D01*
G04 #@! TD*
M02*
