M48
;DRILL file {KiCad 5.0.2-bee76a0~70~ubuntu18.04.1} date Mon Dec 31 19:04:50 2018
;FORMAT={-:-/ absolute / inch / decimal}
FMAT,2
INCH,TZ
T1C0.0157
T2C0.0197
T3C0.0236
T4C0.0354
T5C0.0394
T6C0.0433
T7C0.0453
%
G90
G05
T1
X-1.94Y-0.7
X-1.91Y-0.66
X-1.7942Y-0.6466
X-1.7924Y-1.561
X-1.751Y-0.9965
X-1.751Y-1.1172
X-1.69Y-0.61
X-1.631Y0.6725
X-1.574Y0.9568
X-1.5439Y1.1863
X-1.53Y-0.4
X-1.52Y-0.98
X-1.4727Y-0.7813
X-1.471Y1.5233
X-1.409Y-0.0729
X-1.369Y-0.4126
X-1.3274Y-0.6551
X-1.24Y0.03
X-1.16Y0.11
X-1.151Y-0.1925
X-1.15Y-1.
X-1.09Y0.05
X-1.089Y0.3426
X-1.089Y-0.217
X-1.0329Y-0.3749
X-0.991Y0.1294
X-0.991Y-0.1928
X-0.951Y-0.6072
X-0.951Y-1.0829
X-0.889Y-0.611
X-0.8874Y1.48
X-0.87Y-1.25
X-0.86Y-1.36
X-0.8553Y0.9864
X-0.847Y-1.7711
X-0.8326Y-0.7674
X-0.831Y0.6733
X-0.8133Y-1.6249
X-0.7603Y-1.7716
X-0.74Y1.17
X-0.73Y-0.4
X-0.69Y-0.98
X-0.6814Y-1.349
X-0.609Y-0.095
X-0.569Y-0.4125
X-0.5278Y-0.6551
X-0.4419Y-1.1377
X-0.43Y0.03
X-0.3928Y-0.4031
X-0.391Y-1.0825
X-0.351Y-0.1928
X-0.35Y0.11
X-0.32Y-0.6
X-0.32Y-1.16
X-0.3168Y-0.7704
X-0.29Y0.05
X-0.289Y0.345
X-0.2875Y-0.8282
X-0.2593Y-0.5331
X-0.22Y-0.6915
X-0.191Y-0.1946
X-0.191Y-0.4124
X-0.1902Y-0.7402
X-0.18Y-1.16
X-0.15Y1.275
X-0.15Y1.2
X-0.15Y1.125
X-0.1101Y-0.8123
X-0.08Y-0.92
X-0.075Y1.275
X-0.075Y1.2
X-0.075Y1.125
X-0.0587Y-0.8291
X-0.0363Y-0.9167
X-0.0123Y-1.0022
X-0.0112Y-0.7174
X0.Y1.275
X0.Y1.2
X0.Y1.125
X0.08Y-0.8
X0.1037Y-1.2888
X0.11Y0.03
X0.129Y-0.1924
X0.1362Y-0.4127
X0.1694Y0.2467
X0.17Y-0.6
X0.2036Y-1.3887
X0.2042Y-1.1798
X0.2232Y-0.8742
X0.233Y1.1782
X0.24Y-0.97
X0.24Y1.29
X0.24Y1.11
X0.31Y-0.6
X0.3244Y-0.6915
X0.33Y1.29
X0.33Y1.11
X0.36Y0.03
X0.3693Y-1.3954
X0.379Y1.6067
X0.44Y1.25
X0.44Y0.11
X0.441Y0.9433
X0.4415Y1.1467
X0.45Y-0.1928
X0.511Y0.345
X0.511Y-0.3026
X0.5414Y-0.8742
X0.589Y-0.693
X0.609Y-0.095
X0.65Y-0.6
X0.6792Y-0.8736
X0.7Y-0.7866
X0.75Y-1.44
X0.769Y0.6724
X0.8Y0.9632
X0.8253Y-0.3415
X0.86Y-0.6259
X0.87Y1.18
X0.929Y0.2476
X0.929Y-0.1069
X0.971Y-1.1175
X0.971Y-1.6028
X0.99Y1.65
X1.012Y-1.0485
X1.05Y1.83
X1.131Y-0.607
X1.16Y0.03
X1.24Y0.11
X1.249Y-0.1941
X1.2863Y1.1382
X1.29Y1.01
X1.311Y0.345
X1.3192Y-0.2167
X1.3475Y-0.7667
X1.35Y1.47
X1.389Y-0.6932
X1.409Y-0.0826
X1.42Y1.32
X1.45Y-0.6
X1.482Y-1.6582
X1.4859Y1.3894
X1.49Y-1.23
X1.5206Y-0.8232
X1.53Y1.04
X1.569Y0.6727
X1.6Y-0.99
X1.6235Y-0.3944
X1.647Y-1.2289
X1.647Y-1.6279
X1.6553Y1.1719
X1.771Y-0.3273
X1.771Y-0.9964
T4
X-1.25Y-1.3
X-1.15Y-1.3
X-1.25Y-1.7
X-1.15Y-1.7
X1.15Y-1.3
X1.25Y-1.3
X1.15Y-1.7
X1.25Y-1.7
T5
X0.7016Y0.5047
X0.8016Y0.5047
X0.8984Y0.5047
X-0.8984Y0.5047
X-0.7984Y0.5047
X-0.7016Y0.5047
X1.5016Y0.5047
X1.6016Y0.5047
X1.6984Y0.5047
X1.15Y1.81
X1.15Y1.71
X1.15Y1.61
X1.15Y1.51
X1.15Y1.41
X1.25Y1.81
X1.25Y1.71
X1.25Y1.61
X1.25Y1.51
X1.25Y1.41
X-1.6984Y0.5047
X-1.5984Y0.5047
X-1.5016Y0.5047
X0.31Y-1.6
X0.31Y-1.7
X0.31Y-1.8
X0.41Y-1.6
X0.41Y-1.7
X0.41Y-1.8
X-0.36Y-1.6
X-0.36Y-1.7
X-0.36Y-1.8
X-1.25Y1.58
X-1.25Y1.48
X-1.25Y1.38
X-1.15Y1.58
X-1.15Y1.48
X-1.15Y1.38
T6
X-0.125Y-1.61
X-0.125Y-1.7872
X0.1309Y-1.61
X0.1309Y-1.7872
T2
X0.6063Y-1.3217G85X0.6063Y-1.2784
G05
X-1.4063Y-0.4784G85X-1.4063Y-0.5217
G05
X-0.6063Y-1.2784G85X-0.6063Y-1.3217
G05
X0.6063Y-1.7217G85X0.6063Y-1.6784
G05
X0.6063Y-0.5217G85X0.6063Y-0.4784
G05
X1.4063Y-0.9217G85X1.4063Y-0.8784
G05
X-1.4063Y-0.8784G85X-1.4063Y-0.9217
G05
X-0.6063Y-1.6784G85X-0.6063Y-1.7217
G05
X0.6063Y-0.9217G85X0.6063Y-0.8784
G05
X-1.4063Y-1.2784G85X-1.4063Y-1.3217
G05
X1.4063Y-1.3217G85X1.4063Y-1.2784
G05
X-1.4063Y-1.6784G85X-1.4063Y-1.7217
G05
X1.4063Y-1.7217G85X1.4063Y-1.6784
G05
X-0.6063Y-0.4784G85X-0.6063Y-0.5217
G05
X-0.6063Y-0.8784G85X-0.6063Y-0.9217
G05
X1.4063Y-0.5217G85X1.4063Y-0.4784
G05
T3
X0.9331Y-1.3197G85X0.9331Y-1.2803
G05
X1.0551Y-1.3158G85X1.0551Y-1.2843
G05
X-1.8551Y-0.4843G85X-1.8551Y-0.5158
G05
X-1.7331Y-0.4803G85X-1.7331Y-0.5197
G05
X-1.0551Y-1.2843G85X-1.0551Y-1.3158
G05
X-0.9331Y-1.2803G85X-0.9331Y-1.3197
G05
X0.9331Y-1.7197G85X0.9331Y-1.6803
G05
X1.0551Y-1.7158G85X1.0551Y-1.6843
G05
X0.9331Y-0.5197G85X0.9331Y-0.4803
G05
X1.0551Y-0.5158G85X1.0551Y-0.4843
G05
X1.7331Y-0.9197G85X1.7331Y-0.8803
G05
X1.8551Y-0.9158G85X1.8551Y-0.8843
G05
X-1.8551Y-0.8843G85X-1.8551Y-0.9158
G05
X-1.7331Y-0.8803G85X-1.7331Y-0.9197
G05
X-1.0551Y-1.6843G85X-1.0551Y-1.7158
G05
X-0.9331Y-1.6803G85X-0.9331Y-1.7197
G05
X0.9331Y-0.9197G85X0.9331Y-0.8803
G05
X1.0551Y-0.9158G85X1.0551Y-0.8843
G05
X-1.8551Y-1.2843G85X-1.8551Y-1.3158
G05
X-1.7331Y-1.2803G85X-1.7331Y-1.3197
G05
X1.7331Y-1.3197G85X1.7331Y-1.2803
G05
X1.8551Y-1.3158G85X1.8551Y-1.2843
G05
X-1.8551Y-1.6843G85X-1.8551Y-1.7158
G05
X-1.7331Y-1.6803G85X-1.7331Y-1.7197
G05
X1.7331Y-1.7197G85X1.7331Y-1.6803
G05
X1.8551Y-1.7158G85X1.8551Y-1.6843
G05
X-1.0551Y-0.4843G85X-1.0551Y-0.5158
G05
X-0.9331Y-0.4803G85X-0.9331Y-0.5197
G05
X-1.0551Y-0.8843G85X-1.0551Y-0.9158
G05
X-0.9331Y-0.8803G85X-0.9331Y-0.9197
G05
X1.7331Y-0.5197G85X1.7331Y-0.4803
G05
X1.8551Y-0.5158G85X1.8551Y-0.4843
G05
T7
X-1.6079Y1.785G85X-1.5921Y1.785
G05
X-1.6079Y1.6G85X-1.5921Y1.6
G05
X-1.6079Y1.415G85X-1.5921Y1.415
G05
X-0.8079Y0.185G85X-0.7921Y0.185
G05
X-0.8079Y-0.G85X-0.7921Y-0.
G05
X-0.8079Y-0.1851G85X-0.7921Y-0.1851
G05
X0.7921Y0.185G85X0.8079Y0.185
G05
X0.7921Y-0.G85X0.8079Y-0.
G05
X0.7921Y-0.1851G85X0.8079Y-0.1851
G05
X1.5921Y0.185G85X1.6079Y0.185
G05
X1.5921Y-0.G85X1.6079Y-0.
G05
X1.5921Y-0.1851G85X1.6079Y-0.1851
G05
X-1.6079Y0.185G85X-1.5921Y0.185
G05
X-1.6079Y-0.G85X-1.5921Y-0.
G05
X-1.6079Y-0.1851G85X-1.5921Y-0.1851
G05
X-0.0079Y0.185G85X0.0079Y0.185
G05
X-0.0079Y-0.G85X0.0079Y-0.
G05
X-0.0079Y-0.1851G85X0.0079Y-0.1851
G05
X-0.185Y1.5921G85X-0.185Y1.6079
G05
X0.Y1.5921G85X0.Y1.6079
G05
X0.1851Y1.5921G85X0.1851Y1.6079
G05
X-0.185Y0.7921G85X-0.185Y0.8079
G05
X0.Y0.7921G85X0.Y0.8079
G05
X0.1851Y0.7921G85X0.1851Y0.8079
G05
X1.5921Y1.785G85X1.6079Y1.785
G05
X1.5921Y1.6G85X1.6079Y1.6
G05
X1.5921Y1.415G85X1.6079Y1.415
G05
X0.7921Y1.785G85X0.8079Y1.785
G05
X0.7921Y1.6G85X0.8079Y1.6
G05
X0.7921Y1.415G85X0.8079Y1.415
G05
X-0.8079Y1.785G85X-0.7921Y1.785
G05
X-0.8079Y1.6G85X-0.7921Y1.6
G05
X-0.8079Y1.415G85X-0.7921Y1.415
G05
T0
M30
