G04 #@! TF.GenerationSoftware,KiCad,Pcbnew,5.0.0-fee4fd1~66~ubuntu16.04.1*
G04 #@! TF.CreationDate,2018-12-26T20:43:45+08:00*
G04 #@! TF.ProjectId,Sequencer,53657175656E6365722E6B696361645F,rev?*
G04 #@! TF.SameCoordinates,PX8d9e880PY6424e28*
G04 #@! TF.FileFunction,Soldermask,Top*
G04 #@! TF.FilePolarity,Negative*
%FSLAX46Y46*%
G04 Gerber Fmt 4.6, Leading zero omitted, Abs format (unit mm)*
G04 Created by KiCad (PCBNEW 5.0.0-fee4fd1~66~ubuntu16.04.1) date Wed Dec 26 20:43:45 2018*
%MOMM*%
%LPD*%
G01*
G04 APERTURE LIST*
%ADD10C,0.100000*%
G04 APERTURE END LIST*
D10*
G36*
X-8242560Y-46621320D02*
X-10044560Y-46621320D01*
X-10044560Y-44819320D01*
X-8242560Y-44819320D01*
X-8242560Y-46621320D01*
X-8242560Y-46621320D01*
G37*
G36*
X10524883Y-44825839D02*
X10591067Y-44832357D01*
X10704293Y-44866704D01*
X10760907Y-44883877D01*
X10784496Y-44896486D01*
X10917431Y-44967542D01*
X10953169Y-44996872D01*
X11054626Y-45080134D01*
X11137888Y-45181591D01*
X11167218Y-45217329D01*
X11167219Y-45217331D01*
X11250883Y-45373853D01*
X11250883Y-45373854D01*
X11302403Y-45543693D01*
X11319799Y-45720320D01*
X11302403Y-45896947D01*
X11268056Y-46010173D01*
X11250883Y-46066787D01*
X11176788Y-46205407D01*
X11167218Y-46223311D01*
X11137888Y-46259049D01*
X11054626Y-46360506D01*
X10953169Y-46443768D01*
X10917431Y-46473098D01*
X10917429Y-46473099D01*
X10760907Y-46556763D01*
X10704293Y-46573936D01*
X10591067Y-46608283D01*
X10524883Y-46614801D01*
X10458700Y-46621320D01*
X10370180Y-46621320D01*
X10303997Y-46614801D01*
X10237813Y-46608283D01*
X10124587Y-46573936D01*
X10067973Y-46556763D01*
X9911451Y-46473099D01*
X9911449Y-46473098D01*
X9875711Y-46443768D01*
X9774254Y-46360506D01*
X9690992Y-46259049D01*
X9661662Y-46223311D01*
X9652092Y-46205407D01*
X9577997Y-46066787D01*
X9560824Y-46010173D01*
X9526477Y-45896947D01*
X9509081Y-45720320D01*
X9526477Y-45543693D01*
X9577997Y-45373854D01*
X9577997Y-45373853D01*
X9661661Y-45217331D01*
X9661662Y-45217329D01*
X9690992Y-45181591D01*
X9774254Y-45080134D01*
X9875711Y-44996872D01*
X9911449Y-44967542D01*
X10044384Y-44896486D01*
X10067973Y-44883877D01*
X10124587Y-44866704D01*
X10237813Y-44832357D01*
X10303997Y-44825839D01*
X10370180Y-44819320D01*
X10458700Y-44819320D01*
X10524883Y-44825839D01*
X10524883Y-44825839D01*
G37*
G36*
X7984883Y-44825839D02*
X8051067Y-44832357D01*
X8164293Y-44866704D01*
X8220907Y-44883877D01*
X8244496Y-44896486D01*
X8377431Y-44967542D01*
X8413169Y-44996872D01*
X8514626Y-45080134D01*
X8597888Y-45181591D01*
X8627218Y-45217329D01*
X8627219Y-45217331D01*
X8710883Y-45373853D01*
X8710883Y-45373854D01*
X8762403Y-45543693D01*
X8779799Y-45720320D01*
X8762403Y-45896947D01*
X8728056Y-46010173D01*
X8710883Y-46066787D01*
X8636788Y-46205407D01*
X8627218Y-46223311D01*
X8597888Y-46259049D01*
X8514626Y-46360506D01*
X8413169Y-46443768D01*
X8377431Y-46473098D01*
X8377429Y-46473099D01*
X8220907Y-46556763D01*
X8164293Y-46573936D01*
X8051067Y-46608283D01*
X7984883Y-46614801D01*
X7918700Y-46621320D01*
X7830180Y-46621320D01*
X7763997Y-46614801D01*
X7697813Y-46608283D01*
X7584587Y-46573936D01*
X7527973Y-46556763D01*
X7371451Y-46473099D01*
X7371449Y-46473098D01*
X7335711Y-46443768D01*
X7234254Y-46360506D01*
X7150992Y-46259049D01*
X7121662Y-46223311D01*
X7112092Y-46205407D01*
X7037997Y-46066787D01*
X7020824Y-46010173D01*
X6986477Y-45896947D01*
X6969081Y-45720320D01*
X6986477Y-45543693D01*
X7037997Y-45373854D01*
X7037997Y-45373853D01*
X7121661Y-45217331D01*
X7121662Y-45217329D01*
X7150992Y-45181591D01*
X7234254Y-45080134D01*
X7335711Y-44996872D01*
X7371449Y-44967542D01*
X7504384Y-44896486D01*
X7527973Y-44883877D01*
X7584587Y-44866704D01*
X7697813Y-44832357D01*
X7763997Y-44825839D01*
X7830180Y-44819320D01*
X7918700Y-44819320D01*
X7984883Y-44825839D01*
X7984883Y-44825839D01*
G37*
G36*
X-2867995Y-44383709D02*
X-2676726Y-44462935D01*
X-2504584Y-44577957D01*
X-2358197Y-44724344D01*
X-2243175Y-44896486D01*
X-2163949Y-45087755D01*
X-2123560Y-45290804D01*
X-2123560Y-45497836D01*
X-2163949Y-45700885D01*
X-2243175Y-45892154D01*
X-2358197Y-46064296D01*
X-2504584Y-46210683D01*
X-2676726Y-46325705D01*
X-2867995Y-46404931D01*
X-3071044Y-46445320D01*
X-3278076Y-46445320D01*
X-3481125Y-46404931D01*
X-3672394Y-46325705D01*
X-3844536Y-46210683D01*
X-3990923Y-46064296D01*
X-4105945Y-45892154D01*
X-4185171Y-45700885D01*
X-4225560Y-45497836D01*
X-4225560Y-45290804D01*
X-4185171Y-45087755D01*
X-4105945Y-44896486D01*
X-3990923Y-44724344D01*
X-3844536Y-44577957D01*
X-3672394Y-44462935D01*
X-3481125Y-44383709D01*
X-3278076Y-44343320D01*
X-3071044Y-44343320D01*
X-2867995Y-44383709D01*
X-2867995Y-44383709D01*
G37*
G36*
X3632005Y-44383709D02*
X3823274Y-44462935D01*
X3995416Y-44577957D01*
X4141803Y-44724344D01*
X4256825Y-44896486D01*
X4336051Y-45087755D01*
X4376440Y-45290804D01*
X4376440Y-45497836D01*
X4336051Y-45700885D01*
X4256825Y-45892154D01*
X4141803Y-46064296D01*
X3995416Y-46210683D01*
X3823274Y-46325705D01*
X3632005Y-46404931D01*
X3428956Y-46445320D01*
X3221924Y-46445320D01*
X3018875Y-46404931D01*
X2827606Y-46325705D01*
X2655464Y-46210683D01*
X2509077Y-46064296D01*
X2394055Y-45892154D01*
X2314829Y-45700885D01*
X2274440Y-45497836D01*
X2274440Y-45290804D01*
X2314829Y-45087755D01*
X2394055Y-44896486D01*
X2509077Y-44724344D01*
X2655464Y-44577957D01*
X2827606Y-44462935D01*
X3018875Y-44383709D01*
X3221924Y-44343320D01*
X3428956Y-44343320D01*
X3632005Y-44383709D01*
X3632005Y-44383709D01*
G37*
G36*
X44187260Y-41841633D02*
X44187263Y-41841634D01*
X44187264Y-41841634D01*
X44347678Y-41890295D01*
X44347680Y-41890296D01*
X44347683Y-41890297D01*
X44495518Y-41969315D01*
X44625099Y-42075661D01*
X44731445Y-42205242D01*
X44810463Y-42353076D01*
X44810463Y-42353077D01*
X44810465Y-42353081D01*
X44846932Y-42473297D01*
X44859127Y-42513499D01*
X44871440Y-42638516D01*
X44871440Y-43722123D01*
X44859127Y-43847141D01*
X44859126Y-43847144D01*
X44859126Y-43847145D01*
X44837327Y-43919008D01*
X44810463Y-44007564D01*
X44731445Y-44155398D01*
X44625099Y-44284979D01*
X44495518Y-44391325D01*
X44347684Y-44470343D01*
X44347681Y-44470344D01*
X44347679Y-44470345D01*
X44187265Y-44519006D01*
X44187264Y-44519006D01*
X44187261Y-44519007D01*
X44020440Y-44535437D01*
X43853620Y-44519007D01*
X43853617Y-44519006D01*
X43853616Y-44519006D01*
X43693202Y-44470345D01*
X43693200Y-44470344D01*
X43693197Y-44470343D01*
X43545363Y-44391325D01*
X43415782Y-44284979D01*
X43309436Y-44155398D01*
X43230418Y-44007564D01*
X43203555Y-43919008D01*
X43181755Y-43847145D01*
X43181755Y-43847144D01*
X43181754Y-43847141D01*
X43169441Y-43722124D01*
X43169440Y-42638517D01*
X43181753Y-42513500D01*
X43181754Y-42513496D01*
X43230415Y-42353082D01*
X43230416Y-42353080D01*
X43230417Y-42353077D01*
X43309435Y-42205242D01*
X43415781Y-42075661D01*
X43545362Y-41969315D01*
X43693196Y-41890297D01*
X43693199Y-41890296D01*
X43693201Y-41890295D01*
X43853615Y-41841634D01*
X43853616Y-41841634D01*
X43853619Y-41841633D01*
X44020440Y-41825203D01*
X44187260Y-41841633D01*
X44187260Y-41841633D01*
G37*
G36*
X23867260Y-41841633D02*
X23867263Y-41841634D01*
X23867264Y-41841634D01*
X24027678Y-41890295D01*
X24027680Y-41890296D01*
X24027683Y-41890297D01*
X24175518Y-41969315D01*
X24305099Y-42075661D01*
X24411445Y-42205242D01*
X24490463Y-42353076D01*
X24490463Y-42353077D01*
X24490465Y-42353081D01*
X24526932Y-42473297D01*
X24539127Y-42513499D01*
X24551440Y-42638516D01*
X24551440Y-43722123D01*
X24539127Y-43847141D01*
X24539126Y-43847144D01*
X24539126Y-43847145D01*
X24517327Y-43919008D01*
X24490463Y-44007564D01*
X24411445Y-44155398D01*
X24305099Y-44284979D01*
X24175518Y-44391325D01*
X24027684Y-44470343D01*
X24027681Y-44470344D01*
X24027679Y-44470345D01*
X23867265Y-44519006D01*
X23867264Y-44519006D01*
X23867261Y-44519007D01*
X23700440Y-44535437D01*
X23533620Y-44519007D01*
X23533617Y-44519006D01*
X23533616Y-44519006D01*
X23373202Y-44470345D01*
X23373200Y-44470344D01*
X23373197Y-44470343D01*
X23225363Y-44391325D01*
X23095782Y-44284979D01*
X22989436Y-44155398D01*
X22910418Y-44007564D01*
X22883555Y-43919008D01*
X22861755Y-43847145D01*
X22861755Y-43847144D01*
X22861754Y-43847141D01*
X22849441Y-43722124D01*
X22849440Y-42638517D01*
X22861753Y-42513500D01*
X22861754Y-42513496D01*
X22910415Y-42353082D01*
X22910416Y-42353080D01*
X22910417Y-42353077D01*
X22989435Y-42205242D01*
X23095781Y-42075661D01*
X23225362Y-41969315D01*
X23373196Y-41890297D01*
X23373199Y-41890296D01*
X23373201Y-41890295D01*
X23533615Y-41841634D01*
X23533616Y-41841634D01*
X23533619Y-41841633D01*
X23700440Y-41825203D01*
X23867260Y-41841633D01*
X23867260Y-41841633D01*
G37*
G36*
X-23532739Y-41841633D02*
X-23532736Y-41841634D01*
X-23532735Y-41841634D01*
X-23372321Y-41890295D01*
X-23372319Y-41890296D01*
X-23372316Y-41890297D01*
X-23224482Y-41969315D01*
X-23094901Y-42075661D01*
X-22988555Y-42205242D01*
X-22909537Y-42353076D01*
X-22909537Y-42353077D01*
X-22909535Y-42353081D01*
X-22873068Y-42473297D01*
X-22860873Y-42513499D01*
X-22848560Y-42638517D01*
X-22848560Y-43722124D01*
X-22860873Y-43847141D01*
X-22860874Y-43847144D01*
X-22860874Y-43847145D01*
X-22882673Y-43919008D01*
X-22909537Y-44007564D01*
X-22988555Y-44155398D01*
X-23094901Y-44284979D01*
X-23224482Y-44391325D01*
X-23372317Y-44470343D01*
X-23372320Y-44470344D01*
X-23372322Y-44470345D01*
X-23532736Y-44519006D01*
X-23532737Y-44519006D01*
X-23532740Y-44519007D01*
X-23699560Y-44535437D01*
X-23866381Y-44519007D01*
X-23866384Y-44519006D01*
X-23866385Y-44519006D01*
X-24026799Y-44470345D01*
X-24026801Y-44470344D01*
X-24026804Y-44470343D01*
X-24174638Y-44391325D01*
X-24304219Y-44284979D01*
X-24410565Y-44155398D01*
X-24489583Y-44007563D01*
X-24516445Y-43919010D01*
X-24538246Y-43847144D01*
X-24538246Y-43847143D01*
X-24538247Y-43847140D01*
X-24550560Y-43722123D01*
X-24550559Y-42638516D01*
X-24538246Y-42513499D01*
X-24526051Y-42473297D01*
X-24489584Y-42353081D01*
X-24489582Y-42353077D01*
X-24489582Y-42353076D01*
X-24410564Y-42205242D01*
X-24304218Y-42075661D01*
X-24174637Y-41969315D01*
X-24026803Y-41890297D01*
X-24026800Y-41890296D01*
X-24026798Y-41890295D01*
X-23866384Y-41841634D01*
X-23866383Y-41841634D01*
X-23866380Y-41841633D01*
X-23699560Y-41825203D01*
X-23532739Y-41841633D01*
X-23532739Y-41841633D01*
G37*
G36*
X-43852739Y-41841633D02*
X-43852736Y-41841634D01*
X-43852735Y-41841634D01*
X-43692321Y-41890295D01*
X-43692319Y-41890296D01*
X-43692316Y-41890297D01*
X-43544482Y-41969315D01*
X-43414901Y-42075661D01*
X-43308555Y-42205242D01*
X-43229537Y-42353076D01*
X-43229537Y-42353077D01*
X-43229535Y-42353081D01*
X-43193068Y-42473297D01*
X-43180873Y-42513499D01*
X-43168560Y-42638517D01*
X-43168560Y-43722124D01*
X-43180873Y-43847141D01*
X-43180874Y-43847144D01*
X-43180874Y-43847145D01*
X-43202673Y-43919008D01*
X-43229537Y-44007564D01*
X-43308555Y-44155398D01*
X-43414901Y-44284979D01*
X-43544482Y-44391325D01*
X-43692317Y-44470343D01*
X-43692320Y-44470344D01*
X-43692322Y-44470345D01*
X-43852736Y-44519006D01*
X-43852737Y-44519006D01*
X-43852740Y-44519007D01*
X-44019560Y-44535437D01*
X-44186381Y-44519007D01*
X-44186384Y-44519006D01*
X-44186385Y-44519006D01*
X-44346799Y-44470345D01*
X-44346801Y-44470344D01*
X-44346804Y-44470343D01*
X-44494638Y-44391325D01*
X-44624219Y-44284979D01*
X-44730565Y-44155398D01*
X-44809583Y-44007563D01*
X-44836445Y-43919010D01*
X-44858246Y-43847144D01*
X-44858246Y-43847143D01*
X-44858247Y-43847140D01*
X-44870560Y-43722123D01*
X-44870559Y-42638516D01*
X-44858246Y-42513499D01*
X-44846051Y-42473297D01*
X-44809584Y-42353081D01*
X-44809582Y-42353077D01*
X-44809582Y-42353076D01*
X-44730564Y-42205242D01*
X-44624218Y-42075661D01*
X-44494637Y-41969315D01*
X-44346803Y-41890297D01*
X-44346800Y-41890296D01*
X-44346798Y-41890295D01*
X-44186384Y-41841634D01*
X-44186383Y-41841634D01*
X-44186380Y-41841633D01*
X-44019560Y-41825203D01*
X-43852739Y-41841633D01*
X-43852739Y-41841633D01*
G37*
G36*
X-35562535Y-41840910D02*
X-35411548Y-41886712D01*
X-35272395Y-41961090D01*
X-35150427Y-42061187D01*
X-35050330Y-42183155D01*
X-34975952Y-42322308D01*
X-34930150Y-42473295D01*
X-34918560Y-42590974D01*
X-34918560Y-43769666D01*
X-34930150Y-43887345D01*
X-34975952Y-44038332D01*
X-35050330Y-44177485D01*
X-35150424Y-44299450D01*
X-35150426Y-44299451D01*
X-35150427Y-44299453D01*
X-35150431Y-44299456D01*
X-35272399Y-44399552D01*
X-35411549Y-44473928D01*
X-35562536Y-44519730D01*
X-35719560Y-44535195D01*
X-35876585Y-44519730D01*
X-36027572Y-44473928D01*
X-36166725Y-44399550D01*
X-36288690Y-44299456D01*
X-36288691Y-44299454D01*
X-36288693Y-44299453D01*
X-36338741Y-44238468D01*
X-36388792Y-44177481D01*
X-36463168Y-44038331D01*
X-36508970Y-43887344D01*
X-36520560Y-43769665D01*
X-36520559Y-42590974D01*
X-36508969Y-42473295D01*
X-36463167Y-42322308D01*
X-36388789Y-42183155D01*
X-36288692Y-42061187D01*
X-36166724Y-41961090D01*
X-36027571Y-41886712D01*
X-35876584Y-41840910D01*
X-35719560Y-41825445D01*
X-35562535Y-41840910D01*
X-35562535Y-41840910D01*
G37*
G36*
X-15242535Y-41840910D02*
X-15091548Y-41886712D01*
X-14952395Y-41961090D01*
X-14830427Y-42061187D01*
X-14730330Y-42183155D01*
X-14655952Y-42322308D01*
X-14610150Y-42473295D01*
X-14598560Y-42590974D01*
X-14598560Y-43769666D01*
X-14610150Y-43887345D01*
X-14655952Y-44038332D01*
X-14730330Y-44177485D01*
X-14830424Y-44299450D01*
X-14830426Y-44299451D01*
X-14830427Y-44299453D01*
X-14830431Y-44299456D01*
X-14952399Y-44399552D01*
X-15091549Y-44473928D01*
X-15242536Y-44519730D01*
X-15399560Y-44535195D01*
X-15556585Y-44519730D01*
X-15707572Y-44473928D01*
X-15846725Y-44399550D01*
X-15968690Y-44299456D01*
X-15968691Y-44299454D01*
X-15968693Y-44299453D01*
X-16018741Y-44238468D01*
X-16068792Y-44177481D01*
X-16143168Y-44038331D01*
X-16188970Y-43887344D01*
X-16200560Y-43769665D01*
X-16200559Y-42590974D01*
X-16188969Y-42473295D01*
X-16143167Y-42322308D01*
X-16068789Y-42183155D01*
X-15968692Y-42061187D01*
X-15846724Y-41961090D01*
X-15707571Y-41886712D01*
X-15556584Y-41840910D01*
X-15399560Y-41825445D01*
X-15242535Y-41840910D01*
X-15242535Y-41840910D01*
G37*
G36*
X15557464Y-41840910D02*
X15708451Y-41886712D01*
X15847601Y-41961088D01*
X15883190Y-41990295D01*
X15969573Y-42061187D01*
X15969574Y-42061189D01*
X15969576Y-42061190D01*
X16069670Y-42183155D01*
X16144048Y-42322308D01*
X16189850Y-42473295D01*
X16201440Y-42590974D01*
X16201440Y-43769666D01*
X16189850Y-43887345D01*
X16144048Y-44038332D01*
X16069670Y-44177485D01*
X15969573Y-44299453D01*
X15847605Y-44399550D01*
X15708452Y-44473928D01*
X15557465Y-44519730D01*
X15400440Y-44535195D01*
X15243416Y-44519730D01*
X15092429Y-44473928D01*
X14953276Y-44399550D01*
X14831308Y-44299453D01*
X14731211Y-44177485D01*
X14656833Y-44038332D01*
X14611031Y-43887345D01*
X14599441Y-43769666D01*
X14599440Y-42590975D01*
X14611030Y-42473296D01*
X14656832Y-42322309D01*
X14731208Y-42183159D01*
X14831305Y-42061190D01*
X14831307Y-42061187D01*
X14831309Y-42061186D01*
X14831310Y-42061184D01*
X14953275Y-41961090D01*
X15092428Y-41886712D01*
X15243415Y-41840910D01*
X15400440Y-41825445D01*
X15557464Y-41840910D01*
X15557464Y-41840910D01*
G37*
G36*
X35877464Y-41840910D02*
X36028451Y-41886712D01*
X36167601Y-41961088D01*
X36203190Y-41990295D01*
X36289573Y-42061187D01*
X36289574Y-42061189D01*
X36289576Y-42061190D01*
X36389670Y-42183155D01*
X36464048Y-42322308D01*
X36509850Y-42473295D01*
X36521440Y-42590974D01*
X36521440Y-43769666D01*
X36509850Y-43887345D01*
X36464048Y-44038332D01*
X36389670Y-44177485D01*
X36289573Y-44299453D01*
X36167605Y-44399550D01*
X36028452Y-44473928D01*
X35877465Y-44519730D01*
X35720440Y-44535195D01*
X35563416Y-44519730D01*
X35412429Y-44473928D01*
X35273276Y-44399550D01*
X35151308Y-44299453D01*
X35051211Y-44177485D01*
X34976833Y-44038332D01*
X34931031Y-43887345D01*
X34919441Y-43769666D01*
X34919440Y-42590975D01*
X34931030Y-42473296D01*
X34976832Y-42322309D01*
X35051208Y-42183159D01*
X35151305Y-42061190D01*
X35151307Y-42061187D01*
X35151309Y-42061186D01*
X35151310Y-42061184D01*
X35273275Y-41961090D01*
X35412428Y-41886712D01*
X35563415Y-41840910D01*
X35720440Y-41825445D01*
X35877464Y-41840910D01*
X35877464Y-41840910D01*
G37*
G36*
X47287260Y-41941633D02*
X47287263Y-41941634D01*
X47287264Y-41941634D01*
X47447678Y-41990295D01*
X47447680Y-41990296D01*
X47447683Y-41990297D01*
X47595518Y-42069315D01*
X47725099Y-42175661D01*
X47831445Y-42305242D01*
X47910463Y-42453076D01*
X47910463Y-42453077D01*
X47910465Y-42453081D01*
X47952295Y-42590976D01*
X47959127Y-42613499D01*
X47971440Y-42738516D01*
X47971440Y-43622123D01*
X47959127Y-43747140D01*
X47959126Y-43747142D01*
X47959126Y-43747145D01*
X47910465Y-43907558D01*
X47910463Y-43907564D01*
X47831445Y-44055398D01*
X47725099Y-44184979D01*
X47595518Y-44291325D01*
X47447684Y-44370343D01*
X47447681Y-44370344D01*
X47447679Y-44370345D01*
X47287265Y-44419006D01*
X47287264Y-44419006D01*
X47287261Y-44419007D01*
X47120440Y-44435437D01*
X46953620Y-44419007D01*
X46953617Y-44419006D01*
X46953616Y-44419006D01*
X46793202Y-44370345D01*
X46793200Y-44370344D01*
X46793197Y-44370343D01*
X46645363Y-44291325D01*
X46515782Y-44184979D01*
X46409436Y-44055398D01*
X46330418Y-43907564D01*
X46324285Y-43887345D01*
X46281755Y-43747145D01*
X46281755Y-43747144D01*
X46281754Y-43747141D01*
X46269440Y-43622123D01*
X46269440Y-42738517D01*
X46281753Y-42613500D01*
X46281754Y-42613496D01*
X46330415Y-42453082D01*
X46330416Y-42453080D01*
X46330417Y-42453077D01*
X46409435Y-42305242D01*
X46515781Y-42175661D01*
X46645362Y-42069315D01*
X46793196Y-41990297D01*
X46793199Y-41990296D01*
X46793201Y-41990295D01*
X46953615Y-41941634D01*
X46953616Y-41941634D01*
X46953619Y-41941633D01*
X47120440Y-41925203D01*
X47287260Y-41941633D01*
X47287260Y-41941633D01*
G37*
G36*
X26967260Y-41941633D02*
X26967263Y-41941634D01*
X26967264Y-41941634D01*
X27127678Y-41990295D01*
X27127680Y-41990296D01*
X27127683Y-41990297D01*
X27275518Y-42069315D01*
X27405099Y-42175661D01*
X27511445Y-42305242D01*
X27590463Y-42453076D01*
X27590463Y-42453077D01*
X27590465Y-42453081D01*
X27632295Y-42590976D01*
X27639127Y-42613499D01*
X27651440Y-42738516D01*
X27651440Y-43622123D01*
X27639127Y-43747140D01*
X27639126Y-43747142D01*
X27639126Y-43747145D01*
X27590465Y-43907558D01*
X27590463Y-43907564D01*
X27511445Y-44055398D01*
X27405099Y-44184979D01*
X27275518Y-44291325D01*
X27127684Y-44370343D01*
X27127681Y-44370344D01*
X27127679Y-44370345D01*
X26967265Y-44419006D01*
X26967264Y-44419006D01*
X26967261Y-44419007D01*
X26800440Y-44435437D01*
X26633620Y-44419007D01*
X26633617Y-44419006D01*
X26633616Y-44419006D01*
X26473202Y-44370345D01*
X26473200Y-44370344D01*
X26473197Y-44370343D01*
X26325363Y-44291325D01*
X26195782Y-44184979D01*
X26089436Y-44055398D01*
X26010418Y-43907564D01*
X26004285Y-43887345D01*
X25961755Y-43747145D01*
X25961755Y-43747144D01*
X25961754Y-43747141D01*
X25949440Y-43622123D01*
X25949440Y-42738517D01*
X25961753Y-42613500D01*
X25961754Y-42613496D01*
X26010415Y-42453082D01*
X26010416Y-42453080D01*
X26010417Y-42453077D01*
X26089435Y-42305242D01*
X26195781Y-42175661D01*
X26325362Y-42069315D01*
X26473196Y-41990297D01*
X26473199Y-41990296D01*
X26473201Y-41990295D01*
X26633615Y-41941634D01*
X26633616Y-41941634D01*
X26633619Y-41941633D01*
X26800440Y-41925203D01*
X26967260Y-41941633D01*
X26967260Y-41941633D01*
G37*
G36*
X-46952739Y-41941633D02*
X-46952736Y-41941634D01*
X-46952735Y-41941634D01*
X-46792321Y-41990295D01*
X-46792319Y-41990296D01*
X-46792316Y-41990297D01*
X-46644482Y-42069315D01*
X-46514901Y-42175661D01*
X-46408555Y-42305242D01*
X-46329537Y-42453076D01*
X-46329537Y-42453077D01*
X-46329535Y-42453081D01*
X-46280874Y-42613495D01*
X-46280874Y-42613496D01*
X-46280873Y-42613500D01*
X-46268560Y-42738517D01*
X-46268560Y-43622124D01*
X-46280873Y-43747141D01*
X-46280874Y-43747144D01*
X-46280874Y-43747145D01*
X-46323403Y-43887345D01*
X-46329537Y-43907564D01*
X-46408555Y-44055398D01*
X-46514901Y-44184979D01*
X-46644482Y-44291325D01*
X-46792317Y-44370343D01*
X-46792320Y-44370344D01*
X-46792322Y-44370345D01*
X-46952736Y-44419006D01*
X-46952737Y-44419006D01*
X-46952740Y-44419007D01*
X-47119560Y-44435437D01*
X-47286381Y-44419007D01*
X-47286384Y-44419006D01*
X-47286385Y-44419006D01*
X-47446799Y-44370345D01*
X-47446801Y-44370344D01*
X-47446804Y-44370343D01*
X-47594638Y-44291325D01*
X-47724219Y-44184979D01*
X-47830565Y-44055398D01*
X-47909583Y-43907563D01*
X-47915716Y-43887345D01*
X-47958246Y-43747144D01*
X-47958246Y-43747143D01*
X-47958247Y-43747140D01*
X-47970560Y-43622123D01*
X-47970560Y-42738517D01*
X-47958246Y-42613499D01*
X-47951414Y-42590976D01*
X-47909584Y-42453081D01*
X-47909582Y-42453077D01*
X-47909582Y-42453076D01*
X-47830564Y-42305242D01*
X-47724218Y-42175661D01*
X-47594637Y-42069315D01*
X-47446803Y-41990297D01*
X-47446800Y-41990296D01*
X-47446798Y-41990295D01*
X-47286384Y-41941634D01*
X-47286383Y-41941634D01*
X-47286380Y-41941633D01*
X-47119560Y-41925203D01*
X-46952739Y-41941633D01*
X-46952739Y-41941633D01*
G37*
G36*
X-26632739Y-41941633D02*
X-26632736Y-41941634D01*
X-26632735Y-41941634D01*
X-26472321Y-41990295D01*
X-26472319Y-41990296D01*
X-26472316Y-41990297D01*
X-26324482Y-42069315D01*
X-26194901Y-42175661D01*
X-26088555Y-42305242D01*
X-26009537Y-42453076D01*
X-26009537Y-42453077D01*
X-26009535Y-42453081D01*
X-25960874Y-42613495D01*
X-25960874Y-42613496D01*
X-25960873Y-42613500D01*
X-25948560Y-42738517D01*
X-25948560Y-43622124D01*
X-25960873Y-43747141D01*
X-25960874Y-43747144D01*
X-25960874Y-43747145D01*
X-26003403Y-43887345D01*
X-26009537Y-43907564D01*
X-26088555Y-44055398D01*
X-26194901Y-44184979D01*
X-26324482Y-44291325D01*
X-26472317Y-44370343D01*
X-26472320Y-44370344D01*
X-26472322Y-44370345D01*
X-26632736Y-44419006D01*
X-26632737Y-44419006D01*
X-26632740Y-44419007D01*
X-26799560Y-44435437D01*
X-26966381Y-44419007D01*
X-26966384Y-44419006D01*
X-26966385Y-44419006D01*
X-27126799Y-44370345D01*
X-27126801Y-44370344D01*
X-27126804Y-44370343D01*
X-27274638Y-44291325D01*
X-27404219Y-44184979D01*
X-27510565Y-44055398D01*
X-27589583Y-43907563D01*
X-27595716Y-43887345D01*
X-27638246Y-43747144D01*
X-27638246Y-43747143D01*
X-27638247Y-43747140D01*
X-27650560Y-43622123D01*
X-27650560Y-42738517D01*
X-27638246Y-42613499D01*
X-27631414Y-42590976D01*
X-27589584Y-42453081D01*
X-27589582Y-42453077D01*
X-27589582Y-42453076D01*
X-27510564Y-42305242D01*
X-27404218Y-42175661D01*
X-27274637Y-42069315D01*
X-27126803Y-41990297D01*
X-27126800Y-41990296D01*
X-27126798Y-41990295D01*
X-26966384Y-41941634D01*
X-26966383Y-41941634D01*
X-26966380Y-41941633D01*
X-26799560Y-41925203D01*
X-26632739Y-41941633D01*
X-26632739Y-41941633D01*
G37*
G36*
X30161440Y-44131320D02*
X28259440Y-44131320D01*
X28259440Y-42229320D01*
X30161440Y-42229320D01*
X30161440Y-44131320D01*
X30161440Y-44131320D01*
G37*
G36*
X-30798560Y-44131320D02*
X-32700560Y-44131320D01*
X-32700560Y-42229320D01*
X-30798560Y-42229320D01*
X-30798560Y-44131320D01*
X-30798560Y-44131320D01*
G37*
G36*
X32027836Y-42265866D02*
X32200906Y-42337554D01*
X32356670Y-42441632D01*
X32489128Y-42574090D01*
X32593206Y-42729854D01*
X32664894Y-42902924D01*
X32701440Y-43086653D01*
X32701440Y-43273987D01*
X32664894Y-43457716D01*
X32593206Y-43630786D01*
X32489128Y-43786550D01*
X32356670Y-43919008D01*
X32200906Y-44023086D01*
X32027836Y-44094774D01*
X31844107Y-44131320D01*
X31656773Y-44131320D01*
X31473044Y-44094774D01*
X31299974Y-44023086D01*
X31144210Y-43919008D01*
X31011752Y-43786550D01*
X30907674Y-43630786D01*
X30835986Y-43457716D01*
X30799440Y-43273987D01*
X30799440Y-43086653D01*
X30835986Y-42902924D01*
X30907674Y-42729854D01*
X31011752Y-42574090D01*
X31144210Y-42441632D01*
X31299974Y-42337554D01*
X31473044Y-42265866D01*
X31656773Y-42229320D01*
X31844107Y-42229320D01*
X32027836Y-42265866D01*
X32027836Y-42265866D01*
G37*
G36*
X-28932164Y-42265866D02*
X-28759094Y-42337554D01*
X-28603330Y-42441632D01*
X-28470872Y-42574090D01*
X-28366794Y-42729854D01*
X-28295106Y-42902924D01*
X-28258560Y-43086653D01*
X-28258560Y-43273987D01*
X-28295106Y-43457716D01*
X-28366794Y-43630786D01*
X-28470872Y-43786550D01*
X-28603330Y-43919008D01*
X-28759094Y-44023086D01*
X-28932164Y-44094774D01*
X-29115893Y-44131320D01*
X-29303227Y-44131320D01*
X-29486956Y-44094774D01*
X-29660026Y-44023086D01*
X-29815790Y-43919008D01*
X-29948248Y-43786550D01*
X-30052326Y-43630786D01*
X-30124014Y-43457716D01*
X-30160560Y-43273987D01*
X-30160560Y-43086653D01*
X-30124014Y-42902924D01*
X-30052326Y-42729854D01*
X-29948248Y-42574090D01*
X-29815790Y-42441632D01*
X-29660026Y-42337554D01*
X-29486956Y-42265866D01*
X-29303227Y-42229320D01*
X-29115893Y-42229320D01*
X-28932164Y-42265866D01*
X-28932164Y-42265866D01*
G37*
G36*
X-9033118Y-42285838D02*
X-8966933Y-42292357D01*
X-8853707Y-42326704D01*
X-8797093Y-42343877D01*
X-8658473Y-42417972D01*
X-8640569Y-42427542D01*
X-8609456Y-42453076D01*
X-8503374Y-42540134D01*
X-8443166Y-42613499D01*
X-8390782Y-42677329D01*
X-8390781Y-42677331D01*
X-8307117Y-42833853D01*
X-8307117Y-42833854D01*
X-8255597Y-43003693D01*
X-8238201Y-43180320D01*
X-8255597Y-43356947D01*
X-8286165Y-43457716D01*
X-8307117Y-43526787D01*
X-8362707Y-43630787D01*
X-8390782Y-43683311D01*
X-8420112Y-43719049D01*
X-8503374Y-43820506D01*
X-8584818Y-43887344D01*
X-8640569Y-43933098D01*
X-8640571Y-43933099D01*
X-8797093Y-44016763D01*
X-8817938Y-44023086D01*
X-8966933Y-44068283D01*
X-9033118Y-44074802D01*
X-9099300Y-44081320D01*
X-9187820Y-44081320D01*
X-9254002Y-44074802D01*
X-9320187Y-44068283D01*
X-9469182Y-44023086D01*
X-9490027Y-44016763D01*
X-9646549Y-43933099D01*
X-9646551Y-43933098D01*
X-9702302Y-43887344D01*
X-9783746Y-43820506D01*
X-9867008Y-43719049D01*
X-9896338Y-43683311D01*
X-9924413Y-43630787D01*
X-9980003Y-43526787D01*
X-10000955Y-43457716D01*
X-10031523Y-43356947D01*
X-10048919Y-43180320D01*
X-10031523Y-43003693D01*
X-9980003Y-42833854D01*
X-9980003Y-42833853D01*
X-9896339Y-42677331D01*
X-9896338Y-42677329D01*
X-9843954Y-42613499D01*
X-9783746Y-42540134D01*
X-9677664Y-42453076D01*
X-9646551Y-42427542D01*
X-9628647Y-42417972D01*
X-9490027Y-42343877D01*
X-9433413Y-42326704D01*
X-9320187Y-42292357D01*
X-9254002Y-42285838D01*
X-9187820Y-42279320D01*
X-9099300Y-42279320D01*
X-9033118Y-42285838D01*
X-9033118Y-42285838D01*
G37*
G36*
X10524882Y-42285838D02*
X10591067Y-42292357D01*
X10704293Y-42326704D01*
X10760907Y-42343877D01*
X10899527Y-42417972D01*
X10917431Y-42427542D01*
X10948544Y-42453076D01*
X11054626Y-42540134D01*
X11114834Y-42613499D01*
X11167218Y-42677329D01*
X11167219Y-42677331D01*
X11250883Y-42833853D01*
X11250883Y-42833854D01*
X11302403Y-43003693D01*
X11319799Y-43180320D01*
X11302403Y-43356947D01*
X11271835Y-43457716D01*
X11250883Y-43526787D01*
X11195293Y-43630787D01*
X11167218Y-43683311D01*
X11137888Y-43719049D01*
X11054626Y-43820506D01*
X10973182Y-43887344D01*
X10917431Y-43933098D01*
X10917429Y-43933099D01*
X10760907Y-44016763D01*
X10740062Y-44023086D01*
X10591067Y-44068283D01*
X10524882Y-44074802D01*
X10458700Y-44081320D01*
X10370180Y-44081320D01*
X10303998Y-44074802D01*
X10237813Y-44068283D01*
X10088818Y-44023086D01*
X10067973Y-44016763D01*
X9911451Y-43933099D01*
X9911449Y-43933098D01*
X9855698Y-43887344D01*
X9774254Y-43820506D01*
X9690992Y-43719049D01*
X9661662Y-43683311D01*
X9633587Y-43630787D01*
X9577997Y-43526787D01*
X9557045Y-43457716D01*
X9526477Y-43356947D01*
X9509081Y-43180320D01*
X9526477Y-43003693D01*
X9577997Y-42833854D01*
X9577997Y-42833853D01*
X9661661Y-42677331D01*
X9661662Y-42677329D01*
X9714046Y-42613499D01*
X9774254Y-42540134D01*
X9880336Y-42453076D01*
X9911449Y-42427542D01*
X9929353Y-42417972D01*
X10067973Y-42343877D01*
X10124587Y-42326704D01*
X10237813Y-42292357D01*
X10303998Y-42285838D01*
X10370180Y-42279320D01*
X10458700Y-42279320D01*
X10524882Y-42285838D01*
X10524882Y-42285838D01*
G37*
G36*
X7984882Y-42285838D02*
X8051067Y-42292357D01*
X8164293Y-42326704D01*
X8220907Y-42343877D01*
X8359527Y-42417972D01*
X8377431Y-42427542D01*
X8408544Y-42453076D01*
X8514626Y-42540134D01*
X8574834Y-42613499D01*
X8627218Y-42677329D01*
X8627219Y-42677331D01*
X8710883Y-42833853D01*
X8710883Y-42833854D01*
X8762403Y-43003693D01*
X8779799Y-43180320D01*
X8762403Y-43356947D01*
X8731835Y-43457716D01*
X8710883Y-43526787D01*
X8655293Y-43630787D01*
X8627218Y-43683311D01*
X8597888Y-43719049D01*
X8514626Y-43820506D01*
X8433182Y-43887344D01*
X8377431Y-43933098D01*
X8377429Y-43933099D01*
X8220907Y-44016763D01*
X8200062Y-44023086D01*
X8051067Y-44068283D01*
X7984882Y-44074802D01*
X7918700Y-44081320D01*
X7830180Y-44081320D01*
X7763998Y-44074802D01*
X7697813Y-44068283D01*
X7548818Y-44023086D01*
X7527973Y-44016763D01*
X7371451Y-43933099D01*
X7371449Y-43933098D01*
X7315698Y-43887344D01*
X7234254Y-43820506D01*
X7150992Y-43719049D01*
X7121662Y-43683311D01*
X7093587Y-43630787D01*
X7037997Y-43526787D01*
X7017045Y-43457716D01*
X6986477Y-43356947D01*
X6969081Y-43180320D01*
X6986477Y-43003693D01*
X7037997Y-42833854D01*
X7037997Y-42833853D01*
X7121661Y-42677331D01*
X7121662Y-42677329D01*
X7174046Y-42613499D01*
X7234254Y-42540134D01*
X7340336Y-42453076D01*
X7371449Y-42427542D01*
X7389353Y-42417972D01*
X7527973Y-42343877D01*
X7584587Y-42326704D01*
X7697813Y-42292357D01*
X7763998Y-42285838D01*
X7830180Y-42279320D01*
X7918700Y-42279320D01*
X7984882Y-42285838D01*
X7984882Y-42285838D01*
G37*
G36*
X-2867995Y-39883709D02*
X-2676726Y-39962935D01*
X-2504584Y-40077957D01*
X-2358197Y-40224344D01*
X-2243175Y-40396486D01*
X-2163949Y-40587755D01*
X-2123560Y-40790804D01*
X-2123560Y-40997836D01*
X-2163949Y-41200885D01*
X-2243175Y-41392154D01*
X-2358197Y-41564296D01*
X-2504584Y-41710683D01*
X-2676726Y-41825705D01*
X-2867995Y-41904931D01*
X-3071044Y-41945320D01*
X-3278076Y-41945320D01*
X-3481125Y-41904931D01*
X-3672394Y-41825705D01*
X-3844536Y-41710683D01*
X-3990923Y-41564296D01*
X-4105945Y-41392154D01*
X-4185171Y-41200885D01*
X-4225560Y-40997836D01*
X-4225560Y-40790804D01*
X-4185171Y-40587755D01*
X-4105945Y-40396486D01*
X-3990923Y-40224344D01*
X-3844536Y-40077957D01*
X-3672394Y-39962935D01*
X-3481125Y-39883709D01*
X-3278076Y-39843320D01*
X-3071044Y-39843320D01*
X-2867995Y-39883709D01*
X-2867995Y-39883709D01*
G37*
G36*
X3632005Y-39883709D02*
X3823274Y-39962935D01*
X3995416Y-40077957D01*
X4141803Y-40224344D01*
X4256825Y-40396486D01*
X4336051Y-40587755D01*
X4376440Y-40790804D01*
X4376440Y-40997836D01*
X4336051Y-41200885D01*
X4256825Y-41392154D01*
X4141803Y-41564296D01*
X3995416Y-41710683D01*
X3823274Y-41825705D01*
X3632005Y-41904931D01*
X3428956Y-41945320D01*
X3221924Y-41945320D01*
X3018875Y-41904931D01*
X2827606Y-41825705D01*
X2655464Y-41710683D01*
X2509077Y-41564296D01*
X2394055Y-41392154D01*
X2314829Y-41200885D01*
X2274440Y-40997836D01*
X2274440Y-40790804D01*
X2314829Y-40587755D01*
X2394055Y-40396486D01*
X2509077Y-40224344D01*
X2655464Y-40077957D01*
X2827606Y-39962935D01*
X3018875Y-39883709D01*
X3221924Y-39843320D01*
X3428956Y-39843320D01*
X3632005Y-39883709D01*
X3632005Y-39883709D01*
G37*
G36*
X-9033117Y-39745839D02*
X-8966933Y-39752357D01*
X-8853707Y-39786704D01*
X-8797093Y-39803877D01*
X-8658473Y-39877972D01*
X-8640569Y-39887542D01*
X-8604831Y-39916872D01*
X-8503374Y-40000134D01*
X-8420112Y-40101591D01*
X-8390782Y-40137329D01*
X-8390781Y-40137331D01*
X-8307117Y-40293853D01*
X-8307117Y-40293854D01*
X-8255597Y-40463693D01*
X-8238201Y-40640320D01*
X-8255597Y-40816947D01*
X-8289944Y-40930173D01*
X-8307117Y-40986787D01*
X-8313022Y-40997834D01*
X-8390782Y-41143311D01*
X-8420112Y-41179049D01*
X-8503374Y-41280506D01*
X-8604831Y-41363768D01*
X-8640569Y-41393098D01*
X-8640571Y-41393099D01*
X-8797093Y-41476763D01*
X-8853707Y-41493936D01*
X-8966933Y-41528283D01*
X-9033118Y-41534802D01*
X-9099300Y-41541320D01*
X-9187820Y-41541320D01*
X-9254002Y-41534802D01*
X-9320187Y-41528283D01*
X-9433413Y-41493936D01*
X-9490027Y-41476763D01*
X-9646549Y-41393099D01*
X-9646551Y-41393098D01*
X-9682289Y-41363768D01*
X-9783746Y-41280506D01*
X-9867008Y-41179049D01*
X-9896338Y-41143311D01*
X-9974098Y-40997834D01*
X-9980003Y-40986787D01*
X-9997176Y-40930173D01*
X-10031523Y-40816947D01*
X-10048919Y-40640320D01*
X-10031523Y-40463693D01*
X-9980003Y-40293854D01*
X-9980003Y-40293853D01*
X-9896339Y-40137331D01*
X-9896338Y-40137329D01*
X-9867008Y-40101591D01*
X-9783746Y-40000134D01*
X-9682289Y-39916872D01*
X-9646551Y-39887542D01*
X-9628647Y-39877972D01*
X-9490027Y-39803877D01*
X-9433413Y-39786704D01*
X-9320187Y-39752357D01*
X-9254003Y-39745839D01*
X-9187820Y-39739320D01*
X-9099300Y-39739320D01*
X-9033117Y-39745839D01*
X-9033117Y-39745839D01*
G37*
G36*
X11315440Y-41541320D02*
X9513440Y-41541320D01*
X9513440Y-39739320D01*
X11315440Y-39739320D01*
X11315440Y-41541320D01*
X11315440Y-41541320D01*
G37*
G36*
X7984883Y-39745839D02*
X8051067Y-39752357D01*
X8164293Y-39786704D01*
X8220907Y-39803877D01*
X8359527Y-39877972D01*
X8377431Y-39887542D01*
X8413169Y-39916872D01*
X8514626Y-40000134D01*
X8597888Y-40101591D01*
X8627218Y-40137329D01*
X8627219Y-40137331D01*
X8710883Y-40293853D01*
X8710883Y-40293854D01*
X8762403Y-40463693D01*
X8779799Y-40640320D01*
X8762403Y-40816947D01*
X8728056Y-40930173D01*
X8710883Y-40986787D01*
X8704978Y-40997834D01*
X8627218Y-41143311D01*
X8597888Y-41179049D01*
X8514626Y-41280506D01*
X8413169Y-41363768D01*
X8377431Y-41393098D01*
X8377429Y-41393099D01*
X8220907Y-41476763D01*
X8164293Y-41493936D01*
X8051067Y-41528283D01*
X7984882Y-41534802D01*
X7918700Y-41541320D01*
X7830180Y-41541320D01*
X7763998Y-41534802D01*
X7697813Y-41528283D01*
X7584587Y-41493936D01*
X7527973Y-41476763D01*
X7371451Y-41393099D01*
X7371449Y-41393098D01*
X7335711Y-41363768D01*
X7234254Y-41280506D01*
X7150992Y-41179049D01*
X7121662Y-41143311D01*
X7043902Y-40997834D01*
X7037997Y-40986787D01*
X7020824Y-40930173D01*
X6986477Y-40816947D01*
X6969081Y-40640320D01*
X6986477Y-40463693D01*
X7037997Y-40293854D01*
X7037997Y-40293853D01*
X7121661Y-40137331D01*
X7121662Y-40137329D01*
X7150992Y-40101591D01*
X7234254Y-40000134D01*
X7335711Y-39916872D01*
X7371449Y-39887542D01*
X7389353Y-39877972D01*
X7527973Y-39803877D01*
X7584587Y-39786704D01*
X7697813Y-39752357D01*
X7763997Y-39745839D01*
X7830180Y-39739320D01*
X7918700Y-39739320D01*
X7984883Y-39745839D01*
X7984883Y-39745839D01*
G37*
G36*
X-43852739Y-31681633D02*
X-43852736Y-31681634D01*
X-43852735Y-31681634D01*
X-43692321Y-31730295D01*
X-43692319Y-31730296D01*
X-43692316Y-31730297D01*
X-43544482Y-31809315D01*
X-43414901Y-31915661D01*
X-43308555Y-32045242D01*
X-43229537Y-32193076D01*
X-43229537Y-32193077D01*
X-43229535Y-32193081D01*
X-43193068Y-32313297D01*
X-43180873Y-32353499D01*
X-43168560Y-32478517D01*
X-43168560Y-33562124D01*
X-43180873Y-33687141D01*
X-43180874Y-33687144D01*
X-43180874Y-33687145D01*
X-43202673Y-33759008D01*
X-43229537Y-33847564D01*
X-43308555Y-33995398D01*
X-43414901Y-34124979D01*
X-43544482Y-34231325D01*
X-43692317Y-34310343D01*
X-43692320Y-34310344D01*
X-43692322Y-34310345D01*
X-43852736Y-34359006D01*
X-43852737Y-34359006D01*
X-43852740Y-34359007D01*
X-44019560Y-34375437D01*
X-44186381Y-34359007D01*
X-44186384Y-34359006D01*
X-44186385Y-34359006D01*
X-44346799Y-34310345D01*
X-44346801Y-34310344D01*
X-44346804Y-34310343D01*
X-44494638Y-34231325D01*
X-44624219Y-34124979D01*
X-44730565Y-33995398D01*
X-44809583Y-33847563D01*
X-44836445Y-33759010D01*
X-44858246Y-33687144D01*
X-44858246Y-33687143D01*
X-44858247Y-33687140D01*
X-44870560Y-33562123D01*
X-44870559Y-32478516D01*
X-44858246Y-32353499D01*
X-44846051Y-32313297D01*
X-44809584Y-32193081D01*
X-44809582Y-32193077D01*
X-44809582Y-32193076D01*
X-44730564Y-32045242D01*
X-44624218Y-31915661D01*
X-44494637Y-31809315D01*
X-44346803Y-31730297D01*
X-44346800Y-31730296D01*
X-44346798Y-31730295D01*
X-44186384Y-31681634D01*
X-44186383Y-31681634D01*
X-44186380Y-31681633D01*
X-44019560Y-31665203D01*
X-43852739Y-31681633D01*
X-43852739Y-31681633D01*
G37*
G36*
X-23532739Y-31681633D02*
X-23532736Y-31681634D01*
X-23532735Y-31681634D01*
X-23372321Y-31730295D01*
X-23372319Y-31730296D01*
X-23372316Y-31730297D01*
X-23224482Y-31809315D01*
X-23094901Y-31915661D01*
X-22988555Y-32045242D01*
X-22909537Y-32193076D01*
X-22909537Y-32193077D01*
X-22909535Y-32193081D01*
X-22873068Y-32313297D01*
X-22860873Y-32353499D01*
X-22848560Y-32478517D01*
X-22848560Y-33562124D01*
X-22860873Y-33687141D01*
X-22860874Y-33687144D01*
X-22860874Y-33687145D01*
X-22882673Y-33759008D01*
X-22909537Y-33847564D01*
X-22988555Y-33995398D01*
X-23094901Y-34124979D01*
X-23224482Y-34231325D01*
X-23372317Y-34310343D01*
X-23372320Y-34310344D01*
X-23372322Y-34310345D01*
X-23532736Y-34359006D01*
X-23532737Y-34359006D01*
X-23532740Y-34359007D01*
X-23699560Y-34375437D01*
X-23866381Y-34359007D01*
X-23866384Y-34359006D01*
X-23866385Y-34359006D01*
X-24026799Y-34310345D01*
X-24026801Y-34310344D01*
X-24026804Y-34310343D01*
X-24174638Y-34231325D01*
X-24304219Y-34124979D01*
X-24410565Y-33995398D01*
X-24489583Y-33847563D01*
X-24516445Y-33759010D01*
X-24538246Y-33687144D01*
X-24538246Y-33687143D01*
X-24538247Y-33687140D01*
X-24550560Y-33562123D01*
X-24550559Y-32478516D01*
X-24538246Y-32353499D01*
X-24526051Y-32313297D01*
X-24489584Y-32193081D01*
X-24489582Y-32193077D01*
X-24489582Y-32193076D01*
X-24410564Y-32045242D01*
X-24304218Y-31915661D01*
X-24174637Y-31809315D01*
X-24026803Y-31730297D01*
X-24026800Y-31730296D01*
X-24026798Y-31730295D01*
X-23866384Y-31681634D01*
X-23866383Y-31681634D01*
X-23866380Y-31681633D01*
X-23699560Y-31665203D01*
X-23532739Y-31681633D01*
X-23532739Y-31681633D01*
G37*
G36*
X23867260Y-31681633D02*
X23867263Y-31681634D01*
X23867264Y-31681634D01*
X24027678Y-31730295D01*
X24027680Y-31730296D01*
X24027683Y-31730297D01*
X24175518Y-31809315D01*
X24305099Y-31915661D01*
X24411445Y-32045242D01*
X24490463Y-32193076D01*
X24490463Y-32193077D01*
X24490465Y-32193081D01*
X24526932Y-32313297D01*
X24539127Y-32353499D01*
X24551440Y-32478516D01*
X24551440Y-33562123D01*
X24539127Y-33687141D01*
X24539126Y-33687144D01*
X24539126Y-33687145D01*
X24517327Y-33759008D01*
X24490463Y-33847564D01*
X24411445Y-33995398D01*
X24305099Y-34124979D01*
X24175518Y-34231325D01*
X24027684Y-34310343D01*
X24027681Y-34310344D01*
X24027679Y-34310345D01*
X23867265Y-34359006D01*
X23867264Y-34359006D01*
X23867261Y-34359007D01*
X23700440Y-34375437D01*
X23533620Y-34359007D01*
X23533617Y-34359006D01*
X23533616Y-34359006D01*
X23373202Y-34310345D01*
X23373200Y-34310344D01*
X23373197Y-34310343D01*
X23225363Y-34231325D01*
X23095782Y-34124979D01*
X22989436Y-33995398D01*
X22910418Y-33847564D01*
X22883555Y-33759008D01*
X22861755Y-33687145D01*
X22861755Y-33687144D01*
X22861754Y-33687141D01*
X22849441Y-33562124D01*
X22849440Y-32478517D01*
X22861753Y-32353500D01*
X22861754Y-32353496D01*
X22910415Y-32193082D01*
X22910416Y-32193080D01*
X22910417Y-32193077D01*
X22989435Y-32045242D01*
X23095781Y-31915661D01*
X23225362Y-31809315D01*
X23373196Y-31730297D01*
X23373199Y-31730296D01*
X23373201Y-31730295D01*
X23533615Y-31681634D01*
X23533616Y-31681634D01*
X23533619Y-31681633D01*
X23700440Y-31665203D01*
X23867260Y-31681633D01*
X23867260Y-31681633D01*
G37*
G36*
X44187260Y-31681633D02*
X44187263Y-31681634D01*
X44187264Y-31681634D01*
X44347678Y-31730295D01*
X44347680Y-31730296D01*
X44347683Y-31730297D01*
X44495518Y-31809315D01*
X44625099Y-31915661D01*
X44731445Y-32045242D01*
X44810463Y-32193076D01*
X44810463Y-32193077D01*
X44810465Y-32193081D01*
X44846932Y-32313297D01*
X44859127Y-32353499D01*
X44871440Y-32478516D01*
X44871440Y-33562123D01*
X44859127Y-33687141D01*
X44859126Y-33687144D01*
X44859126Y-33687145D01*
X44837327Y-33759008D01*
X44810463Y-33847564D01*
X44731445Y-33995398D01*
X44625099Y-34124979D01*
X44495518Y-34231325D01*
X44347684Y-34310343D01*
X44347681Y-34310344D01*
X44347679Y-34310345D01*
X44187265Y-34359006D01*
X44187264Y-34359006D01*
X44187261Y-34359007D01*
X44020440Y-34375437D01*
X43853620Y-34359007D01*
X43853617Y-34359006D01*
X43853616Y-34359006D01*
X43693202Y-34310345D01*
X43693200Y-34310344D01*
X43693197Y-34310343D01*
X43545363Y-34231325D01*
X43415782Y-34124979D01*
X43309436Y-33995398D01*
X43230418Y-33847564D01*
X43203555Y-33759008D01*
X43181755Y-33687145D01*
X43181755Y-33687144D01*
X43181754Y-33687141D01*
X43169441Y-33562124D01*
X43169440Y-32478517D01*
X43181753Y-32353500D01*
X43181754Y-32353496D01*
X43230415Y-32193082D01*
X43230416Y-32193080D01*
X43230417Y-32193077D01*
X43309435Y-32045242D01*
X43415781Y-31915661D01*
X43545362Y-31809315D01*
X43693196Y-31730297D01*
X43693199Y-31730296D01*
X43693201Y-31730295D01*
X43853615Y-31681634D01*
X43853616Y-31681634D01*
X43853619Y-31681633D01*
X44020440Y-31665203D01*
X44187260Y-31681633D01*
X44187260Y-31681633D01*
G37*
G36*
X-15242535Y-31680910D02*
X-15091548Y-31726712D01*
X-14952395Y-31801090D01*
X-14830427Y-31901187D01*
X-14730330Y-32023155D01*
X-14655952Y-32162308D01*
X-14610150Y-32313295D01*
X-14598560Y-32430974D01*
X-14598560Y-33609666D01*
X-14610150Y-33727345D01*
X-14655952Y-33878332D01*
X-14730330Y-34017485D01*
X-14830424Y-34139450D01*
X-14830426Y-34139451D01*
X-14830427Y-34139453D01*
X-14830431Y-34139456D01*
X-14952399Y-34239552D01*
X-15091549Y-34313928D01*
X-15242536Y-34359730D01*
X-15399560Y-34375195D01*
X-15556585Y-34359730D01*
X-15707572Y-34313928D01*
X-15846725Y-34239550D01*
X-15968690Y-34139456D01*
X-15968691Y-34139454D01*
X-15968693Y-34139453D01*
X-16018741Y-34078469D01*
X-16068792Y-34017481D01*
X-16143168Y-33878331D01*
X-16188970Y-33727344D01*
X-16200560Y-33609665D01*
X-16200559Y-32430974D01*
X-16188969Y-32313295D01*
X-16143167Y-32162308D01*
X-16068789Y-32023155D01*
X-15968692Y-31901187D01*
X-15846724Y-31801090D01*
X-15707571Y-31726712D01*
X-15556584Y-31680910D01*
X-15399560Y-31665445D01*
X-15242535Y-31680910D01*
X-15242535Y-31680910D01*
G37*
G36*
X15557464Y-31680910D02*
X15708451Y-31726712D01*
X15847601Y-31801088D01*
X15883190Y-31830295D01*
X15969573Y-31901187D01*
X15969574Y-31901189D01*
X15969576Y-31901190D01*
X16069670Y-32023155D01*
X16144048Y-32162308D01*
X16189850Y-32313295D01*
X16201440Y-32430974D01*
X16201440Y-33609666D01*
X16189850Y-33727345D01*
X16144048Y-33878332D01*
X16069670Y-34017485D01*
X15969573Y-34139453D01*
X15847605Y-34239550D01*
X15708452Y-34313928D01*
X15557465Y-34359730D01*
X15400440Y-34375195D01*
X15243416Y-34359730D01*
X15092429Y-34313928D01*
X14953276Y-34239550D01*
X14831308Y-34139453D01*
X14731211Y-34017485D01*
X14656833Y-33878332D01*
X14611031Y-33727345D01*
X14599441Y-33609666D01*
X14599440Y-32430975D01*
X14611030Y-32313296D01*
X14656832Y-32162309D01*
X14731208Y-32023159D01*
X14831305Y-31901190D01*
X14831307Y-31901187D01*
X14831309Y-31901186D01*
X14831310Y-31901184D01*
X14953275Y-31801090D01*
X15092428Y-31726712D01*
X15243415Y-31680910D01*
X15400440Y-31665445D01*
X15557464Y-31680910D01*
X15557464Y-31680910D01*
G37*
G36*
X35877464Y-31680910D02*
X36028451Y-31726712D01*
X36167601Y-31801088D01*
X36203190Y-31830295D01*
X36289573Y-31901187D01*
X36289574Y-31901189D01*
X36289576Y-31901190D01*
X36389670Y-32023155D01*
X36464048Y-32162308D01*
X36509850Y-32313295D01*
X36521440Y-32430974D01*
X36521440Y-33609666D01*
X36509850Y-33727345D01*
X36464048Y-33878332D01*
X36389670Y-34017485D01*
X36289573Y-34139453D01*
X36167605Y-34239550D01*
X36028452Y-34313928D01*
X35877465Y-34359730D01*
X35720440Y-34375195D01*
X35563416Y-34359730D01*
X35412429Y-34313928D01*
X35273276Y-34239550D01*
X35151308Y-34139453D01*
X35051211Y-34017485D01*
X34976833Y-33878332D01*
X34931031Y-33727345D01*
X34919441Y-33609666D01*
X34919440Y-32430975D01*
X34931030Y-32313296D01*
X34976832Y-32162309D01*
X35051208Y-32023159D01*
X35151305Y-31901190D01*
X35151307Y-31901187D01*
X35151309Y-31901186D01*
X35151310Y-31901184D01*
X35273275Y-31801090D01*
X35412428Y-31726712D01*
X35563415Y-31680910D01*
X35720440Y-31665445D01*
X35877464Y-31680910D01*
X35877464Y-31680910D01*
G37*
G36*
X-35562535Y-31680910D02*
X-35411548Y-31726712D01*
X-35272395Y-31801090D01*
X-35150427Y-31901187D01*
X-35050330Y-32023155D01*
X-34975952Y-32162308D01*
X-34930150Y-32313295D01*
X-34918560Y-32430974D01*
X-34918560Y-33609666D01*
X-34930150Y-33727345D01*
X-34975952Y-33878332D01*
X-35050330Y-34017485D01*
X-35150424Y-34139450D01*
X-35150426Y-34139451D01*
X-35150427Y-34139453D01*
X-35150431Y-34139456D01*
X-35272399Y-34239552D01*
X-35411549Y-34313928D01*
X-35562536Y-34359730D01*
X-35719560Y-34375195D01*
X-35876585Y-34359730D01*
X-36027572Y-34313928D01*
X-36166725Y-34239550D01*
X-36288690Y-34139456D01*
X-36288691Y-34139454D01*
X-36288693Y-34139453D01*
X-36338741Y-34078469D01*
X-36388792Y-34017481D01*
X-36463168Y-33878331D01*
X-36508970Y-33727344D01*
X-36520560Y-33609665D01*
X-36520559Y-32430974D01*
X-36508969Y-32313295D01*
X-36463167Y-32162308D01*
X-36388789Y-32023155D01*
X-36288692Y-31901187D01*
X-36166724Y-31801090D01*
X-36027571Y-31726712D01*
X-35876584Y-31680910D01*
X-35719560Y-31665445D01*
X-35562535Y-31680910D01*
X-35562535Y-31680910D01*
G37*
G36*
X47287260Y-31781633D02*
X47287263Y-31781634D01*
X47287264Y-31781634D01*
X47447678Y-31830295D01*
X47447680Y-31830296D01*
X47447683Y-31830297D01*
X47595518Y-31909315D01*
X47725099Y-32015661D01*
X47831445Y-32145242D01*
X47910463Y-32293076D01*
X47910463Y-32293077D01*
X47910465Y-32293081D01*
X47952295Y-32430976D01*
X47959127Y-32453499D01*
X47971440Y-32578516D01*
X47971440Y-33462123D01*
X47959127Y-33587140D01*
X47959126Y-33587142D01*
X47959126Y-33587145D01*
X47910465Y-33747558D01*
X47910463Y-33747564D01*
X47831445Y-33895398D01*
X47725099Y-34024979D01*
X47595518Y-34131325D01*
X47447684Y-34210343D01*
X47447681Y-34210344D01*
X47447679Y-34210345D01*
X47287265Y-34259006D01*
X47287264Y-34259006D01*
X47287261Y-34259007D01*
X47120440Y-34275437D01*
X46953620Y-34259007D01*
X46953617Y-34259006D01*
X46953616Y-34259006D01*
X46793202Y-34210345D01*
X46793200Y-34210344D01*
X46793197Y-34210343D01*
X46645363Y-34131325D01*
X46515782Y-34024979D01*
X46409436Y-33895398D01*
X46330418Y-33747564D01*
X46324285Y-33727345D01*
X46281755Y-33587145D01*
X46281755Y-33587144D01*
X46281754Y-33587141D01*
X46269440Y-33462123D01*
X46269440Y-32578517D01*
X46281753Y-32453500D01*
X46281754Y-32453496D01*
X46330415Y-32293082D01*
X46330416Y-32293080D01*
X46330417Y-32293077D01*
X46409435Y-32145242D01*
X46515781Y-32015661D01*
X46645362Y-31909315D01*
X46793196Y-31830297D01*
X46793199Y-31830296D01*
X46793201Y-31830295D01*
X46953615Y-31781634D01*
X46953616Y-31781634D01*
X46953619Y-31781633D01*
X47120440Y-31765203D01*
X47287260Y-31781633D01*
X47287260Y-31781633D01*
G37*
G36*
X26967260Y-31781633D02*
X26967263Y-31781634D01*
X26967264Y-31781634D01*
X27127678Y-31830295D01*
X27127680Y-31830296D01*
X27127683Y-31830297D01*
X27275518Y-31909315D01*
X27405099Y-32015661D01*
X27511445Y-32145242D01*
X27590463Y-32293076D01*
X27590463Y-32293077D01*
X27590465Y-32293081D01*
X27632295Y-32430976D01*
X27639127Y-32453499D01*
X27651440Y-32578516D01*
X27651440Y-33462123D01*
X27639127Y-33587140D01*
X27639126Y-33587142D01*
X27639126Y-33587145D01*
X27590465Y-33747558D01*
X27590463Y-33747564D01*
X27511445Y-33895398D01*
X27405099Y-34024979D01*
X27275518Y-34131325D01*
X27127684Y-34210343D01*
X27127681Y-34210344D01*
X27127679Y-34210345D01*
X26967265Y-34259006D01*
X26967264Y-34259006D01*
X26967261Y-34259007D01*
X26800440Y-34275437D01*
X26633620Y-34259007D01*
X26633617Y-34259006D01*
X26633616Y-34259006D01*
X26473202Y-34210345D01*
X26473200Y-34210344D01*
X26473197Y-34210343D01*
X26325363Y-34131325D01*
X26195782Y-34024979D01*
X26089436Y-33895398D01*
X26010418Y-33747564D01*
X26004285Y-33727345D01*
X25961755Y-33587145D01*
X25961755Y-33587144D01*
X25961754Y-33587141D01*
X25949440Y-33462123D01*
X25949440Y-32578517D01*
X25961753Y-32453500D01*
X25961754Y-32453496D01*
X26010415Y-32293082D01*
X26010416Y-32293080D01*
X26010417Y-32293077D01*
X26089435Y-32145242D01*
X26195781Y-32015661D01*
X26325362Y-31909315D01*
X26473196Y-31830297D01*
X26473199Y-31830296D01*
X26473201Y-31830295D01*
X26633615Y-31781634D01*
X26633616Y-31781634D01*
X26633619Y-31781633D01*
X26800440Y-31765203D01*
X26967260Y-31781633D01*
X26967260Y-31781633D01*
G37*
G36*
X-26632739Y-31781633D02*
X-26632736Y-31781634D01*
X-26632735Y-31781634D01*
X-26472321Y-31830295D01*
X-26472319Y-31830296D01*
X-26472316Y-31830297D01*
X-26324482Y-31909315D01*
X-26194901Y-32015661D01*
X-26088555Y-32145242D01*
X-26009537Y-32293076D01*
X-26009537Y-32293077D01*
X-26009535Y-32293081D01*
X-25960874Y-32453495D01*
X-25960874Y-32453496D01*
X-25960873Y-32453500D01*
X-25948560Y-32578517D01*
X-25948560Y-33462124D01*
X-25960873Y-33587141D01*
X-25960874Y-33587144D01*
X-25960874Y-33587145D01*
X-26003403Y-33727345D01*
X-26009537Y-33747564D01*
X-26088555Y-33895398D01*
X-26194901Y-34024979D01*
X-26324482Y-34131325D01*
X-26472317Y-34210343D01*
X-26472320Y-34210344D01*
X-26472322Y-34210345D01*
X-26632736Y-34259006D01*
X-26632737Y-34259006D01*
X-26632740Y-34259007D01*
X-26799560Y-34275437D01*
X-26966381Y-34259007D01*
X-26966384Y-34259006D01*
X-26966385Y-34259006D01*
X-27126799Y-34210345D01*
X-27126801Y-34210344D01*
X-27126804Y-34210343D01*
X-27274638Y-34131325D01*
X-27404219Y-34024979D01*
X-27510565Y-33895398D01*
X-27589583Y-33747563D01*
X-27595716Y-33727345D01*
X-27638246Y-33587144D01*
X-27638246Y-33587143D01*
X-27638247Y-33587140D01*
X-27650560Y-33462123D01*
X-27650560Y-32578517D01*
X-27638246Y-32453499D01*
X-27631414Y-32430976D01*
X-27589584Y-32293081D01*
X-27589582Y-32293077D01*
X-27589582Y-32293076D01*
X-27510564Y-32145242D01*
X-27404218Y-32015661D01*
X-27274637Y-31909315D01*
X-27126803Y-31830297D01*
X-27126800Y-31830296D01*
X-27126798Y-31830295D01*
X-26966384Y-31781634D01*
X-26966383Y-31781634D01*
X-26966380Y-31781633D01*
X-26799560Y-31765203D01*
X-26632739Y-31781633D01*
X-26632739Y-31781633D01*
G37*
G36*
X-46952739Y-31781633D02*
X-46952736Y-31781634D01*
X-46952735Y-31781634D01*
X-46792321Y-31830295D01*
X-46792319Y-31830296D01*
X-46792316Y-31830297D01*
X-46644482Y-31909315D01*
X-46514901Y-32015661D01*
X-46408555Y-32145242D01*
X-46329537Y-32293076D01*
X-46329537Y-32293077D01*
X-46329535Y-32293081D01*
X-46280874Y-32453495D01*
X-46280874Y-32453496D01*
X-46280873Y-32453500D01*
X-46268560Y-32578517D01*
X-46268560Y-33462124D01*
X-46280873Y-33587141D01*
X-46280874Y-33587144D01*
X-46280874Y-33587145D01*
X-46323403Y-33727345D01*
X-46329537Y-33747564D01*
X-46408555Y-33895398D01*
X-46514901Y-34024979D01*
X-46644482Y-34131325D01*
X-46792317Y-34210343D01*
X-46792320Y-34210344D01*
X-46792322Y-34210345D01*
X-46952736Y-34259006D01*
X-46952737Y-34259006D01*
X-46952740Y-34259007D01*
X-47119560Y-34275437D01*
X-47286381Y-34259007D01*
X-47286384Y-34259006D01*
X-47286385Y-34259006D01*
X-47446799Y-34210345D01*
X-47446801Y-34210344D01*
X-47446804Y-34210343D01*
X-47594638Y-34131325D01*
X-47724219Y-34024979D01*
X-47830565Y-33895398D01*
X-47909583Y-33747563D01*
X-47915716Y-33727345D01*
X-47958246Y-33587144D01*
X-47958246Y-33587143D01*
X-47958247Y-33587140D01*
X-47970560Y-33462123D01*
X-47970560Y-32578517D01*
X-47958246Y-32453499D01*
X-47951414Y-32430976D01*
X-47909584Y-32293081D01*
X-47909582Y-32293077D01*
X-47909582Y-32293076D01*
X-47830564Y-32145242D01*
X-47724218Y-32015661D01*
X-47594637Y-31909315D01*
X-47446803Y-31830297D01*
X-47446800Y-31830296D01*
X-47446798Y-31830295D01*
X-47286384Y-31781634D01*
X-47286383Y-31781634D01*
X-47286380Y-31781633D01*
X-47119560Y-31765203D01*
X-46952739Y-31781633D01*
X-46952739Y-31781633D01*
G37*
G36*
X32027836Y-32105866D02*
X32200906Y-32177554D01*
X32356670Y-32281632D01*
X32489128Y-32414090D01*
X32593206Y-32569854D01*
X32664894Y-32742924D01*
X32701440Y-32926653D01*
X32701440Y-33113987D01*
X32664894Y-33297716D01*
X32593206Y-33470786D01*
X32489128Y-33626550D01*
X32356670Y-33759008D01*
X32200906Y-33863086D01*
X32027836Y-33934774D01*
X31844107Y-33971320D01*
X31656773Y-33971320D01*
X31473044Y-33934774D01*
X31299974Y-33863086D01*
X31144210Y-33759008D01*
X31011752Y-33626550D01*
X30907674Y-33470786D01*
X30835986Y-33297716D01*
X30799440Y-33113987D01*
X30799440Y-32926653D01*
X30835986Y-32742924D01*
X30907674Y-32569854D01*
X31011752Y-32414090D01*
X31144210Y-32281632D01*
X31299974Y-32177554D01*
X31473044Y-32105866D01*
X31656773Y-32069320D01*
X31844107Y-32069320D01*
X32027836Y-32105866D01*
X32027836Y-32105866D01*
G37*
G36*
X-30798560Y-33971320D02*
X-32700560Y-33971320D01*
X-32700560Y-32069320D01*
X-30798560Y-32069320D01*
X-30798560Y-33971320D01*
X-30798560Y-33971320D01*
G37*
G36*
X-28932164Y-32105866D02*
X-28759094Y-32177554D01*
X-28603330Y-32281632D01*
X-28470872Y-32414090D01*
X-28366794Y-32569854D01*
X-28295106Y-32742924D01*
X-28258560Y-32926653D01*
X-28258560Y-33113987D01*
X-28295106Y-33297716D01*
X-28366794Y-33470786D01*
X-28470872Y-33626550D01*
X-28603330Y-33759008D01*
X-28759094Y-33863086D01*
X-28932164Y-33934774D01*
X-29115893Y-33971320D01*
X-29303227Y-33971320D01*
X-29486956Y-33934774D01*
X-29660026Y-33863086D01*
X-29815790Y-33759008D01*
X-29948248Y-33626550D01*
X-30052326Y-33470786D01*
X-30124014Y-33297716D01*
X-30160560Y-33113987D01*
X-30160560Y-32926653D01*
X-30124014Y-32742924D01*
X-30052326Y-32569854D01*
X-29948248Y-32414090D01*
X-29815790Y-32281632D01*
X-29660026Y-32177554D01*
X-29486956Y-32105866D01*
X-29303227Y-32069320D01*
X-29115893Y-32069320D01*
X-28932164Y-32105866D01*
X-28932164Y-32105866D01*
G37*
G36*
X30161440Y-33971320D02*
X28259440Y-33971320D01*
X28259440Y-32069320D01*
X30161440Y-32069320D01*
X30161440Y-33971320D01*
X30161440Y-33971320D01*
G37*
G36*
X44187260Y-21521633D02*
X44187263Y-21521634D01*
X44187264Y-21521634D01*
X44347678Y-21570295D01*
X44347680Y-21570296D01*
X44347683Y-21570297D01*
X44495518Y-21649315D01*
X44625099Y-21755661D01*
X44731445Y-21885242D01*
X44810463Y-22033076D01*
X44810463Y-22033077D01*
X44810465Y-22033081D01*
X44846932Y-22153297D01*
X44859127Y-22193499D01*
X44871440Y-22318516D01*
X44871440Y-23402123D01*
X44859127Y-23527141D01*
X44859126Y-23527144D01*
X44859126Y-23527145D01*
X44840800Y-23587559D01*
X44810463Y-23687564D01*
X44731445Y-23835398D01*
X44625099Y-23964979D01*
X44495518Y-24071325D01*
X44347684Y-24150343D01*
X44347681Y-24150344D01*
X44347679Y-24150345D01*
X44187265Y-24199006D01*
X44187264Y-24199006D01*
X44187261Y-24199007D01*
X44020440Y-24215437D01*
X43853620Y-24199007D01*
X43853617Y-24199006D01*
X43853616Y-24199006D01*
X43693202Y-24150345D01*
X43693200Y-24150344D01*
X43693197Y-24150343D01*
X43545363Y-24071325D01*
X43415782Y-23964979D01*
X43309436Y-23835398D01*
X43230418Y-23687564D01*
X43200082Y-23587559D01*
X43181755Y-23527145D01*
X43181755Y-23527144D01*
X43181754Y-23527141D01*
X43169441Y-23402124D01*
X43169440Y-22318517D01*
X43181753Y-22193500D01*
X43181754Y-22193496D01*
X43230415Y-22033082D01*
X43230416Y-22033080D01*
X43230417Y-22033077D01*
X43309435Y-21885242D01*
X43415781Y-21755661D01*
X43545362Y-21649315D01*
X43693196Y-21570297D01*
X43693199Y-21570296D01*
X43693201Y-21570295D01*
X43853615Y-21521634D01*
X43853616Y-21521634D01*
X43853619Y-21521633D01*
X44020440Y-21505203D01*
X44187260Y-21521633D01*
X44187260Y-21521633D01*
G37*
G36*
X-43852739Y-21521633D02*
X-43852736Y-21521634D01*
X-43852735Y-21521634D01*
X-43692321Y-21570295D01*
X-43692319Y-21570296D01*
X-43692316Y-21570297D01*
X-43544482Y-21649315D01*
X-43414901Y-21755661D01*
X-43308555Y-21885242D01*
X-43229537Y-22033076D01*
X-43229537Y-22033077D01*
X-43229535Y-22033081D01*
X-43193068Y-22153297D01*
X-43180873Y-22193499D01*
X-43168560Y-22318517D01*
X-43168560Y-23402124D01*
X-43180873Y-23527141D01*
X-43180874Y-23527144D01*
X-43180874Y-23527145D01*
X-43199200Y-23587559D01*
X-43229537Y-23687564D01*
X-43308555Y-23835398D01*
X-43414901Y-23964979D01*
X-43544482Y-24071325D01*
X-43692317Y-24150343D01*
X-43692320Y-24150344D01*
X-43692322Y-24150345D01*
X-43852736Y-24199006D01*
X-43852737Y-24199006D01*
X-43852740Y-24199007D01*
X-44019560Y-24215437D01*
X-44186381Y-24199007D01*
X-44186384Y-24199006D01*
X-44186385Y-24199006D01*
X-44346799Y-24150345D01*
X-44346801Y-24150344D01*
X-44346804Y-24150343D01*
X-44494638Y-24071325D01*
X-44624219Y-23964979D01*
X-44730565Y-23835398D01*
X-44809583Y-23687563D01*
X-44839917Y-23587564D01*
X-44858246Y-23527144D01*
X-44858246Y-23527143D01*
X-44858247Y-23527140D01*
X-44870560Y-23402123D01*
X-44870559Y-22318516D01*
X-44858246Y-22193499D01*
X-44846051Y-22153297D01*
X-44809584Y-22033081D01*
X-44809582Y-22033077D01*
X-44809582Y-22033076D01*
X-44730564Y-21885242D01*
X-44624218Y-21755661D01*
X-44494637Y-21649315D01*
X-44346803Y-21570297D01*
X-44346800Y-21570296D01*
X-44346798Y-21570295D01*
X-44186384Y-21521634D01*
X-44186383Y-21521634D01*
X-44186380Y-21521633D01*
X-44019560Y-21505203D01*
X-43852739Y-21521633D01*
X-43852739Y-21521633D01*
G37*
G36*
X-23532739Y-21521633D02*
X-23532736Y-21521634D01*
X-23532735Y-21521634D01*
X-23372321Y-21570295D01*
X-23372319Y-21570296D01*
X-23372316Y-21570297D01*
X-23224482Y-21649315D01*
X-23094901Y-21755661D01*
X-22988555Y-21885242D01*
X-22909537Y-22033076D01*
X-22909537Y-22033077D01*
X-22909535Y-22033081D01*
X-22873068Y-22153297D01*
X-22860873Y-22193499D01*
X-22848560Y-22318517D01*
X-22848560Y-23402124D01*
X-22860873Y-23527141D01*
X-22860874Y-23527144D01*
X-22860874Y-23527145D01*
X-22879200Y-23587559D01*
X-22909537Y-23687564D01*
X-22988555Y-23835398D01*
X-23094901Y-23964979D01*
X-23224482Y-24071325D01*
X-23372317Y-24150343D01*
X-23372320Y-24150344D01*
X-23372322Y-24150345D01*
X-23532736Y-24199006D01*
X-23532737Y-24199006D01*
X-23532740Y-24199007D01*
X-23699560Y-24215437D01*
X-23866381Y-24199007D01*
X-23866384Y-24199006D01*
X-23866385Y-24199006D01*
X-24026799Y-24150345D01*
X-24026801Y-24150344D01*
X-24026804Y-24150343D01*
X-24174638Y-24071325D01*
X-24304219Y-23964979D01*
X-24410565Y-23835398D01*
X-24489583Y-23687563D01*
X-24519917Y-23587564D01*
X-24538246Y-23527144D01*
X-24538246Y-23527143D01*
X-24538247Y-23527140D01*
X-24550560Y-23402123D01*
X-24550559Y-22318516D01*
X-24538246Y-22193499D01*
X-24526051Y-22153297D01*
X-24489584Y-22033081D01*
X-24489582Y-22033077D01*
X-24489582Y-22033076D01*
X-24410564Y-21885242D01*
X-24304218Y-21755661D01*
X-24174637Y-21649315D01*
X-24026803Y-21570297D01*
X-24026800Y-21570296D01*
X-24026798Y-21570295D01*
X-23866384Y-21521634D01*
X-23866383Y-21521634D01*
X-23866380Y-21521633D01*
X-23699560Y-21505203D01*
X-23532739Y-21521633D01*
X-23532739Y-21521633D01*
G37*
G36*
X23867260Y-21521633D02*
X23867263Y-21521634D01*
X23867264Y-21521634D01*
X24027678Y-21570295D01*
X24027680Y-21570296D01*
X24027683Y-21570297D01*
X24175518Y-21649315D01*
X24305099Y-21755661D01*
X24411445Y-21885242D01*
X24490463Y-22033076D01*
X24490463Y-22033077D01*
X24490465Y-22033081D01*
X24526932Y-22153297D01*
X24539127Y-22193499D01*
X24551440Y-22318516D01*
X24551440Y-23402123D01*
X24539127Y-23527141D01*
X24539126Y-23527144D01*
X24539126Y-23527145D01*
X24520800Y-23587559D01*
X24490463Y-23687564D01*
X24411445Y-23835398D01*
X24305099Y-23964979D01*
X24175518Y-24071325D01*
X24027684Y-24150343D01*
X24027681Y-24150344D01*
X24027679Y-24150345D01*
X23867265Y-24199006D01*
X23867264Y-24199006D01*
X23867261Y-24199007D01*
X23700440Y-24215437D01*
X23533620Y-24199007D01*
X23533617Y-24199006D01*
X23533616Y-24199006D01*
X23373202Y-24150345D01*
X23373200Y-24150344D01*
X23373197Y-24150343D01*
X23225363Y-24071325D01*
X23095782Y-23964979D01*
X22989436Y-23835398D01*
X22910418Y-23687564D01*
X22880082Y-23587559D01*
X22861755Y-23527145D01*
X22861755Y-23527144D01*
X22861754Y-23527141D01*
X22849441Y-23402124D01*
X22849440Y-22318517D01*
X22861753Y-22193500D01*
X22861754Y-22193496D01*
X22910415Y-22033082D01*
X22910416Y-22033080D01*
X22910417Y-22033077D01*
X22989435Y-21885242D01*
X23095781Y-21755661D01*
X23225362Y-21649315D01*
X23373196Y-21570297D01*
X23373199Y-21570296D01*
X23373201Y-21570295D01*
X23533615Y-21521634D01*
X23533616Y-21521634D01*
X23533619Y-21521633D01*
X23700440Y-21505203D01*
X23867260Y-21521633D01*
X23867260Y-21521633D01*
G37*
G36*
X15557464Y-21520910D02*
X15708451Y-21566712D01*
X15847601Y-21641088D01*
X15883190Y-21670295D01*
X15969573Y-21741187D01*
X15969574Y-21741189D01*
X15969576Y-21741190D01*
X16069670Y-21863155D01*
X16144048Y-22002308D01*
X16189850Y-22153295D01*
X16201440Y-22270974D01*
X16201440Y-23449666D01*
X16189850Y-23567345D01*
X16144048Y-23718332D01*
X16069670Y-23857485D01*
X15969573Y-23979453D01*
X15847605Y-24079550D01*
X15708452Y-24153928D01*
X15557465Y-24199730D01*
X15400440Y-24215195D01*
X15243416Y-24199730D01*
X15092429Y-24153928D01*
X14953276Y-24079550D01*
X14831308Y-23979453D01*
X14731211Y-23857485D01*
X14656833Y-23718332D01*
X14611031Y-23567345D01*
X14599441Y-23449666D01*
X14599440Y-22270975D01*
X14611030Y-22153296D01*
X14656832Y-22002309D01*
X14731208Y-21863159D01*
X14831305Y-21741190D01*
X14831307Y-21741187D01*
X14831309Y-21741186D01*
X14831310Y-21741184D01*
X14953275Y-21641090D01*
X15092428Y-21566712D01*
X15243415Y-21520910D01*
X15400440Y-21505445D01*
X15557464Y-21520910D01*
X15557464Y-21520910D01*
G37*
G36*
X-15242535Y-21520910D02*
X-15091548Y-21566712D01*
X-14952395Y-21641090D01*
X-14830427Y-21741187D01*
X-14730330Y-21863155D01*
X-14655952Y-22002308D01*
X-14610150Y-22153295D01*
X-14598560Y-22270974D01*
X-14598560Y-23449666D01*
X-14610150Y-23567345D01*
X-14655952Y-23718332D01*
X-14730330Y-23857485D01*
X-14830424Y-23979450D01*
X-14830426Y-23979451D01*
X-14830427Y-23979453D01*
X-14830431Y-23979456D01*
X-14952399Y-24079552D01*
X-15091549Y-24153928D01*
X-15242536Y-24199730D01*
X-15399560Y-24215195D01*
X-15556585Y-24199730D01*
X-15707572Y-24153928D01*
X-15846725Y-24079550D01*
X-15968690Y-23979456D01*
X-15968691Y-23979454D01*
X-15968693Y-23979453D01*
X-16018741Y-23918469D01*
X-16068792Y-23857481D01*
X-16143168Y-23718331D01*
X-16188970Y-23567344D01*
X-16200560Y-23449665D01*
X-16200559Y-22270974D01*
X-16188969Y-22153295D01*
X-16143167Y-22002308D01*
X-16068789Y-21863155D01*
X-15968692Y-21741187D01*
X-15846724Y-21641090D01*
X-15707571Y-21566712D01*
X-15556584Y-21520910D01*
X-15399560Y-21505445D01*
X-15242535Y-21520910D01*
X-15242535Y-21520910D01*
G37*
G36*
X-35562535Y-21520910D02*
X-35411548Y-21566712D01*
X-35272395Y-21641090D01*
X-35150427Y-21741187D01*
X-35050330Y-21863155D01*
X-34975952Y-22002308D01*
X-34930150Y-22153295D01*
X-34918560Y-22270974D01*
X-34918560Y-23449666D01*
X-34930150Y-23567345D01*
X-34975952Y-23718332D01*
X-35050330Y-23857485D01*
X-35150424Y-23979450D01*
X-35150426Y-23979451D01*
X-35150427Y-23979453D01*
X-35150431Y-23979456D01*
X-35272399Y-24079552D01*
X-35411549Y-24153928D01*
X-35562536Y-24199730D01*
X-35719560Y-24215195D01*
X-35876585Y-24199730D01*
X-36027572Y-24153928D01*
X-36166725Y-24079550D01*
X-36288690Y-23979456D01*
X-36288691Y-23979454D01*
X-36288693Y-23979453D01*
X-36338741Y-23918469D01*
X-36388792Y-23857481D01*
X-36463168Y-23718331D01*
X-36508970Y-23567344D01*
X-36520560Y-23449665D01*
X-36520559Y-22270974D01*
X-36508969Y-22153295D01*
X-36463167Y-22002308D01*
X-36388789Y-21863155D01*
X-36288692Y-21741187D01*
X-36166724Y-21641090D01*
X-36027571Y-21566712D01*
X-35876584Y-21520910D01*
X-35719560Y-21505445D01*
X-35562535Y-21520910D01*
X-35562535Y-21520910D01*
G37*
G36*
X35877464Y-21520910D02*
X36028451Y-21566712D01*
X36167601Y-21641088D01*
X36203190Y-21670295D01*
X36289573Y-21741187D01*
X36289574Y-21741189D01*
X36289576Y-21741190D01*
X36389670Y-21863155D01*
X36464048Y-22002308D01*
X36509850Y-22153295D01*
X36521440Y-22270974D01*
X36521440Y-23449666D01*
X36509850Y-23567345D01*
X36464048Y-23718332D01*
X36389670Y-23857485D01*
X36289573Y-23979453D01*
X36167605Y-24079550D01*
X36028452Y-24153928D01*
X35877465Y-24199730D01*
X35720440Y-24215195D01*
X35563416Y-24199730D01*
X35412429Y-24153928D01*
X35273276Y-24079550D01*
X35151308Y-23979453D01*
X35051211Y-23857485D01*
X34976833Y-23718332D01*
X34931031Y-23567345D01*
X34919441Y-23449666D01*
X34919440Y-22270975D01*
X34931030Y-22153296D01*
X34976832Y-22002309D01*
X35051208Y-21863159D01*
X35151305Y-21741190D01*
X35151307Y-21741187D01*
X35151309Y-21741186D01*
X35151310Y-21741184D01*
X35273275Y-21641090D01*
X35412428Y-21566712D01*
X35563415Y-21520910D01*
X35720440Y-21505445D01*
X35877464Y-21520910D01*
X35877464Y-21520910D01*
G37*
G36*
X26967260Y-21621633D02*
X26967263Y-21621634D01*
X26967264Y-21621634D01*
X27127678Y-21670295D01*
X27127680Y-21670296D01*
X27127683Y-21670297D01*
X27275518Y-21749315D01*
X27405099Y-21855661D01*
X27511445Y-21985242D01*
X27590463Y-22133076D01*
X27590463Y-22133077D01*
X27590465Y-22133081D01*
X27632295Y-22270976D01*
X27639127Y-22293499D01*
X27651440Y-22418516D01*
X27651440Y-23302123D01*
X27639127Y-23427140D01*
X27639126Y-23427142D01*
X27639126Y-23427145D01*
X27590465Y-23587558D01*
X27590463Y-23587564D01*
X27511445Y-23735398D01*
X27405099Y-23864979D01*
X27275518Y-23971325D01*
X27127684Y-24050343D01*
X27127681Y-24050344D01*
X27127679Y-24050345D01*
X26967265Y-24099006D01*
X26967264Y-24099006D01*
X26967261Y-24099007D01*
X26800440Y-24115437D01*
X26633620Y-24099007D01*
X26633617Y-24099006D01*
X26633616Y-24099006D01*
X26473202Y-24050345D01*
X26473200Y-24050344D01*
X26473197Y-24050343D01*
X26325363Y-23971325D01*
X26195782Y-23864979D01*
X26089436Y-23735398D01*
X26010418Y-23587564D01*
X26004285Y-23567345D01*
X25961755Y-23427145D01*
X25961755Y-23427144D01*
X25961754Y-23427141D01*
X25949440Y-23302123D01*
X25949440Y-22418517D01*
X25961753Y-22293500D01*
X25961754Y-22293496D01*
X26010415Y-22133082D01*
X26010416Y-22133080D01*
X26010417Y-22133077D01*
X26089435Y-21985242D01*
X26195781Y-21855661D01*
X26325362Y-21749315D01*
X26473196Y-21670297D01*
X26473199Y-21670296D01*
X26473201Y-21670295D01*
X26633615Y-21621634D01*
X26633616Y-21621634D01*
X26633619Y-21621633D01*
X26800440Y-21605203D01*
X26967260Y-21621633D01*
X26967260Y-21621633D01*
G37*
G36*
X-26632739Y-21621633D02*
X-26632736Y-21621634D01*
X-26632735Y-21621634D01*
X-26472321Y-21670295D01*
X-26472319Y-21670296D01*
X-26472316Y-21670297D01*
X-26324482Y-21749315D01*
X-26194901Y-21855661D01*
X-26088555Y-21985242D01*
X-26009537Y-22133076D01*
X-26009537Y-22133077D01*
X-26009535Y-22133081D01*
X-25960874Y-22293495D01*
X-25960874Y-22293496D01*
X-25960873Y-22293500D01*
X-25948560Y-22418517D01*
X-25948560Y-23302124D01*
X-25960873Y-23427141D01*
X-25960874Y-23427144D01*
X-25960874Y-23427145D01*
X-26003403Y-23567345D01*
X-26009537Y-23587564D01*
X-26088555Y-23735398D01*
X-26194901Y-23864979D01*
X-26324482Y-23971325D01*
X-26472317Y-24050343D01*
X-26472320Y-24050344D01*
X-26472322Y-24050345D01*
X-26632736Y-24099006D01*
X-26632737Y-24099006D01*
X-26632740Y-24099007D01*
X-26799560Y-24115437D01*
X-26966381Y-24099007D01*
X-26966384Y-24099006D01*
X-26966385Y-24099006D01*
X-27126799Y-24050345D01*
X-27126801Y-24050344D01*
X-27126804Y-24050343D01*
X-27274638Y-23971325D01*
X-27404219Y-23864979D01*
X-27510565Y-23735398D01*
X-27589583Y-23587563D01*
X-27595716Y-23567345D01*
X-27638246Y-23427144D01*
X-27638246Y-23427143D01*
X-27638247Y-23427140D01*
X-27650560Y-23302123D01*
X-27650560Y-22418517D01*
X-27638246Y-22293499D01*
X-27631414Y-22270976D01*
X-27589584Y-22133081D01*
X-27589582Y-22133077D01*
X-27589582Y-22133076D01*
X-27510564Y-21985242D01*
X-27404218Y-21855661D01*
X-27274637Y-21749315D01*
X-27126803Y-21670297D01*
X-27126800Y-21670296D01*
X-27126798Y-21670295D01*
X-26966384Y-21621634D01*
X-26966383Y-21621634D01*
X-26966380Y-21621633D01*
X-26799560Y-21605203D01*
X-26632739Y-21621633D01*
X-26632739Y-21621633D01*
G37*
G36*
X47287260Y-21621633D02*
X47287263Y-21621634D01*
X47287264Y-21621634D01*
X47447678Y-21670295D01*
X47447680Y-21670296D01*
X47447683Y-21670297D01*
X47595518Y-21749315D01*
X47725099Y-21855661D01*
X47831445Y-21985242D01*
X47910463Y-22133076D01*
X47910463Y-22133077D01*
X47910465Y-22133081D01*
X47952295Y-22270976D01*
X47959127Y-22293499D01*
X47971440Y-22418516D01*
X47971440Y-23302123D01*
X47959127Y-23427140D01*
X47959126Y-23427142D01*
X47959126Y-23427145D01*
X47910465Y-23587558D01*
X47910463Y-23587564D01*
X47831445Y-23735398D01*
X47725099Y-23864979D01*
X47595518Y-23971325D01*
X47447684Y-24050343D01*
X47447681Y-24050344D01*
X47447679Y-24050345D01*
X47287265Y-24099006D01*
X47287264Y-24099006D01*
X47287261Y-24099007D01*
X47120440Y-24115437D01*
X46953620Y-24099007D01*
X46953617Y-24099006D01*
X46953616Y-24099006D01*
X46793202Y-24050345D01*
X46793200Y-24050344D01*
X46793197Y-24050343D01*
X46645363Y-23971325D01*
X46515782Y-23864979D01*
X46409436Y-23735398D01*
X46330418Y-23587564D01*
X46324285Y-23567345D01*
X46281755Y-23427145D01*
X46281755Y-23427144D01*
X46281754Y-23427141D01*
X46269440Y-23302123D01*
X46269440Y-22418517D01*
X46281753Y-22293500D01*
X46281754Y-22293496D01*
X46330415Y-22133082D01*
X46330416Y-22133080D01*
X46330417Y-22133077D01*
X46409435Y-21985242D01*
X46515781Y-21855661D01*
X46645362Y-21749315D01*
X46793196Y-21670297D01*
X46793199Y-21670296D01*
X46793201Y-21670295D01*
X46953615Y-21621634D01*
X46953616Y-21621634D01*
X46953619Y-21621633D01*
X47120440Y-21605203D01*
X47287260Y-21621633D01*
X47287260Y-21621633D01*
G37*
G36*
X-46952739Y-21621633D02*
X-46952736Y-21621634D01*
X-46952735Y-21621634D01*
X-46792321Y-21670295D01*
X-46792319Y-21670296D01*
X-46792316Y-21670297D01*
X-46644482Y-21749315D01*
X-46514901Y-21855661D01*
X-46408555Y-21985242D01*
X-46329537Y-22133076D01*
X-46329537Y-22133077D01*
X-46329535Y-22133081D01*
X-46280874Y-22293495D01*
X-46280874Y-22293496D01*
X-46280873Y-22293500D01*
X-46268560Y-22418517D01*
X-46268560Y-23302124D01*
X-46280873Y-23427141D01*
X-46280874Y-23427144D01*
X-46280874Y-23427145D01*
X-46323403Y-23567345D01*
X-46329537Y-23587564D01*
X-46408555Y-23735398D01*
X-46514901Y-23864979D01*
X-46644482Y-23971325D01*
X-46792317Y-24050343D01*
X-46792320Y-24050344D01*
X-46792322Y-24050345D01*
X-46952736Y-24099006D01*
X-46952737Y-24099006D01*
X-46952740Y-24099007D01*
X-47119560Y-24115437D01*
X-47286381Y-24099007D01*
X-47286384Y-24099006D01*
X-47286385Y-24099006D01*
X-47446799Y-24050345D01*
X-47446801Y-24050344D01*
X-47446804Y-24050343D01*
X-47594638Y-23971325D01*
X-47724219Y-23864979D01*
X-47830565Y-23735398D01*
X-47909583Y-23587563D01*
X-47915716Y-23567345D01*
X-47958246Y-23427144D01*
X-47958246Y-23427143D01*
X-47958247Y-23427140D01*
X-47970560Y-23302123D01*
X-47970560Y-22418517D01*
X-47958246Y-22293499D01*
X-47951414Y-22270976D01*
X-47909584Y-22133081D01*
X-47909582Y-22133077D01*
X-47909582Y-22133076D01*
X-47830564Y-21985242D01*
X-47724218Y-21855661D01*
X-47594637Y-21749315D01*
X-47446803Y-21670297D01*
X-47446800Y-21670296D01*
X-47446798Y-21670295D01*
X-47286384Y-21621634D01*
X-47286383Y-21621634D01*
X-47286380Y-21621633D01*
X-47119560Y-21605203D01*
X-46952739Y-21621633D01*
X-46952739Y-21621633D01*
G37*
G36*
X-43852739Y-11361633D02*
X-43852736Y-11361634D01*
X-43852735Y-11361634D01*
X-43692321Y-11410295D01*
X-43692319Y-11410296D01*
X-43692316Y-11410297D01*
X-43544482Y-11489315D01*
X-43414901Y-11595661D01*
X-43308555Y-11725242D01*
X-43229537Y-11873076D01*
X-43229537Y-11873077D01*
X-43229535Y-11873081D01*
X-43193068Y-11993297D01*
X-43180873Y-12033499D01*
X-43168560Y-12158517D01*
X-43168560Y-13242124D01*
X-43180873Y-13367141D01*
X-43180874Y-13367144D01*
X-43180874Y-13367145D01*
X-43199200Y-13427559D01*
X-43229537Y-13527564D01*
X-43308555Y-13675398D01*
X-43414901Y-13804979D01*
X-43544482Y-13911325D01*
X-43692317Y-13990343D01*
X-43692320Y-13990344D01*
X-43692322Y-13990345D01*
X-43852736Y-14039006D01*
X-43852737Y-14039006D01*
X-43852740Y-14039007D01*
X-44019560Y-14055437D01*
X-44186381Y-14039007D01*
X-44186384Y-14039006D01*
X-44186385Y-14039006D01*
X-44346799Y-13990345D01*
X-44346801Y-13990344D01*
X-44346804Y-13990343D01*
X-44494638Y-13911325D01*
X-44624219Y-13804979D01*
X-44730565Y-13675398D01*
X-44809583Y-13527563D01*
X-44839917Y-13427564D01*
X-44858246Y-13367144D01*
X-44858246Y-13367143D01*
X-44858247Y-13367140D01*
X-44870560Y-13242123D01*
X-44870559Y-12158516D01*
X-44858246Y-12033499D01*
X-44846051Y-11993297D01*
X-44809584Y-11873081D01*
X-44809582Y-11873077D01*
X-44809582Y-11873076D01*
X-44730564Y-11725242D01*
X-44624218Y-11595661D01*
X-44494637Y-11489315D01*
X-44346803Y-11410297D01*
X-44346800Y-11410296D01*
X-44346798Y-11410295D01*
X-44186384Y-11361634D01*
X-44186383Y-11361634D01*
X-44186380Y-11361633D01*
X-44019560Y-11345203D01*
X-43852739Y-11361633D01*
X-43852739Y-11361633D01*
G37*
G36*
X-23532739Y-11361633D02*
X-23532736Y-11361634D01*
X-23532735Y-11361634D01*
X-23372321Y-11410295D01*
X-23372319Y-11410296D01*
X-23372316Y-11410297D01*
X-23224482Y-11489315D01*
X-23094901Y-11595661D01*
X-22988555Y-11725242D01*
X-22909537Y-11873076D01*
X-22909537Y-11873077D01*
X-22909535Y-11873081D01*
X-22873068Y-11993297D01*
X-22860873Y-12033499D01*
X-22848560Y-12158517D01*
X-22848560Y-13242124D01*
X-22860873Y-13367141D01*
X-22860874Y-13367144D01*
X-22860874Y-13367145D01*
X-22879200Y-13427559D01*
X-22909537Y-13527564D01*
X-22988555Y-13675398D01*
X-23094901Y-13804979D01*
X-23224482Y-13911325D01*
X-23372317Y-13990343D01*
X-23372320Y-13990344D01*
X-23372322Y-13990345D01*
X-23532736Y-14039006D01*
X-23532737Y-14039006D01*
X-23532740Y-14039007D01*
X-23699560Y-14055437D01*
X-23866381Y-14039007D01*
X-23866384Y-14039006D01*
X-23866385Y-14039006D01*
X-24026799Y-13990345D01*
X-24026801Y-13990344D01*
X-24026804Y-13990343D01*
X-24174638Y-13911325D01*
X-24304219Y-13804979D01*
X-24410565Y-13675398D01*
X-24489583Y-13527563D01*
X-24519917Y-13427564D01*
X-24538246Y-13367144D01*
X-24538246Y-13367143D01*
X-24538247Y-13367140D01*
X-24550560Y-13242123D01*
X-24550559Y-12158516D01*
X-24538246Y-12033499D01*
X-24526051Y-11993297D01*
X-24489584Y-11873081D01*
X-24489582Y-11873077D01*
X-24489582Y-11873076D01*
X-24410564Y-11725242D01*
X-24304218Y-11595661D01*
X-24174637Y-11489315D01*
X-24026803Y-11410297D01*
X-24026800Y-11410296D01*
X-24026798Y-11410295D01*
X-23866384Y-11361634D01*
X-23866383Y-11361634D01*
X-23866380Y-11361633D01*
X-23699560Y-11345203D01*
X-23532739Y-11361633D01*
X-23532739Y-11361633D01*
G37*
G36*
X44187260Y-11361633D02*
X44187263Y-11361634D01*
X44187264Y-11361634D01*
X44347678Y-11410295D01*
X44347680Y-11410296D01*
X44347683Y-11410297D01*
X44495518Y-11489315D01*
X44625099Y-11595661D01*
X44731445Y-11725242D01*
X44810463Y-11873076D01*
X44810463Y-11873077D01*
X44810465Y-11873081D01*
X44846932Y-11993297D01*
X44859127Y-12033499D01*
X44871440Y-12158516D01*
X44871440Y-13242123D01*
X44859127Y-13367141D01*
X44859126Y-13367144D01*
X44859126Y-13367145D01*
X44840800Y-13427559D01*
X44810463Y-13527564D01*
X44731445Y-13675398D01*
X44625099Y-13804979D01*
X44495518Y-13911325D01*
X44347684Y-13990343D01*
X44347681Y-13990344D01*
X44347679Y-13990345D01*
X44187265Y-14039006D01*
X44187264Y-14039006D01*
X44187261Y-14039007D01*
X44020440Y-14055437D01*
X43853620Y-14039007D01*
X43853617Y-14039006D01*
X43853616Y-14039006D01*
X43693202Y-13990345D01*
X43693200Y-13990344D01*
X43693197Y-13990343D01*
X43545363Y-13911325D01*
X43415782Y-13804979D01*
X43309436Y-13675398D01*
X43230418Y-13527564D01*
X43200082Y-13427559D01*
X43181755Y-13367145D01*
X43181755Y-13367144D01*
X43181754Y-13367141D01*
X43169441Y-13242124D01*
X43169440Y-12158517D01*
X43181753Y-12033500D01*
X43181754Y-12033496D01*
X43230415Y-11873082D01*
X43230416Y-11873080D01*
X43230417Y-11873077D01*
X43309435Y-11725242D01*
X43415781Y-11595661D01*
X43545362Y-11489315D01*
X43693196Y-11410297D01*
X43693199Y-11410296D01*
X43693201Y-11410295D01*
X43853615Y-11361634D01*
X43853616Y-11361634D01*
X43853619Y-11361633D01*
X44020440Y-11345203D01*
X44187260Y-11361633D01*
X44187260Y-11361633D01*
G37*
G36*
X23867260Y-11361633D02*
X23867263Y-11361634D01*
X23867264Y-11361634D01*
X24027678Y-11410295D01*
X24027680Y-11410296D01*
X24027683Y-11410297D01*
X24175518Y-11489315D01*
X24305099Y-11595661D01*
X24411445Y-11725242D01*
X24490463Y-11873076D01*
X24490463Y-11873077D01*
X24490465Y-11873081D01*
X24526932Y-11993297D01*
X24539127Y-12033499D01*
X24551440Y-12158516D01*
X24551440Y-13242123D01*
X24539127Y-13367141D01*
X24539126Y-13367144D01*
X24539126Y-13367145D01*
X24520800Y-13427559D01*
X24490463Y-13527564D01*
X24411445Y-13675398D01*
X24305099Y-13804979D01*
X24175518Y-13911325D01*
X24027684Y-13990343D01*
X24027681Y-13990344D01*
X24027679Y-13990345D01*
X23867265Y-14039006D01*
X23867264Y-14039006D01*
X23867261Y-14039007D01*
X23700440Y-14055437D01*
X23533620Y-14039007D01*
X23533617Y-14039006D01*
X23533616Y-14039006D01*
X23373202Y-13990345D01*
X23373200Y-13990344D01*
X23373197Y-13990343D01*
X23225363Y-13911325D01*
X23095782Y-13804979D01*
X22989436Y-13675398D01*
X22910418Y-13527564D01*
X22880082Y-13427559D01*
X22861755Y-13367145D01*
X22861755Y-13367144D01*
X22861754Y-13367141D01*
X22849441Y-13242124D01*
X22849440Y-12158517D01*
X22861753Y-12033500D01*
X22861754Y-12033496D01*
X22910415Y-11873082D01*
X22910416Y-11873080D01*
X22910417Y-11873077D01*
X22989435Y-11725242D01*
X23095781Y-11595661D01*
X23225362Y-11489315D01*
X23373196Y-11410297D01*
X23373199Y-11410296D01*
X23373201Y-11410295D01*
X23533615Y-11361634D01*
X23533616Y-11361634D01*
X23533619Y-11361633D01*
X23700440Y-11345203D01*
X23867260Y-11361633D01*
X23867260Y-11361633D01*
G37*
G36*
X-35562535Y-11360910D02*
X-35411548Y-11406712D01*
X-35272395Y-11481090D01*
X-35150427Y-11581187D01*
X-35050330Y-11703155D01*
X-34975952Y-11842308D01*
X-34930150Y-11993295D01*
X-34918560Y-12110974D01*
X-34918560Y-13289666D01*
X-34930150Y-13407345D01*
X-34975952Y-13558332D01*
X-35050330Y-13697485D01*
X-35150424Y-13819450D01*
X-35150426Y-13819451D01*
X-35150427Y-13819453D01*
X-35150431Y-13819456D01*
X-35272399Y-13919552D01*
X-35411549Y-13993928D01*
X-35562536Y-14039730D01*
X-35719560Y-14055195D01*
X-35876585Y-14039730D01*
X-36027572Y-13993928D01*
X-36166725Y-13919550D01*
X-36288690Y-13819456D01*
X-36288691Y-13819454D01*
X-36288693Y-13819453D01*
X-36338741Y-13758468D01*
X-36388792Y-13697481D01*
X-36463168Y-13558331D01*
X-36508970Y-13407344D01*
X-36520560Y-13289665D01*
X-36520559Y-12110974D01*
X-36508969Y-11993295D01*
X-36463167Y-11842308D01*
X-36388789Y-11703155D01*
X-36288692Y-11581187D01*
X-36166724Y-11481090D01*
X-36027571Y-11406712D01*
X-35876584Y-11360910D01*
X-35719560Y-11345445D01*
X-35562535Y-11360910D01*
X-35562535Y-11360910D01*
G37*
G36*
X35877464Y-11360910D02*
X36028451Y-11406712D01*
X36167601Y-11481088D01*
X36203190Y-11510295D01*
X36289573Y-11581187D01*
X36289574Y-11581189D01*
X36289576Y-11581190D01*
X36389670Y-11703155D01*
X36464048Y-11842308D01*
X36509850Y-11993295D01*
X36521440Y-12110974D01*
X36521440Y-13289666D01*
X36509850Y-13407345D01*
X36464048Y-13558332D01*
X36389670Y-13697485D01*
X36289573Y-13819453D01*
X36167605Y-13919550D01*
X36028452Y-13993928D01*
X35877465Y-14039730D01*
X35720440Y-14055195D01*
X35563416Y-14039730D01*
X35412429Y-13993928D01*
X35273276Y-13919550D01*
X35151308Y-13819453D01*
X35051211Y-13697485D01*
X34976833Y-13558332D01*
X34931031Y-13407345D01*
X34919441Y-13289666D01*
X34919440Y-12110975D01*
X34931030Y-11993296D01*
X34976832Y-11842309D01*
X35051208Y-11703159D01*
X35151305Y-11581190D01*
X35151307Y-11581187D01*
X35151309Y-11581186D01*
X35151310Y-11581184D01*
X35273275Y-11481090D01*
X35412428Y-11406712D01*
X35563415Y-11360910D01*
X35720440Y-11345445D01*
X35877464Y-11360910D01*
X35877464Y-11360910D01*
G37*
G36*
X15557464Y-11360910D02*
X15708451Y-11406712D01*
X15847601Y-11481088D01*
X15883190Y-11510295D01*
X15969573Y-11581187D01*
X15969574Y-11581189D01*
X15969576Y-11581190D01*
X16069670Y-11703155D01*
X16144048Y-11842308D01*
X16189850Y-11993295D01*
X16201440Y-12110974D01*
X16201440Y-13289666D01*
X16189850Y-13407345D01*
X16144048Y-13558332D01*
X16069670Y-13697485D01*
X15969573Y-13819453D01*
X15847605Y-13919550D01*
X15708452Y-13993928D01*
X15557465Y-14039730D01*
X15400440Y-14055195D01*
X15243416Y-14039730D01*
X15092429Y-13993928D01*
X14953276Y-13919550D01*
X14831308Y-13819453D01*
X14731211Y-13697485D01*
X14656833Y-13558332D01*
X14611031Y-13407345D01*
X14599441Y-13289666D01*
X14599440Y-12110975D01*
X14611030Y-11993296D01*
X14656832Y-11842309D01*
X14731208Y-11703159D01*
X14831305Y-11581190D01*
X14831307Y-11581187D01*
X14831309Y-11581186D01*
X14831310Y-11581184D01*
X14953275Y-11481090D01*
X15092428Y-11406712D01*
X15243415Y-11360910D01*
X15400440Y-11345445D01*
X15557464Y-11360910D01*
X15557464Y-11360910D01*
G37*
G36*
X-15242535Y-11360910D02*
X-15091548Y-11406712D01*
X-14952395Y-11481090D01*
X-14830427Y-11581187D01*
X-14730330Y-11703155D01*
X-14655952Y-11842308D01*
X-14610150Y-11993295D01*
X-14598560Y-12110974D01*
X-14598560Y-13289666D01*
X-14610150Y-13407345D01*
X-14655952Y-13558332D01*
X-14730330Y-13697485D01*
X-14830424Y-13819450D01*
X-14830426Y-13819451D01*
X-14830427Y-13819453D01*
X-14830431Y-13819456D01*
X-14952399Y-13919552D01*
X-15091549Y-13993928D01*
X-15242536Y-14039730D01*
X-15399560Y-14055195D01*
X-15556585Y-14039730D01*
X-15707572Y-13993928D01*
X-15846725Y-13919550D01*
X-15968690Y-13819456D01*
X-15968691Y-13819454D01*
X-15968693Y-13819453D01*
X-16018741Y-13758468D01*
X-16068792Y-13697481D01*
X-16143168Y-13558331D01*
X-16188970Y-13407344D01*
X-16200560Y-13289665D01*
X-16200559Y-12110974D01*
X-16188969Y-11993295D01*
X-16143167Y-11842308D01*
X-16068789Y-11703155D01*
X-15968692Y-11581187D01*
X-15846724Y-11481090D01*
X-15707571Y-11406712D01*
X-15556584Y-11360910D01*
X-15399560Y-11345445D01*
X-15242535Y-11360910D01*
X-15242535Y-11360910D01*
G37*
G36*
X47287260Y-11461633D02*
X47287263Y-11461634D01*
X47287264Y-11461634D01*
X47447678Y-11510295D01*
X47447680Y-11510296D01*
X47447683Y-11510297D01*
X47595518Y-11589315D01*
X47725099Y-11695661D01*
X47831445Y-11825242D01*
X47910463Y-11973076D01*
X47910463Y-11973077D01*
X47910465Y-11973081D01*
X47952295Y-12110976D01*
X47959127Y-12133499D01*
X47971440Y-12258516D01*
X47971440Y-13142123D01*
X47959127Y-13267140D01*
X47959126Y-13267142D01*
X47959126Y-13267145D01*
X47910465Y-13427558D01*
X47910463Y-13427564D01*
X47831445Y-13575398D01*
X47725099Y-13704979D01*
X47595518Y-13811325D01*
X47447684Y-13890343D01*
X47447681Y-13890344D01*
X47447679Y-13890345D01*
X47287265Y-13939006D01*
X47287264Y-13939006D01*
X47287261Y-13939007D01*
X47120440Y-13955437D01*
X46953620Y-13939007D01*
X46953617Y-13939006D01*
X46953616Y-13939006D01*
X46793202Y-13890345D01*
X46793200Y-13890344D01*
X46793197Y-13890343D01*
X46645363Y-13811325D01*
X46515782Y-13704979D01*
X46409436Y-13575398D01*
X46330418Y-13427564D01*
X46324285Y-13407345D01*
X46281755Y-13267145D01*
X46281755Y-13267144D01*
X46281754Y-13267141D01*
X46269440Y-13142123D01*
X46269440Y-12258517D01*
X46281753Y-12133500D01*
X46281754Y-12133496D01*
X46330415Y-11973082D01*
X46330416Y-11973080D01*
X46330417Y-11973077D01*
X46409435Y-11825242D01*
X46515781Y-11695661D01*
X46645362Y-11589315D01*
X46793196Y-11510297D01*
X46793199Y-11510296D01*
X46793201Y-11510295D01*
X46953615Y-11461634D01*
X46953616Y-11461634D01*
X46953619Y-11461633D01*
X47120440Y-11445203D01*
X47287260Y-11461633D01*
X47287260Y-11461633D01*
G37*
G36*
X-26632739Y-11461633D02*
X-26632736Y-11461634D01*
X-26632735Y-11461634D01*
X-26472321Y-11510295D01*
X-26472319Y-11510296D01*
X-26472316Y-11510297D01*
X-26324482Y-11589315D01*
X-26194901Y-11695661D01*
X-26088555Y-11825242D01*
X-26009537Y-11973076D01*
X-26009537Y-11973077D01*
X-26009535Y-11973081D01*
X-25960874Y-12133495D01*
X-25960874Y-12133496D01*
X-25960873Y-12133500D01*
X-25948560Y-12258517D01*
X-25948560Y-13142124D01*
X-25960873Y-13267141D01*
X-25960874Y-13267144D01*
X-25960874Y-13267145D01*
X-26003403Y-13407345D01*
X-26009537Y-13427564D01*
X-26088555Y-13575398D01*
X-26194901Y-13704979D01*
X-26324482Y-13811325D01*
X-26472317Y-13890343D01*
X-26472320Y-13890344D01*
X-26472322Y-13890345D01*
X-26632736Y-13939006D01*
X-26632737Y-13939006D01*
X-26632740Y-13939007D01*
X-26799560Y-13955437D01*
X-26966381Y-13939007D01*
X-26966384Y-13939006D01*
X-26966385Y-13939006D01*
X-27126799Y-13890345D01*
X-27126801Y-13890344D01*
X-27126804Y-13890343D01*
X-27274638Y-13811325D01*
X-27404219Y-13704979D01*
X-27510565Y-13575398D01*
X-27589583Y-13427563D01*
X-27595716Y-13407345D01*
X-27638246Y-13267144D01*
X-27638246Y-13267143D01*
X-27638247Y-13267140D01*
X-27650560Y-13142123D01*
X-27650560Y-12258517D01*
X-27638246Y-12133499D01*
X-27631414Y-12110976D01*
X-27589584Y-11973081D01*
X-27589582Y-11973077D01*
X-27589582Y-11973076D01*
X-27510564Y-11825242D01*
X-27404218Y-11695661D01*
X-27274637Y-11589315D01*
X-27126803Y-11510297D01*
X-27126800Y-11510296D01*
X-27126798Y-11510295D01*
X-26966384Y-11461634D01*
X-26966383Y-11461634D01*
X-26966380Y-11461633D01*
X-26799560Y-11445203D01*
X-26632739Y-11461633D01*
X-26632739Y-11461633D01*
G37*
G36*
X-46952739Y-11461633D02*
X-46952736Y-11461634D01*
X-46952735Y-11461634D01*
X-46792321Y-11510295D01*
X-46792319Y-11510296D01*
X-46792316Y-11510297D01*
X-46644482Y-11589315D01*
X-46514901Y-11695661D01*
X-46408555Y-11825242D01*
X-46329537Y-11973076D01*
X-46329537Y-11973077D01*
X-46329535Y-11973081D01*
X-46280874Y-12133495D01*
X-46280874Y-12133496D01*
X-46280873Y-12133500D01*
X-46268560Y-12258517D01*
X-46268560Y-13142124D01*
X-46280873Y-13267141D01*
X-46280874Y-13267144D01*
X-46280874Y-13267145D01*
X-46323403Y-13407345D01*
X-46329537Y-13427564D01*
X-46408555Y-13575398D01*
X-46514901Y-13704979D01*
X-46644482Y-13811325D01*
X-46792317Y-13890343D01*
X-46792320Y-13890344D01*
X-46792322Y-13890345D01*
X-46952736Y-13939006D01*
X-46952737Y-13939006D01*
X-46952740Y-13939007D01*
X-47119560Y-13955437D01*
X-47286381Y-13939007D01*
X-47286384Y-13939006D01*
X-47286385Y-13939006D01*
X-47446799Y-13890345D01*
X-47446801Y-13890344D01*
X-47446804Y-13890343D01*
X-47594638Y-13811325D01*
X-47724219Y-13704979D01*
X-47830565Y-13575398D01*
X-47909583Y-13427563D01*
X-47915716Y-13407345D01*
X-47958246Y-13267144D01*
X-47958246Y-13267143D01*
X-47958247Y-13267140D01*
X-47970560Y-13142123D01*
X-47970560Y-12258517D01*
X-47958246Y-12133499D01*
X-47951414Y-12110976D01*
X-47909584Y-11973081D01*
X-47909582Y-11973077D01*
X-47909582Y-11973076D01*
X-47830564Y-11825242D01*
X-47724218Y-11695661D01*
X-47594637Y-11589315D01*
X-47446803Y-11510297D01*
X-47446800Y-11510296D01*
X-47446798Y-11510295D01*
X-47286384Y-11461634D01*
X-47286383Y-11461634D01*
X-47286380Y-11461633D01*
X-47119560Y-11445203D01*
X-46952739Y-11461633D01*
X-46952739Y-11461633D01*
G37*
G36*
X26967260Y-11461633D02*
X26967263Y-11461634D01*
X26967264Y-11461634D01*
X27127678Y-11510295D01*
X27127680Y-11510296D01*
X27127683Y-11510297D01*
X27275518Y-11589315D01*
X27405099Y-11695661D01*
X27511445Y-11825242D01*
X27590463Y-11973076D01*
X27590463Y-11973077D01*
X27590465Y-11973081D01*
X27632295Y-12110976D01*
X27639127Y-12133499D01*
X27651440Y-12258516D01*
X27651440Y-13142123D01*
X27639127Y-13267140D01*
X27639126Y-13267142D01*
X27639126Y-13267145D01*
X27590465Y-13427558D01*
X27590463Y-13427564D01*
X27511445Y-13575398D01*
X27405099Y-13704979D01*
X27275518Y-13811325D01*
X27127684Y-13890343D01*
X27127681Y-13890344D01*
X27127679Y-13890345D01*
X26967265Y-13939006D01*
X26967264Y-13939006D01*
X26967261Y-13939007D01*
X26800440Y-13955437D01*
X26633620Y-13939007D01*
X26633617Y-13939006D01*
X26633616Y-13939006D01*
X26473202Y-13890345D01*
X26473200Y-13890344D01*
X26473197Y-13890343D01*
X26325363Y-13811325D01*
X26195782Y-13704979D01*
X26089436Y-13575398D01*
X26010418Y-13427564D01*
X26004285Y-13407345D01*
X25961755Y-13267145D01*
X25961755Y-13267144D01*
X25961754Y-13267141D01*
X25949440Y-13142123D01*
X25949440Y-12258517D01*
X25961753Y-12133500D01*
X25961754Y-12133496D01*
X26010415Y-11973082D01*
X26010416Y-11973080D01*
X26010417Y-11973077D01*
X26089435Y-11825242D01*
X26195781Y-11695661D01*
X26325362Y-11589315D01*
X26473196Y-11510297D01*
X26473199Y-11510296D01*
X26473201Y-11510295D01*
X26633615Y-11461634D01*
X26633616Y-11461634D01*
X26633619Y-11461633D01*
X26800440Y-11445203D01*
X26967260Y-11461633D01*
X26967260Y-11461633D01*
G37*
G36*
X-20007871Y-3404026D02*
X-19864520Y-3418145D01*
X-19619280Y-3492538D01*
X-19619278Y-3492539D01*
X-19393264Y-3613346D01*
X-19195163Y-3775923D01*
X-19032586Y-3974024D01*
X-19032585Y-3974026D01*
X-18911778Y-4200040D01*
X-18837385Y-4445280D01*
X-18812266Y-4700320D01*
X-18837385Y-4955360D01*
X-18911778Y-5200600D01*
X-18911779Y-5200602D01*
X-19032586Y-5426616D01*
X-19195163Y-5624717D01*
X-19393264Y-5787294D01*
X-19393266Y-5787295D01*
X-19619280Y-5908102D01*
X-19864520Y-5982495D01*
X-20007871Y-5996614D01*
X-20055654Y-6001320D01*
X-20583466Y-6001320D01*
X-20631249Y-5996614D01*
X-20774600Y-5982495D01*
X-21019840Y-5908102D01*
X-21245854Y-5787295D01*
X-21245856Y-5787294D01*
X-21443957Y-5624717D01*
X-21606534Y-5426616D01*
X-21727341Y-5200602D01*
X-21727342Y-5200600D01*
X-21801735Y-4955360D01*
X-21826854Y-4700320D01*
X-21801735Y-4445280D01*
X-21727342Y-4200040D01*
X-21606535Y-3974026D01*
X-21606534Y-3974024D01*
X-21443957Y-3775923D01*
X-21245856Y-3613346D01*
X-21019842Y-3492539D01*
X-21019840Y-3492538D01*
X-20774600Y-3418145D01*
X-20631249Y-3404026D01*
X-20583466Y-3399320D01*
X-20055654Y-3399320D01*
X-20007871Y-3404026D01*
X-20007871Y-3404026D01*
G37*
G36*
X-40327871Y-3404026D02*
X-40184520Y-3418145D01*
X-39939280Y-3492538D01*
X-39939278Y-3492539D01*
X-39713264Y-3613346D01*
X-39515163Y-3775923D01*
X-39352586Y-3974024D01*
X-39352585Y-3974026D01*
X-39231778Y-4200040D01*
X-39157385Y-4445280D01*
X-39132266Y-4700320D01*
X-39157385Y-4955360D01*
X-39231778Y-5200600D01*
X-39231779Y-5200602D01*
X-39352586Y-5426616D01*
X-39515163Y-5624717D01*
X-39713264Y-5787294D01*
X-39713266Y-5787295D01*
X-39939280Y-5908102D01*
X-40184520Y-5982495D01*
X-40327871Y-5996614D01*
X-40375654Y-6001320D01*
X-40903466Y-6001320D01*
X-40951249Y-5996614D01*
X-41094600Y-5982495D01*
X-41339840Y-5908102D01*
X-41565854Y-5787295D01*
X-41565856Y-5787294D01*
X-41763957Y-5624717D01*
X-41926534Y-5426616D01*
X-42047341Y-5200602D01*
X-42047342Y-5200600D01*
X-42121735Y-4955360D01*
X-42146854Y-4700320D01*
X-42121735Y-4445280D01*
X-42047342Y-4200040D01*
X-41926535Y-3974026D01*
X-41926534Y-3974024D01*
X-41763957Y-3775923D01*
X-41565856Y-3613346D01*
X-41339842Y-3492539D01*
X-41339840Y-3492538D01*
X-41094600Y-3418145D01*
X-40951249Y-3404026D01*
X-40903466Y-3399320D01*
X-40375654Y-3399320D01*
X-40327871Y-3404026D01*
X-40327871Y-3404026D01*
G37*
G36*
X312129Y-3404026D02*
X455480Y-3418145D01*
X700720Y-3492538D01*
X700722Y-3492539D01*
X926736Y-3613346D01*
X1124837Y-3775923D01*
X1287414Y-3974024D01*
X1287415Y-3974026D01*
X1408222Y-4200040D01*
X1482615Y-4445280D01*
X1507734Y-4700320D01*
X1482615Y-4955360D01*
X1408222Y-5200600D01*
X1408221Y-5200602D01*
X1287414Y-5426616D01*
X1124837Y-5624717D01*
X926736Y-5787294D01*
X926734Y-5787295D01*
X700720Y-5908102D01*
X455480Y-5982495D01*
X312129Y-5996614D01*
X264346Y-6001320D01*
X-263466Y-6001320D01*
X-311249Y-5996614D01*
X-454600Y-5982495D01*
X-699840Y-5908102D01*
X-925854Y-5787295D01*
X-925856Y-5787294D01*
X-1123957Y-5624717D01*
X-1286534Y-5426616D01*
X-1407341Y-5200602D01*
X-1407342Y-5200600D01*
X-1481735Y-4955360D01*
X-1506854Y-4700320D01*
X-1481735Y-4445280D01*
X-1407342Y-4200040D01*
X-1286535Y-3974026D01*
X-1286534Y-3974024D01*
X-1123957Y-3775923D01*
X-925856Y-3613346D01*
X-699842Y-3492539D01*
X-699840Y-3492538D01*
X-454600Y-3418145D01*
X-311249Y-3404026D01*
X-263466Y-3399320D01*
X264346Y-3399320D01*
X312129Y-3404026D01*
X312129Y-3404026D01*
G37*
G36*
X40952129Y-3404026D02*
X41095480Y-3418145D01*
X41340720Y-3492538D01*
X41340722Y-3492539D01*
X41566736Y-3613346D01*
X41764837Y-3775923D01*
X41927414Y-3974024D01*
X41927415Y-3974026D01*
X42048222Y-4200040D01*
X42122615Y-4445280D01*
X42147734Y-4700320D01*
X42122615Y-4955360D01*
X42048222Y-5200600D01*
X42048221Y-5200602D01*
X41927414Y-5426616D01*
X41764837Y-5624717D01*
X41566736Y-5787294D01*
X41566734Y-5787295D01*
X41340720Y-5908102D01*
X41095480Y-5982495D01*
X40952129Y-5996614D01*
X40904346Y-6001320D01*
X40376534Y-6001320D01*
X40328751Y-5996614D01*
X40185400Y-5982495D01*
X39940160Y-5908102D01*
X39714146Y-5787295D01*
X39714144Y-5787294D01*
X39516043Y-5624717D01*
X39353466Y-5426616D01*
X39232659Y-5200602D01*
X39232658Y-5200600D01*
X39158265Y-4955360D01*
X39133146Y-4700320D01*
X39158265Y-4445280D01*
X39232658Y-4200040D01*
X39353465Y-3974026D01*
X39353466Y-3974024D01*
X39516043Y-3775923D01*
X39714144Y-3613346D01*
X39940158Y-3492539D01*
X39940160Y-3492538D01*
X40185400Y-3418145D01*
X40328751Y-3404026D01*
X40376534Y-3399320D01*
X40904346Y-3399320D01*
X40952129Y-3404026D01*
X40952129Y-3404026D01*
G37*
G36*
X20632129Y-3404026D02*
X20775480Y-3418145D01*
X21020720Y-3492538D01*
X21020722Y-3492539D01*
X21246736Y-3613346D01*
X21444837Y-3775923D01*
X21607414Y-3974024D01*
X21607415Y-3974026D01*
X21728222Y-4200040D01*
X21802615Y-4445280D01*
X21827734Y-4700320D01*
X21802615Y-4955360D01*
X21728222Y-5200600D01*
X21728221Y-5200602D01*
X21607414Y-5426616D01*
X21444837Y-5624717D01*
X21246736Y-5787294D01*
X21246734Y-5787295D01*
X21020720Y-5908102D01*
X20775480Y-5982495D01*
X20632129Y-5996614D01*
X20584346Y-6001320D01*
X20056534Y-6001320D01*
X20008751Y-5996614D01*
X19865400Y-5982495D01*
X19620160Y-5908102D01*
X19394146Y-5787295D01*
X19394144Y-5787294D01*
X19196043Y-5624717D01*
X19033466Y-5426616D01*
X18912659Y-5200602D01*
X18912658Y-5200600D01*
X18838265Y-4955360D01*
X18813146Y-4700320D01*
X18838265Y-4445280D01*
X18912658Y-4200040D01*
X19033465Y-3974026D01*
X19033466Y-3974024D01*
X19196043Y-3775923D01*
X19394144Y-3613346D01*
X19620158Y-3492539D01*
X19620160Y-3492538D01*
X19865400Y-3418145D01*
X20008751Y-3404026D01*
X20056534Y-3399320D01*
X20584346Y-3399320D01*
X20632129Y-3404026D01*
X20632129Y-3404026D01*
G37*
G36*
X-40327871Y1295974D02*
X-40184520Y1281855D01*
X-39939280Y1207462D01*
X-39939278Y1207461D01*
X-39713264Y1086654D01*
X-39515163Y924077D01*
X-39352586Y725976D01*
X-39352585Y725974D01*
X-39231778Y499960D01*
X-39157385Y254720D01*
X-39132266Y-320D01*
X-39157385Y-255360D01*
X-39231778Y-500600D01*
X-39231779Y-500602D01*
X-39352586Y-726616D01*
X-39515163Y-924717D01*
X-39713264Y-1087294D01*
X-39713266Y-1087295D01*
X-39939280Y-1208102D01*
X-40184520Y-1282495D01*
X-40327871Y-1296614D01*
X-40375654Y-1301320D01*
X-40903466Y-1301320D01*
X-40951249Y-1296614D01*
X-41094600Y-1282495D01*
X-41339840Y-1208102D01*
X-41565854Y-1087295D01*
X-41565856Y-1087294D01*
X-41763957Y-924717D01*
X-41926534Y-726616D01*
X-42047341Y-500602D01*
X-42047342Y-500600D01*
X-42121735Y-255360D01*
X-42146854Y-320D01*
X-42121735Y254720D01*
X-42047342Y499960D01*
X-41926535Y725974D01*
X-41926534Y725976D01*
X-41763957Y924077D01*
X-41565856Y1086654D01*
X-41339842Y1207461D01*
X-41339840Y1207462D01*
X-41094600Y1281855D01*
X-40951249Y1295974D01*
X-40903466Y1300680D01*
X-40375654Y1300680D01*
X-40327871Y1295974D01*
X-40327871Y1295974D01*
G37*
G36*
X40952129Y1295974D02*
X41095480Y1281855D01*
X41340720Y1207462D01*
X41340722Y1207461D01*
X41566736Y1086654D01*
X41764837Y924077D01*
X41927414Y725976D01*
X41927415Y725974D01*
X42048222Y499960D01*
X42122615Y254720D01*
X42147734Y-320D01*
X42122615Y-255360D01*
X42048222Y-500600D01*
X42048221Y-500602D01*
X41927414Y-726616D01*
X41764837Y-924717D01*
X41566736Y-1087294D01*
X41566734Y-1087295D01*
X41340720Y-1208102D01*
X41095480Y-1282495D01*
X40952129Y-1296614D01*
X40904346Y-1301320D01*
X40376534Y-1301320D01*
X40328751Y-1296614D01*
X40185400Y-1282495D01*
X39940160Y-1208102D01*
X39714146Y-1087295D01*
X39714144Y-1087294D01*
X39516043Y-924717D01*
X39353466Y-726616D01*
X39232659Y-500602D01*
X39232658Y-500600D01*
X39158265Y-255360D01*
X39133146Y-320D01*
X39158265Y254720D01*
X39232658Y499960D01*
X39353465Y725974D01*
X39353466Y725976D01*
X39516043Y924077D01*
X39714144Y1086654D01*
X39940158Y1207461D01*
X39940160Y1207462D01*
X40185400Y1281855D01*
X40328751Y1295974D01*
X40376534Y1300680D01*
X40904346Y1300680D01*
X40952129Y1295974D01*
X40952129Y1295974D01*
G37*
G36*
X20632129Y1295974D02*
X20775480Y1281855D01*
X21020720Y1207462D01*
X21020722Y1207461D01*
X21246736Y1086654D01*
X21444837Y924077D01*
X21607414Y725976D01*
X21607415Y725974D01*
X21728222Y499960D01*
X21802615Y254720D01*
X21827734Y-320D01*
X21802615Y-255360D01*
X21728222Y-500600D01*
X21728221Y-500602D01*
X21607414Y-726616D01*
X21444837Y-924717D01*
X21246736Y-1087294D01*
X21246734Y-1087295D01*
X21020720Y-1208102D01*
X20775480Y-1282495D01*
X20632129Y-1296614D01*
X20584346Y-1301320D01*
X20056534Y-1301320D01*
X20008751Y-1296614D01*
X19865400Y-1282495D01*
X19620160Y-1208102D01*
X19394146Y-1087295D01*
X19394144Y-1087294D01*
X19196043Y-924717D01*
X19033466Y-726616D01*
X18912659Y-500602D01*
X18912658Y-500600D01*
X18838265Y-255360D01*
X18813146Y-320D01*
X18838265Y254720D01*
X18912658Y499960D01*
X19033465Y725974D01*
X19033466Y725976D01*
X19196043Y924077D01*
X19394144Y1086654D01*
X19620158Y1207461D01*
X19620160Y1207462D01*
X19865400Y1281855D01*
X20008751Y1295974D01*
X20056534Y1300680D01*
X20584346Y1300680D01*
X20632129Y1295974D01*
X20632129Y1295974D01*
G37*
G36*
X312129Y1295974D02*
X455480Y1281855D01*
X700720Y1207462D01*
X700722Y1207461D01*
X926736Y1086654D01*
X1124837Y924077D01*
X1287414Y725976D01*
X1287415Y725974D01*
X1408222Y499960D01*
X1482615Y254720D01*
X1507734Y-320D01*
X1482615Y-255360D01*
X1408222Y-500600D01*
X1408221Y-500602D01*
X1287414Y-726616D01*
X1124837Y-924717D01*
X926736Y-1087294D01*
X926734Y-1087295D01*
X700720Y-1208102D01*
X455480Y-1282495D01*
X312129Y-1296614D01*
X264346Y-1301320D01*
X-263466Y-1301320D01*
X-311249Y-1296614D01*
X-454600Y-1282495D01*
X-699840Y-1208102D01*
X-925854Y-1087295D01*
X-925856Y-1087294D01*
X-1123957Y-924717D01*
X-1286534Y-726616D01*
X-1407341Y-500602D01*
X-1407342Y-500600D01*
X-1481735Y-255360D01*
X-1506854Y-320D01*
X-1481735Y254720D01*
X-1407342Y499960D01*
X-1286535Y725974D01*
X-1286534Y725976D01*
X-1123957Y924077D01*
X-925856Y1086654D01*
X-699842Y1207461D01*
X-699840Y1207462D01*
X-454600Y1281855D01*
X-311249Y1295974D01*
X-263466Y1300680D01*
X264346Y1300680D01*
X312129Y1295974D01*
X312129Y1295974D01*
G37*
G36*
X-20007871Y1295974D02*
X-19864520Y1281855D01*
X-19619280Y1207462D01*
X-19619278Y1207461D01*
X-19393264Y1086654D01*
X-19195163Y924077D01*
X-19032586Y725976D01*
X-19032585Y725974D01*
X-18911778Y499960D01*
X-18837385Y254720D01*
X-18812266Y-320D01*
X-18837385Y-255360D01*
X-18911778Y-500600D01*
X-18911779Y-500602D01*
X-19032586Y-726616D01*
X-19195163Y-924717D01*
X-19393264Y-1087294D01*
X-19393266Y-1087295D01*
X-19619280Y-1208102D01*
X-19864520Y-1282495D01*
X-20007871Y-1296614D01*
X-20055654Y-1301320D01*
X-20583466Y-1301320D01*
X-20631249Y-1296614D01*
X-20774600Y-1282495D01*
X-21019840Y-1208102D01*
X-21245854Y-1087295D01*
X-21245856Y-1087294D01*
X-21443957Y-924717D01*
X-21606534Y-726616D01*
X-21727341Y-500602D01*
X-21727342Y-500600D01*
X-21801735Y-255360D01*
X-21826854Y-320D01*
X-21801735Y254720D01*
X-21727342Y499960D01*
X-21606535Y725974D01*
X-21606534Y725976D01*
X-21443957Y924077D01*
X-21245856Y1086654D01*
X-21019842Y1207461D01*
X-21019840Y1207462D01*
X-20774600Y1281855D01*
X-20631249Y1295974D01*
X-20583466Y1300680D01*
X-20055654Y1300680D01*
X-20007871Y1295974D01*
X-20007871Y1295974D01*
G37*
G36*
X20632129Y5995974D02*
X20775480Y5981855D01*
X21020720Y5907462D01*
X21020722Y5907461D01*
X21246736Y5786654D01*
X21444837Y5624077D01*
X21607414Y5425976D01*
X21607415Y5425974D01*
X21728222Y5199960D01*
X21802615Y4954720D01*
X21827734Y4699680D01*
X21802615Y4444640D01*
X21728222Y4199400D01*
X21728221Y4199398D01*
X21607414Y3973384D01*
X21444837Y3775283D01*
X21246736Y3612706D01*
X21246734Y3612705D01*
X21020720Y3491898D01*
X20775480Y3417505D01*
X20632129Y3403386D01*
X20584346Y3398680D01*
X20056534Y3398680D01*
X20008751Y3403386D01*
X19865400Y3417505D01*
X19620160Y3491898D01*
X19394146Y3612705D01*
X19394144Y3612706D01*
X19196043Y3775283D01*
X19033466Y3973384D01*
X18912659Y4199398D01*
X18912658Y4199400D01*
X18838265Y4444640D01*
X18813146Y4699680D01*
X18838265Y4954720D01*
X18912658Y5199960D01*
X19033465Y5425974D01*
X19033466Y5425976D01*
X19196043Y5624077D01*
X19394144Y5786654D01*
X19620158Y5907461D01*
X19620160Y5907462D01*
X19865400Y5981855D01*
X20008751Y5995974D01*
X20056534Y6000680D01*
X20584346Y6000680D01*
X20632129Y5995974D01*
X20632129Y5995974D01*
G37*
G36*
X-40327871Y5995974D02*
X-40184520Y5981855D01*
X-39939280Y5907462D01*
X-39939278Y5907461D01*
X-39713264Y5786654D01*
X-39515163Y5624077D01*
X-39352586Y5425976D01*
X-39352585Y5425974D01*
X-39231778Y5199960D01*
X-39157385Y4954720D01*
X-39132266Y4699680D01*
X-39157385Y4444640D01*
X-39231778Y4199400D01*
X-39231779Y4199398D01*
X-39352586Y3973384D01*
X-39515163Y3775283D01*
X-39713264Y3612706D01*
X-39713266Y3612705D01*
X-39939280Y3491898D01*
X-40184520Y3417505D01*
X-40327871Y3403386D01*
X-40375654Y3398680D01*
X-40903466Y3398680D01*
X-40951249Y3403386D01*
X-41094600Y3417505D01*
X-41339840Y3491898D01*
X-41565854Y3612705D01*
X-41565856Y3612706D01*
X-41763957Y3775283D01*
X-41926534Y3973384D01*
X-42047341Y4199398D01*
X-42047342Y4199400D01*
X-42121735Y4444640D01*
X-42146854Y4699680D01*
X-42121735Y4954720D01*
X-42047342Y5199960D01*
X-41926535Y5425974D01*
X-41926534Y5425976D01*
X-41763957Y5624077D01*
X-41565856Y5786654D01*
X-41339842Y5907461D01*
X-41339840Y5907462D01*
X-41094600Y5981855D01*
X-40951249Y5995974D01*
X-40903466Y6000680D01*
X-40375654Y6000680D01*
X-40327871Y5995974D01*
X-40327871Y5995974D01*
G37*
G36*
X-20007871Y5995974D02*
X-19864520Y5981855D01*
X-19619280Y5907462D01*
X-19619278Y5907461D01*
X-19393264Y5786654D01*
X-19195163Y5624077D01*
X-19032586Y5425976D01*
X-19032585Y5425974D01*
X-18911778Y5199960D01*
X-18837385Y4954720D01*
X-18812266Y4699680D01*
X-18837385Y4444640D01*
X-18911778Y4199400D01*
X-18911779Y4199398D01*
X-19032586Y3973384D01*
X-19195163Y3775283D01*
X-19393264Y3612706D01*
X-19393266Y3612705D01*
X-19619280Y3491898D01*
X-19864520Y3417505D01*
X-20007871Y3403386D01*
X-20055654Y3398680D01*
X-20583466Y3398680D01*
X-20631249Y3403386D01*
X-20774600Y3417505D01*
X-21019840Y3491898D01*
X-21245854Y3612705D01*
X-21245856Y3612706D01*
X-21443957Y3775283D01*
X-21606534Y3973384D01*
X-21727341Y4199398D01*
X-21727342Y4199400D01*
X-21801735Y4444640D01*
X-21826854Y4699680D01*
X-21801735Y4954720D01*
X-21727342Y5199960D01*
X-21606535Y5425974D01*
X-21606534Y5425976D01*
X-21443957Y5624077D01*
X-21245856Y5786654D01*
X-21019842Y5907461D01*
X-21019840Y5907462D01*
X-20774600Y5981855D01*
X-20631249Y5995974D01*
X-20583466Y6000680D01*
X-20055654Y6000680D01*
X-20007871Y5995974D01*
X-20007871Y5995974D01*
G37*
G36*
X40952129Y5995974D02*
X41095480Y5981855D01*
X41340720Y5907462D01*
X41340722Y5907461D01*
X41566736Y5786654D01*
X41764837Y5624077D01*
X41927414Y5425976D01*
X41927415Y5425974D01*
X42048222Y5199960D01*
X42122615Y4954720D01*
X42147734Y4699680D01*
X42122615Y4444640D01*
X42048222Y4199400D01*
X42048221Y4199398D01*
X41927414Y3973384D01*
X41764837Y3775283D01*
X41566736Y3612706D01*
X41566734Y3612705D01*
X41340720Y3491898D01*
X41095480Y3417505D01*
X40952129Y3403386D01*
X40904346Y3398680D01*
X40376534Y3398680D01*
X40328751Y3403386D01*
X40185400Y3417505D01*
X39940160Y3491898D01*
X39714146Y3612705D01*
X39714144Y3612706D01*
X39516043Y3775283D01*
X39353466Y3973384D01*
X39232659Y4199398D01*
X39232658Y4199400D01*
X39158265Y4444640D01*
X39133146Y4699680D01*
X39158265Y4954720D01*
X39232658Y5199960D01*
X39353465Y5425974D01*
X39353466Y5425976D01*
X39516043Y5624077D01*
X39714144Y5786654D01*
X39940158Y5907461D01*
X39940160Y5907462D01*
X40185400Y5981855D01*
X40328751Y5995974D01*
X40376534Y6000680D01*
X40904346Y6000680D01*
X40952129Y5995974D01*
X40952129Y5995974D01*
G37*
G36*
X312129Y5995974D02*
X455480Y5981855D01*
X700720Y5907462D01*
X700722Y5907461D01*
X926736Y5786654D01*
X1124837Y5624077D01*
X1287414Y5425976D01*
X1287415Y5425974D01*
X1408222Y5199960D01*
X1482615Y4954720D01*
X1507734Y4699680D01*
X1482615Y4444640D01*
X1408222Y4199400D01*
X1408221Y4199398D01*
X1287414Y3973384D01*
X1124837Y3775283D01*
X926736Y3612706D01*
X926734Y3612705D01*
X700720Y3491898D01*
X455480Y3417505D01*
X312129Y3403386D01*
X264346Y3398680D01*
X-263466Y3398680D01*
X-311249Y3403386D01*
X-454600Y3417505D01*
X-699840Y3491898D01*
X-925854Y3612705D01*
X-925856Y3612706D01*
X-1123957Y3775283D01*
X-1286534Y3973384D01*
X-1407341Y4199398D01*
X-1407342Y4199400D01*
X-1481735Y4444640D01*
X-1506854Y4699680D01*
X-1481735Y4954720D01*
X-1407342Y5199960D01*
X-1286535Y5425974D01*
X-1286534Y5425976D01*
X-1123957Y5624077D01*
X-925856Y5786654D01*
X-699842Y5907461D01*
X-699840Y5907462D01*
X-454600Y5981855D01*
X-311249Y5995974D01*
X-263466Y6000680D01*
X264346Y6000680D01*
X312129Y5995974D01*
X312129Y5995974D01*
G37*
G36*
X-37862164Y13734424D02*
X-37689094Y13662736D01*
X-37533330Y13558658D01*
X-37400872Y13426200D01*
X-37296794Y13270436D01*
X-37225106Y13097366D01*
X-37188560Y12913637D01*
X-37188560Y12726303D01*
X-37225106Y12542574D01*
X-37296794Y12369504D01*
X-37400872Y12213740D01*
X-37533330Y12081282D01*
X-37689094Y11977204D01*
X-37862164Y11905516D01*
X-38045893Y11868970D01*
X-38233227Y11868970D01*
X-38416956Y11905516D01*
X-38590026Y11977204D01*
X-38745790Y12081282D01*
X-38878248Y12213740D01*
X-38982326Y12369504D01*
X-39054014Y12542574D01*
X-39090560Y12726303D01*
X-39090560Y12913637D01*
X-39054014Y13097366D01*
X-38982326Y13270436D01*
X-38878248Y13426200D01*
X-38745790Y13558658D01*
X-38590026Y13662736D01*
X-38416956Y13734424D01*
X-38233227Y13770970D01*
X-38045893Y13770970D01*
X-37862164Y13734424D01*
X-37862164Y13734424D01*
G37*
G36*
X-22542164Y13734424D02*
X-22369094Y13662736D01*
X-22213330Y13558658D01*
X-22080872Y13426200D01*
X-21976794Y13270436D01*
X-21905106Y13097366D01*
X-21868560Y12913637D01*
X-21868560Y12726303D01*
X-21905106Y12542574D01*
X-21976794Y12369504D01*
X-22080872Y12213740D01*
X-22213330Y12081282D01*
X-22369094Y11977204D01*
X-22542164Y11905516D01*
X-22725893Y11868970D01*
X-22913227Y11868970D01*
X-23096956Y11905516D01*
X-23270026Y11977204D01*
X-23425790Y12081282D01*
X-23558248Y12213740D01*
X-23662326Y12369504D01*
X-23734014Y12542574D01*
X-23770560Y12726303D01*
X-23770560Y12913637D01*
X-23734014Y13097366D01*
X-23662326Y13270436D01*
X-23558248Y13426200D01*
X-23425790Y13558658D01*
X-23270026Y13662736D01*
X-23096956Y13734424D01*
X-22913227Y13770970D01*
X-22725893Y13770970D01*
X-22542164Y13734424D01*
X-22542164Y13734424D01*
G37*
G36*
X-17542164Y13734424D02*
X-17369094Y13662736D01*
X-17213330Y13558658D01*
X-17080872Y13426200D01*
X-16976794Y13270436D01*
X-16905106Y13097366D01*
X-16868560Y12913637D01*
X-16868560Y12726303D01*
X-16905106Y12542574D01*
X-16976794Y12369504D01*
X-17080872Y12213740D01*
X-17213330Y12081282D01*
X-17369094Y11977204D01*
X-17542164Y11905516D01*
X-17725893Y11868970D01*
X-17913227Y11868970D01*
X-18096956Y11905516D01*
X-18270026Y11977204D01*
X-18425790Y12081282D01*
X-18558248Y12213740D01*
X-18662326Y12369504D01*
X-18734014Y12542574D01*
X-18770560Y12726303D01*
X-18770560Y12913637D01*
X-18734014Y13097366D01*
X-18662326Y13270436D01*
X-18558248Y13426200D01*
X-18425790Y13558658D01*
X-18270026Y13662736D01*
X-18096956Y13734424D01*
X-17913227Y13770970D01*
X-17725893Y13770970D01*
X-17542164Y13734424D01*
X-17542164Y13734424D01*
G37*
G36*
X23097836Y13734424D02*
X23270906Y13662736D01*
X23426670Y13558658D01*
X23559128Y13426200D01*
X23663206Y13270436D01*
X23734894Y13097366D01*
X23771440Y12913637D01*
X23771440Y12726303D01*
X23734894Y12542574D01*
X23663206Y12369504D01*
X23559128Y12213740D01*
X23426670Y12081282D01*
X23270906Y11977204D01*
X23097836Y11905516D01*
X22914107Y11868970D01*
X22726773Y11868970D01*
X22543044Y11905516D01*
X22369974Y11977204D01*
X22214210Y12081282D01*
X22081752Y12213740D01*
X21977674Y12369504D01*
X21905986Y12542574D01*
X21869440Y12726303D01*
X21869440Y12913637D01*
X21905986Y13097366D01*
X21977674Y13270436D01*
X22081752Y13426200D01*
X22214210Y13558658D01*
X22369974Y13662736D01*
X22543044Y13734424D01*
X22726773Y13770970D01*
X22914107Y13770970D01*
X23097836Y13734424D01*
X23097836Y13734424D01*
G37*
G36*
X20637836Y13734424D02*
X20810906Y13662736D01*
X20966670Y13558658D01*
X21099128Y13426200D01*
X21203206Y13270436D01*
X21274894Y13097366D01*
X21311440Y12913637D01*
X21311440Y12726303D01*
X21274894Y12542574D01*
X21203206Y12369504D01*
X21099128Y12213740D01*
X20966670Y12081282D01*
X20810906Y11977204D01*
X20637836Y11905516D01*
X20454107Y11868970D01*
X20266773Y11868970D01*
X20083044Y11905516D01*
X19909974Y11977204D01*
X19754210Y12081282D01*
X19621752Y12213740D01*
X19517674Y12369504D01*
X19445986Y12542574D01*
X19409440Y12726303D01*
X19409440Y12913637D01*
X19445986Y13097366D01*
X19517674Y13270436D01*
X19621752Y13426200D01*
X19754210Y13558658D01*
X19909974Y13662736D01*
X20083044Y13734424D01*
X20266773Y13770970D01*
X20454107Y13770970D01*
X20637836Y13734424D01*
X20637836Y13734424D01*
G37*
G36*
X18097836Y13734424D02*
X18270906Y13662736D01*
X18426670Y13558658D01*
X18559128Y13426200D01*
X18663206Y13270436D01*
X18734894Y13097366D01*
X18771440Y12913637D01*
X18771440Y12726303D01*
X18734894Y12542574D01*
X18663206Y12369504D01*
X18559128Y12213740D01*
X18426670Y12081282D01*
X18270906Y11977204D01*
X18097836Y11905516D01*
X17914107Y11868970D01*
X17726773Y11868970D01*
X17543044Y11905516D01*
X17369974Y11977204D01*
X17214210Y12081282D01*
X17081752Y12213740D01*
X16977674Y12369504D01*
X16905986Y12542574D01*
X16869440Y12726303D01*
X16869440Y12913637D01*
X16905986Y13097366D01*
X16977674Y13270436D01*
X17081752Y13426200D01*
X17214210Y13558658D01*
X17369974Y13662736D01*
X17543044Y13734424D01*
X17726773Y13770970D01*
X17914107Y13770970D01*
X18097836Y13734424D01*
X18097836Y13734424D01*
G37*
G36*
X38417836Y13734424D02*
X38590906Y13662736D01*
X38746670Y13558658D01*
X38879128Y13426200D01*
X38983206Y13270436D01*
X39054894Y13097366D01*
X39091440Y12913637D01*
X39091440Y12726303D01*
X39054894Y12542574D01*
X38983206Y12369504D01*
X38879128Y12213740D01*
X38746670Y12081282D01*
X38590906Y11977204D01*
X38417836Y11905516D01*
X38234107Y11868970D01*
X38046773Y11868970D01*
X37863044Y11905516D01*
X37689974Y11977204D01*
X37534210Y12081282D01*
X37401752Y12213740D01*
X37297674Y12369504D01*
X37225986Y12542574D01*
X37189440Y12726303D01*
X37189440Y12913637D01*
X37225986Y13097366D01*
X37297674Y13270436D01*
X37401752Y13426200D01*
X37534210Y13558658D01*
X37689974Y13662736D01*
X37863044Y13734424D01*
X38046773Y13770970D01*
X38234107Y13770970D01*
X38417836Y13734424D01*
X38417836Y13734424D01*
G37*
G36*
X40957836Y13734424D02*
X41130906Y13662736D01*
X41286670Y13558658D01*
X41419128Y13426200D01*
X41523206Y13270436D01*
X41594894Y13097366D01*
X41631440Y12913637D01*
X41631440Y12726303D01*
X41594894Y12542574D01*
X41523206Y12369504D01*
X41419128Y12213740D01*
X41286670Y12081282D01*
X41130906Y11977204D01*
X40957836Y11905516D01*
X40774107Y11868970D01*
X40586773Y11868970D01*
X40403044Y11905516D01*
X40229974Y11977204D01*
X40074210Y12081282D01*
X39941752Y12213740D01*
X39837674Y12369504D01*
X39765986Y12542574D01*
X39729440Y12726303D01*
X39729440Y12913637D01*
X39765986Y13097366D01*
X39837674Y13270436D01*
X39941752Y13426200D01*
X40074210Y13558658D01*
X40229974Y13662736D01*
X40403044Y13734424D01*
X40586773Y13770970D01*
X40774107Y13770970D01*
X40957836Y13734424D01*
X40957836Y13734424D01*
G37*
G36*
X43417836Y13734424D02*
X43590906Y13662736D01*
X43746670Y13558658D01*
X43879128Y13426200D01*
X43983206Y13270436D01*
X44054894Y13097366D01*
X44091440Y12913637D01*
X44091440Y12726303D01*
X44054894Y12542574D01*
X43983206Y12369504D01*
X43879128Y12213740D01*
X43746670Y12081282D01*
X43590906Y11977204D01*
X43417836Y11905516D01*
X43234107Y11868970D01*
X43046773Y11868970D01*
X42863044Y11905516D01*
X42689974Y11977204D01*
X42534210Y12081282D01*
X42401752Y12213740D01*
X42297674Y12369504D01*
X42225986Y12542574D01*
X42189440Y12726303D01*
X42189440Y12913637D01*
X42225986Y13097366D01*
X42297674Y13270436D01*
X42401752Y13426200D01*
X42534210Y13558658D01*
X42689974Y13662736D01*
X42863044Y13734424D01*
X43046773Y13770970D01*
X43234107Y13770970D01*
X43417836Y13734424D01*
X43417836Y13734424D01*
G37*
G36*
X-40322164Y13734424D02*
X-40149094Y13662736D01*
X-39993330Y13558658D01*
X-39860872Y13426200D01*
X-39756794Y13270436D01*
X-39685106Y13097366D01*
X-39648560Y12913637D01*
X-39648560Y12726303D01*
X-39685106Y12542574D01*
X-39756794Y12369504D01*
X-39860872Y12213740D01*
X-39993330Y12081282D01*
X-40149094Y11977204D01*
X-40322164Y11905516D01*
X-40505893Y11868970D01*
X-40693227Y11868970D01*
X-40876956Y11905516D01*
X-41050026Y11977204D01*
X-41205790Y12081282D01*
X-41338248Y12213740D01*
X-41442326Y12369504D01*
X-41514014Y12542574D01*
X-41550560Y12726303D01*
X-41550560Y12913637D01*
X-41514014Y13097366D01*
X-41442326Y13270436D01*
X-41338248Y13426200D01*
X-41205790Y13558658D01*
X-41050026Y13662736D01*
X-40876956Y13734424D01*
X-40693227Y13770970D01*
X-40505893Y13770970D01*
X-40322164Y13734424D01*
X-40322164Y13734424D01*
G37*
G36*
X-42862164Y13734424D02*
X-42689094Y13662736D01*
X-42533330Y13558658D01*
X-42400872Y13426200D01*
X-42296794Y13270436D01*
X-42225106Y13097366D01*
X-42188560Y12913637D01*
X-42188560Y12726303D01*
X-42225106Y12542574D01*
X-42296794Y12369504D01*
X-42400872Y12213740D01*
X-42533330Y12081282D01*
X-42689094Y11977204D01*
X-42862164Y11905516D01*
X-43045893Y11868970D01*
X-43233227Y11868970D01*
X-43416956Y11905516D01*
X-43590026Y11977204D01*
X-43745790Y12081282D01*
X-43878248Y12213740D01*
X-43982326Y12369504D01*
X-44054014Y12542574D01*
X-44090560Y12726303D01*
X-44090560Y12913637D01*
X-44054014Y13097366D01*
X-43982326Y13270436D01*
X-43878248Y13426200D01*
X-43745790Y13558658D01*
X-43590026Y13662736D01*
X-43416956Y13734424D01*
X-43233227Y13770970D01*
X-43045893Y13770970D01*
X-42862164Y13734424D01*
X-42862164Y13734424D01*
G37*
G36*
X-20002164Y13734424D02*
X-19829094Y13662736D01*
X-19673330Y13558658D01*
X-19540872Y13426200D01*
X-19436794Y13270436D01*
X-19365106Y13097366D01*
X-19328560Y12913637D01*
X-19328560Y12726303D01*
X-19365106Y12542574D01*
X-19436794Y12369504D01*
X-19540872Y12213740D01*
X-19673330Y12081282D01*
X-19829094Y11977204D01*
X-20002164Y11905516D01*
X-20185893Y11868970D01*
X-20373227Y11868970D01*
X-20556956Y11905516D01*
X-20730026Y11977204D01*
X-20885790Y12081282D01*
X-21018248Y12213740D01*
X-21122326Y12369504D01*
X-21194014Y12542574D01*
X-21230560Y12726303D01*
X-21230560Y12913637D01*
X-21194014Y13097366D01*
X-21122326Y13270436D01*
X-21018248Y13426200D01*
X-20885790Y13558658D01*
X-20730026Y13662736D01*
X-20556956Y13734424D01*
X-20373227Y13770970D01*
X-20185893Y13770970D01*
X-20002164Y13734424D01*
X-20002164Y13734424D01*
G37*
G36*
X-4444521Y21802155D02*
X-4199281Y21727762D01*
X-4199279Y21727761D01*
X-3973265Y21606954D01*
X-3775164Y21444377D01*
X-3729314Y21388508D01*
X-3612585Y21246274D01*
X-3491778Y21020260D01*
X-3417385Y20775020D01*
X-3398560Y20583885D01*
X-3398560Y20056076D01*
X-3417385Y19864941D01*
X-3474268Y19677425D01*
X-3491780Y19619696D01*
X-3612584Y19393686D01*
X-3775163Y19195583D01*
X-3973264Y19033006D01*
X-3973266Y19033005D01*
X-4199280Y18912198D01*
X-4444520Y18837805D01*
X-4699560Y18812686D01*
X-4954599Y18837805D01*
X-5199839Y18912198D01*
X-5425853Y19033005D01*
X-5425855Y19033006D01*
X-5623956Y19195583D01*
X-5786534Y19393685D01*
X-5844516Y19502162D01*
X-5907342Y19619700D01*
X-5981735Y19864940D01*
X-6000560Y20056075D01*
X-6000560Y20583884D01*
X-5981735Y20775019D01*
X-5907342Y21020259D01*
X-5786535Y21246273D01*
X-5786534Y21246275D01*
X-5623957Y21444376D01*
X-5425855Y21606954D01*
X-5425856Y21606954D01*
X-5425854Y21606955D01*
X-5199840Y21727762D01*
X-4954600Y21802155D01*
X-4699560Y21827274D01*
X-4444521Y21802155D01*
X-4444521Y21802155D01*
G37*
G36*
X255479Y21802155D02*
X500719Y21727762D01*
X500721Y21727761D01*
X726735Y21606954D01*
X924836Y21444377D01*
X970686Y21388508D01*
X1087415Y21246274D01*
X1208222Y21020260D01*
X1282615Y20775020D01*
X1301440Y20583885D01*
X1301440Y20056076D01*
X1282615Y19864941D01*
X1225732Y19677425D01*
X1208220Y19619696D01*
X1087416Y19393686D01*
X924837Y19195583D01*
X726736Y19033006D01*
X726734Y19033005D01*
X500720Y18912198D01*
X255480Y18837805D01*
X440Y18812686D01*
X-254599Y18837805D01*
X-499839Y18912198D01*
X-725853Y19033005D01*
X-725855Y19033006D01*
X-923956Y19195583D01*
X-1086534Y19393685D01*
X-1144516Y19502162D01*
X-1207342Y19619700D01*
X-1281735Y19864940D01*
X-1300560Y20056075D01*
X-1300560Y20583884D01*
X-1281735Y20775019D01*
X-1207342Y21020259D01*
X-1086535Y21246273D01*
X-1086534Y21246275D01*
X-923957Y21444376D01*
X-725855Y21606954D01*
X-725856Y21606954D01*
X-725854Y21606955D01*
X-499840Y21727762D01*
X-254600Y21802155D01*
X440Y21827274D01*
X255479Y21802155D01*
X255479Y21802155D01*
G37*
G36*
X4955479Y21802155D02*
X5200719Y21727762D01*
X5200721Y21727761D01*
X5426735Y21606954D01*
X5624836Y21444377D01*
X5670686Y21388508D01*
X5787415Y21246274D01*
X5908222Y21020260D01*
X5982615Y20775020D01*
X6001440Y20583885D01*
X6001440Y20056076D01*
X5982615Y19864941D01*
X5925732Y19677425D01*
X5908220Y19619696D01*
X5787416Y19393686D01*
X5624837Y19195583D01*
X5426736Y19033006D01*
X5426734Y19033005D01*
X5200720Y18912198D01*
X4955480Y18837805D01*
X4700440Y18812686D01*
X4445401Y18837805D01*
X4200161Y18912198D01*
X3974147Y19033005D01*
X3974145Y19033006D01*
X3776044Y19195583D01*
X3613466Y19393685D01*
X3555484Y19502162D01*
X3492658Y19619700D01*
X3418265Y19864940D01*
X3399440Y20056075D01*
X3399440Y20583884D01*
X3418265Y20775019D01*
X3492658Y21020259D01*
X3613465Y21246273D01*
X3613466Y21246275D01*
X3776043Y21444376D01*
X3974145Y21606954D01*
X3974144Y21606954D01*
X3974146Y21606955D01*
X4200160Y21727762D01*
X4445400Y21802155D01*
X4700440Y21827274D01*
X4955479Y21802155D01*
X4955479Y21802155D01*
G37*
G36*
X25644620Y21464318D02*
X25746075Y21454326D01*
X25963040Y21388510D01*
X25963042Y21388509D01*
X25963045Y21388508D01*
X26162996Y21281633D01*
X26338258Y21137798D01*
X26482093Y20962536D01*
X26588968Y20762585D01*
X26588969Y20762582D01*
X26588970Y20762580D01*
X26654786Y20545615D01*
X26677009Y20319980D01*
X26654786Y20094345D01*
X26588970Y19877380D01*
X26588968Y19877375D01*
X26482093Y19677424D01*
X26338258Y19502162D01*
X26162996Y19358327D01*
X25963045Y19251452D01*
X25963042Y19251451D01*
X25963040Y19251450D01*
X25746075Y19185634D01*
X25644620Y19175642D01*
X25576985Y19168980D01*
X24663895Y19168980D01*
X24596260Y19175642D01*
X24494805Y19185634D01*
X24277840Y19251450D01*
X24277838Y19251451D01*
X24277835Y19251452D01*
X24077884Y19358327D01*
X23902622Y19502162D01*
X23758787Y19677424D01*
X23651912Y19877375D01*
X23651910Y19877380D01*
X23586094Y20094345D01*
X23563871Y20319980D01*
X23586094Y20545615D01*
X23651910Y20762580D01*
X23651911Y20762582D01*
X23651912Y20762585D01*
X23758787Y20962536D01*
X23902622Y21137798D01*
X24077884Y21281633D01*
X24277835Y21388508D01*
X24277838Y21388509D01*
X24277840Y21388510D01*
X24494805Y21454326D01*
X24596260Y21464318D01*
X24663895Y21470980D01*
X25576985Y21470980D01*
X25644620Y21464318D01*
X25644620Y21464318D01*
G37*
G36*
X45964620Y21464318D02*
X46066075Y21454326D01*
X46283040Y21388510D01*
X46283042Y21388509D01*
X46283045Y21388508D01*
X46482996Y21281633D01*
X46658258Y21137798D01*
X46802093Y20962536D01*
X46908968Y20762585D01*
X46908969Y20762582D01*
X46908970Y20762580D01*
X46974786Y20545615D01*
X46997009Y20319980D01*
X46974786Y20094345D01*
X46908970Y19877380D01*
X46908968Y19877375D01*
X46802093Y19677424D01*
X46658258Y19502162D01*
X46482996Y19358327D01*
X46283045Y19251452D01*
X46283042Y19251451D01*
X46283040Y19251450D01*
X46066075Y19185634D01*
X45964620Y19175642D01*
X45896985Y19168980D01*
X44983895Y19168980D01*
X44916260Y19175642D01*
X44814805Y19185634D01*
X44597840Y19251450D01*
X44597838Y19251451D01*
X44597835Y19251452D01*
X44397884Y19358327D01*
X44222622Y19502162D01*
X44078787Y19677424D01*
X43971912Y19877375D01*
X43971910Y19877380D01*
X43906094Y20094345D01*
X43883871Y20319980D01*
X43906094Y20545615D01*
X43971910Y20762580D01*
X43971911Y20762582D01*
X43971912Y20762585D01*
X44078787Y20962536D01*
X44222622Y21137798D01*
X44397884Y21281633D01*
X44597835Y21388508D01*
X44597838Y21388509D01*
X44597840Y21388510D01*
X44814805Y21454326D01*
X44916260Y21464318D01*
X44983895Y21470980D01*
X45896985Y21470980D01*
X45964620Y21464318D01*
X45964620Y21464318D01*
G37*
G36*
X16044620Y21464318D02*
X16146075Y21454326D01*
X16363040Y21388510D01*
X16363042Y21388509D01*
X16363045Y21388508D01*
X16562996Y21281633D01*
X16738258Y21137798D01*
X16882093Y20962536D01*
X16988968Y20762585D01*
X16988969Y20762582D01*
X16988970Y20762580D01*
X17054786Y20545615D01*
X17077009Y20319980D01*
X17054786Y20094345D01*
X16988970Y19877380D01*
X16988968Y19877375D01*
X16882093Y19677424D01*
X16738258Y19502162D01*
X16562996Y19358327D01*
X16363045Y19251452D01*
X16363042Y19251451D01*
X16363040Y19251450D01*
X16146075Y19185634D01*
X16044620Y19175642D01*
X15976985Y19168980D01*
X15063895Y19168980D01*
X14996260Y19175642D01*
X14894805Y19185634D01*
X14677840Y19251450D01*
X14677838Y19251451D01*
X14677835Y19251452D01*
X14477884Y19358327D01*
X14302622Y19502162D01*
X14158787Y19677424D01*
X14051912Y19877375D01*
X14051910Y19877380D01*
X13986094Y20094345D01*
X13963871Y20319980D01*
X13986094Y20545615D01*
X14051910Y20762580D01*
X14051911Y20762582D01*
X14051912Y20762585D01*
X14158787Y20962536D01*
X14302622Y21137798D01*
X14477884Y21281633D01*
X14677835Y21388508D01*
X14677838Y21388509D01*
X14677840Y21388510D01*
X14894805Y21454326D01*
X14996260Y21464318D01*
X15063895Y21470980D01*
X15976985Y21470980D01*
X16044620Y21464318D01*
X16044620Y21464318D01*
G37*
G36*
X-24595380Y21464318D02*
X-24493925Y21454326D01*
X-24276960Y21388510D01*
X-24276958Y21388509D01*
X-24276955Y21388508D01*
X-24077004Y21281633D01*
X-23901742Y21137798D01*
X-23757907Y20962536D01*
X-23651032Y20762585D01*
X-23651031Y20762582D01*
X-23651030Y20762580D01*
X-23585214Y20545615D01*
X-23562991Y20319980D01*
X-23585214Y20094345D01*
X-23651030Y19877380D01*
X-23651032Y19877375D01*
X-23757907Y19677424D01*
X-23901742Y19502162D01*
X-24077004Y19358327D01*
X-24276955Y19251452D01*
X-24276958Y19251451D01*
X-24276960Y19251450D01*
X-24493925Y19185634D01*
X-24595380Y19175642D01*
X-24663015Y19168980D01*
X-25576105Y19168980D01*
X-25643740Y19175642D01*
X-25745195Y19185634D01*
X-25962160Y19251450D01*
X-25962162Y19251451D01*
X-25962165Y19251452D01*
X-26162116Y19358327D01*
X-26337378Y19502162D01*
X-26481213Y19677424D01*
X-26588088Y19877375D01*
X-26588090Y19877380D01*
X-26653906Y20094345D01*
X-26676129Y20319980D01*
X-26653906Y20545615D01*
X-26588090Y20762580D01*
X-26588089Y20762582D01*
X-26588088Y20762585D01*
X-26481213Y20962536D01*
X-26337378Y21137798D01*
X-26162116Y21281633D01*
X-25962165Y21388508D01*
X-25962162Y21388509D01*
X-25962160Y21388510D01*
X-25745195Y21454326D01*
X-25643740Y21464318D01*
X-25576105Y21470980D01*
X-24663015Y21470980D01*
X-24595380Y21464318D01*
X-24595380Y21464318D01*
G37*
G36*
X-35315380Y21464318D02*
X-35213925Y21454326D01*
X-34996960Y21388510D01*
X-34996958Y21388509D01*
X-34996955Y21388508D01*
X-34797004Y21281633D01*
X-34621742Y21137798D01*
X-34477907Y20962536D01*
X-34371032Y20762585D01*
X-34371031Y20762582D01*
X-34371030Y20762580D01*
X-34305214Y20545615D01*
X-34282991Y20319980D01*
X-34305214Y20094345D01*
X-34371030Y19877380D01*
X-34371032Y19877375D01*
X-34477907Y19677424D01*
X-34621742Y19502162D01*
X-34797004Y19358327D01*
X-34996955Y19251452D01*
X-34996958Y19251451D01*
X-34996960Y19251450D01*
X-35213925Y19185634D01*
X-35315380Y19175642D01*
X-35383015Y19168980D01*
X-36296105Y19168980D01*
X-36363740Y19175642D01*
X-36465195Y19185634D01*
X-36682160Y19251450D01*
X-36682162Y19251451D01*
X-36682165Y19251452D01*
X-36882116Y19358327D01*
X-37057378Y19502162D01*
X-37201213Y19677424D01*
X-37308088Y19877375D01*
X-37308090Y19877380D01*
X-37373906Y20094345D01*
X-37396129Y20319980D01*
X-37373906Y20545615D01*
X-37308090Y20762580D01*
X-37308089Y20762582D01*
X-37308088Y20762585D01*
X-37201213Y20962536D01*
X-37057378Y21137798D01*
X-36882116Y21281633D01*
X-36682165Y21388508D01*
X-36682162Y21388509D01*
X-36682160Y21388510D01*
X-36465195Y21454326D01*
X-36363740Y21464318D01*
X-36296105Y21470980D01*
X-35383015Y21470980D01*
X-35315380Y21464318D01*
X-35315380Y21464318D01*
G37*
G36*
X36364620Y21464318D02*
X36466075Y21454326D01*
X36683040Y21388510D01*
X36683042Y21388509D01*
X36683045Y21388508D01*
X36882996Y21281633D01*
X37058258Y21137798D01*
X37202093Y20962536D01*
X37308968Y20762585D01*
X37308969Y20762582D01*
X37308970Y20762580D01*
X37374786Y20545615D01*
X37397009Y20319980D01*
X37374786Y20094345D01*
X37308970Y19877380D01*
X37308968Y19877375D01*
X37202093Y19677424D01*
X37058258Y19502162D01*
X36882996Y19358327D01*
X36683045Y19251452D01*
X36683042Y19251451D01*
X36683040Y19251450D01*
X36466075Y19185634D01*
X36364620Y19175642D01*
X36296985Y19168980D01*
X35383895Y19168980D01*
X35316260Y19175642D01*
X35214805Y19185634D01*
X34997840Y19251450D01*
X34997838Y19251451D01*
X34997835Y19251452D01*
X34797884Y19358327D01*
X34622622Y19502162D01*
X34478787Y19677424D01*
X34371912Y19877375D01*
X34371910Y19877380D01*
X34306094Y20094345D01*
X34283871Y20319980D01*
X34306094Y20545615D01*
X34371910Y20762580D01*
X34371911Y20762582D01*
X34371912Y20762585D01*
X34478787Y20962536D01*
X34622622Y21137798D01*
X34797884Y21281633D01*
X34997835Y21388508D01*
X34997838Y21388509D01*
X34997840Y21388510D01*
X35214805Y21454326D01*
X35316260Y21464318D01*
X35383895Y21470980D01*
X36296985Y21470980D01*
X36364620Y21464318D01*
X36364620Y21464318D01*
G37*
G36*
X-14995380Y21464318D02*
X-14893925Y21454326D01*
X-14676960Y21388510D01*
X-14676958Y21388509D01*
X-14676955Y21388508D01*
X-14477004Y21281633D01*
X-14301742Y21137798D01*
X-14157907Y20962536D01*
X-14051032Y20762585D01*
X-14051031Y20762582D01*
X-14051030Y20762580D01*
X-13985214Y20545615D01*
X-13962991Y20319980D01*
X-13985214Y20094345D01*
X-14051030Y19877380D01*
X-14051032Y19877375D01*
X-14157907Y19677424D01*
X-14301742Y19502162D01*
X-14477004Y19358327D01*
X-14676955Y19251452D01*
X-14676958Y19251451D01*
X-14676960Y19251450D01*
X-14893925Y19185634D01*
X-14995380Y19175642D01*
X-15063015Y19168980D01*
X-15976105Y19168980D01*
X-16043740Y19175642D01*
X-16145195Y19185634D01*
X-16362160Y19251450D01*
X-16362162Y19251451D01*
X-16362165Y19251452D01*
X-16562116Y19358327D01*
X-16737378Y19502162D01*
X-16881213Y19677424D01*
X-16988088Y19877375D01*
X-16988090Y19877380D01*
X-17053906Y20094345D01*
X-17076129Y20319980D01*
X-17053906Y20545615D01*
X-16988090Y20762580D01*
X-16988089Y20762582D01*
X-16988088Y20762585D01*
X-16881213Y20962536D01*
X-16737378Y21137798D01*
X-16562116Y21281633D01*
X-16362165Y21388508D01*
X-16362162Y21388509D01*
X-16362160Y21388510D01*
X-16145195Y21454326D01*
X-16043740Y21464318D01*
X-15976105Y21470980D01*
X-15063015Y21470980D01*
X-14995380Y21464318D01*
X-14995380Y21464318D01*
G37*
G36*
X-44915380Y21464318D02*
X-44813925Y21454326D01*
X-44596960Y21388510D01*
X-44596958Y21388509D01*
X-44596955Y21388508D01*
X-44397004Y21281633D01*
X-44221742Y21137798D01*
X-44077907Y20962536D01*
X-43971032Y20762585D01*
X-43971031Y20762582D01*
X-43971030Y20762580D01*
X-43905214Y20545615D01*
X-43882991Y20319980D01*
X-43905214Y20094345D01*
X-43971030Y19877380D01*
X-43971032Y19877375D01*
X-44077907Y19677424D01*
X-44221742Y19502162D01*
X-44397004Y19358327D01*
X-44596955Y19251452D01*
X-44596958Y19251451D01*
X-44596960Y19251450D01*
X-44813925Y19185634D01*
X-44915380Y19175642D01*
X-44983015Y19168980D01*
X-45896105Y19168980D01*
X-45963740Y19175642D01*
X-46065195Y19185634D01*
X-46282160Y19251450D01*
X-46282162Y19251451D01*
X-46282165Y19251452D01*
X-46482116Y19358327D01*
X-46657378Y19502162D01*
X-46801213Y19677424D01*
X-46908088Y19877375D01*
X-46908090Y19877380D01*
X-46973906Y20094345D01*
X-46996129Y20319980D01*
X-46973906Y20545615D01*
X-46908090Y20762580D01*
X-46908089Y20762582D01*
X-46908088Y20762585D01*
X-46801213Y20962536D01*
X-46657378Y21137798D01*
X-46482116Y21281633D01*
X-46282165Y21388508D01*
X-46282162Y21388509D01*
X-46282160Y21388510D01*
X-46065195Y21454326D01*
X-45963740Y21464318D01*
X-45896105Y21470980D01*
X-44983015Y21470980D01*
X-44915380Y21464318D01*
X-44915380Y21464318D01*
G37*
G36*
X-29099117Y35946461D02*
X-29032933Y35939943D01*
X-28919707Y35905596D01*
X-28863093Y35888423D01*
X-28724473Y35814328D01*
X-28706569Y35804758D01*
X-28670831Y35775428D01*
X-28569374Y35692166D01*
X-28486112Y35590709D01*
X-28456782Y35554971D01*
X-28456781Y35554969D01*
X-28373117Y35398447D01*
X-28373117Y35398446D01*
X-28321597Y35228607D01*
X-28304201Y35051980D01*
X-28321597Y34875353D01*
X-28355944Y34762127D01*
X-28373117Y34705513D01*
X-28398618Y34657805D01*
X-28456782Y34548989D01*
X-28486112Y34513251D01*
X-28569374Y34411794D01*
X-28670831Y34328532D01*
X-28706569Y34299202D01*
X-28706571Y34299201D01*
X-28863093Y34215537D01*
X-28919707Y34198364D01*
X-29032933Y34164017D01*
X-29099117Y34157499D01*
X-29165300Y34150980D01*
X-29253820Y34150980D01*
X-29320003Y34157499D01*
X-29386187Y34164017D01*
X-29499413Y34198364D01*
X-29556027Y34215537D01*
X-29712549Y34299201D01*
X-29712551Y34299202D01*
X-29748289Y34328532D01*
X-29849746Y34411794D01*
X-29933008Y34513251D01*
X-29962338Y34548989D01*
X-30020502Y34657805D01*
X-30046003Y34705513D01*
X-30063176Y34762127D01*
X-30097523Y34875353D01*
X-30114919Y35051980D01*
X-30097523Y35228607D01*
X-30046003Y35398446D01*
X-30046003Y35398447D01*
X-29962339Y35554969D01*
X-29962338Y35554971D01*
X-29933008Y35590709D01*
X-29849746Y35692166D01*
X-29748289Y35775428D01*
X-29712551Y35804758D01*
X-29694647Y35814328D01*
X-29556027Y35888423D01*
X-29499413Y35905596D01*
X-29386187Y35939943D01*
X-29320003Y35946461D01*
X-29253820Y35952980D01*
X-29165300Y35952980D01*
X-29099117Y35946461D01*
X-29099117Y35946461D01*
G37*
G36*
X-30848560Y34150980D02*
X-32650560Y34150980D01*
X-32650560Y35952980D01*
X-30848560Y35952980D01*
X-30848560Y34150980D01*
X-30848560Y34150980D01*
G37*
G36*
X40952129Y37236274D02*
X41095480Y37222155D01*
X41340720Y37147762D01*
X41340722Y37147761D01*
X41566736Y37026954D01*
X41764837Y36864377D01*
X41927414Y36666276D01*
X41927415Y36666274D01*
X42048222Y36440260D01*
X42122615Y36195020D01*
X42147734Y35939980D01*
X42122615Y35684940D01*
X42056659Y35467514D01*
X42048221Y35439698D01*
X41927414Y35213684D01*
X41764837Y35015583D01*
X41566736Y34853006D01*
X41566734Y34853005D01*
X41340720Y34732198D01*
X41095480Y34657805D01*
X40952129Y34643686D01*
X40904346Y34638980D01*
X40376534Y34638980D01*
X40328751Y34643686D01*
X40185400Y34657805D01*
X39940160Y34732198D01*
X39714146Y34853005D01*
X39714144Y34853006D01*
X39516043Y35015583D01*
X39353466Y35213684D01*
X39232659Y35439698D01*
X39224221Y35467514D01*
X39158265Y35684940D01*
X39133146Y35939980D01*
X39158265Y36195020D01*
X39232658Y36440260D01*
X39353465Y36666274D01*
X39353466Y36666276D01*
X39516043Y36864377D01*
X39714144Y37026954D01*
X39940158Y37147761D01*
X39940160Y37147762D01*
X40185400Y37222155D01*
X40328751Y37236274D01*
X40376534Y37240980D01*
X40904346Y37240980D01*
X40952129Y37236274D01*
X40952129Y37236274D01*
G37*
G36*
X20632129Y37236274D02*
X20775480Y37222155D01*
X21020720Y37147762D01*
X21020722Y37147761D01*
X21246736Y37026954D01*
X21444837Y36864377D01*
X21607414Y36666276D01*
X21607415Y36666274D01*
X21728222Y36440260D01*
X21802615Y36195020D01*
X21827734Y35939980D01*
X21802615Y35684940D01*
X21736659Y35467514D01*
X21728221Y35439698D01*
X21607414Y35213684D01*
X21444837Y35015583D01*
X21246736Y34853006D01*
X21246734Y34853005D01*
X21020720Y34732198D01*
X20775480Y34657805D01*
X20632129Y34643686D01*
X20584346Y34638980D01*
X20056534Y34638980D01*
X20008751Y34643686D01*
X19865400Y34657805D01*
X19620160Y34732198D01*
X19394146Y34853005D01*
X19394144Y34853006D01*
X19196043Y35015583D01*
X19033466Y35213684D01*
X18912659Y35439698D01*
X18904221Y35467514D01*
X18838265Y35684940D01*
X18813146Y35939980D01*
X18838265Y36195020D01*
X18912658Y36440260D01*
X19033465Y36666274D01*
X19033466Y36666276D01*
X19196043Y36864377D01*
X19394144Y37026954D01*
X19620158Y37147761D01*
X19620160Y37147762D01*
X19865400Y37222155D01*
X20008751Y37236274D01*
X20056534Y37240980D01*
X20584346Y37240980D01*
X20632129Y37236274D01*
X20632129Y37236274D01*
G37*
G36*
X-20007871Y37236274D02*
X-19864520Y37222155D01*
X-19619280Y37147762D01*
X-19619278Y37147761D01*
X-19393264Y37026954D01*
X-19195163Y36864377D01*
X-19032586Y36666276D01*
X-19032585Y36666274D01*
X-18911778Y36440260D01*
X-18837385Y36195020D01*
X-18812266Y35939980D01*
X-18837385Y35684940D01*
X-18903341Y35467514D01*
X-18911779Y35439698D01*
X-19032586Y35213684D01*
X-19195163Y35015583D01*
X-19393264Y34853006D01*
X-19393266Y34853005D01*
X-19619280Y34732198D01*
X-19864520Y34657805D01*
X-20007871Y34643686D01*
X-20055654Y34638980D01*
X-20583466Y34638980D01*
X-20631249Y34643686D01*
X-20774600Y34657805D01*
X-21019840Y34732198D01*
X-21245854Y34853005D01*
X-21245856Y34853006D01*
X-21443957Y35015583D01*
X-21606534Y35213684D01*
X-21727341Y35439698D01*
X-21735779Y35467514D01*
X-21801735Y35684940D01*
X-21826854Y35939980D01*
X-21801735Y36195020D01*
X-21727342Y36440260D01*
X-21606535Y36666274D01*
X-21606534Y36666276D01*
X-21443957Y36864377D01*
X-21245856Y37026954D01*
X-21019842Y37147761D01*
X-21019840Y37147762D01*
X-20774600Y37222155D01*
X-20631249Y37236274D01*
X-20583466Y37240980D01*
X-20055654Y37240980D01*
X-20007871Y37236274D01*
X-20007871Y37236274D01*
G37*
G36*
X-40327871Y37236274D02*
X-40184520Y37222155D01*
X-39939280Y37147762D01*
X-39939278Y37147761D01*
X-39713264Y37026954D01*
X-39515163Y36864377D01*
X-39352586Y36666276D01*
X-39352585Y36666274D01*
X-39231778Y36440260D01*
X-39157385Y36195020D01*
X-39132266Y35939980D01*
X-39157385Y35684940D01*
X-39223341Y35467514D01*
X-39231779Y35439698D01*
X-39352586Y35213684D01*
X-39515163Y35015583D01*
X-39713264Y34853006D01*
X-39713266Y34853005D01*
X-39939280Y34732198D01*
X-40184520Y34657805D01*
X-40327871Y34643686D01*
X-40375654Y34638980D01*
X-40903466Y34638980D01*
X-40951249Y34643686D01*
X-41094600Y34657805D01*
X-41339840Y34732198D01*
X-41565854Y34853005D01*
X-41565856Y34853006D01*
X-41763957Y35015583D01*
X-41926534Y35213684D01*
X-42047341Y35439698D01*
X-42055779Y35467514D01*
X-42121735Y35684940D01*
X-42146854Y35939980D01*
X-42121735Y36195020D01*
X-42047342Y36440260D01*
X-41926535Y36666274D01*
X-41926534Y36666276D01*
X-41763957Y36864377D01*
X-41565856Y37026954D01*
X-41339842Y37147761D01*
X-41339840Y37147762D01*
X-41094600Y37222155D01*
X-40951249Y37236274D01*
X-40903466Y37240980D01*
X-40375654Y37240980D01*
X-40327871Y37236274D01*
X-40327871Y37236274D01*
G37*
G36*
X30111440Y34912980D02*
X28309440Y34912980D01*
X28309440Y36714980D01*
X30111440Y36714980D01*
X30111440Y34912980D01*
X30111440Y34912980D01*
G37*
G36*
X31860882Y36708462D02*
X31927067Y36701943D01*
X32040293Y36667596D01*
X32096907Y36650423D01*
X32235527Y36576328D01*
X32253431Y36566758D01*
X32289169Y36537428D01*
X32390626Y36454166D01*
X32473888Y36352709D01*
X32503218Y36316971D01*
X32503219Y36316969D01*
X32586883Y36160447D01*
X32586883Y36160446D01*
X32638403Y35990607D01*
X32655799Y35813980D01*
X32638403Y35637353D01*
X32613413Y35554971D01*
X32586883Y35467513D01*
X32572016Y35439700D01*
X32503218Y35310989D01*
X32473888Y35275251D01*
X32390626Y35173794D01*
X32289169Y35090532D01*
X32253431Y35061202D01*
X32253429Y35061201D01*
X32096907Y34977537D01*
X32040293Y34960364D01*
X31927067Y34926017D01*
X31860883Y34919499D01*
X31794700Y34912980D01*
X31706180Y34912980D01*
X31639997Y34919499D01*
X31573813Y34926017D01*
X31460587Y34960364D01*
X31403973Y34977537D01*
X31247451Y35061201D01*
X31247449Y35061202D01*
X31211711Y35090532D01*
X31110254Y35173794D01*
X31026992Y35275251D01*
X30997662Y35310989D01*
X30928864Y35439700D01*
X30913997Y35467513D01*
X30887467Y35554971D01*
X30862477Y35637353D01*
X30845081Y35813980D01*
X30862477Y35990607D01*
X30913997Y36160446D01*
X30913997Y36160447D01*
X30997661Y36316969D01*
X30997662Y36316971D01*
X31026992Y36352709D01*
X31110254Y36454166D01*
X31211711Y36537428D01*
X31247449Y36566758D01*
X31265353Y36576328D01*
X31403973Y36650423D01*
X31460587Y36667596D01*
X31573813Y36701943D01*
X31639998Y36708462D01*
X31706180Y36714980D01*
X31794700Y36714980D01*
X31860882Y36708462D01*
X31860882Y36708462D01*
G37*
G36*
X-29099117Y38486461D02*
X-29032933Y38479943D01*
X-28919707Y38445596D01*
X-28863093Y38428423D01*
X-28724473Y38354328D01*
X-28706569Y38344758D01*
X-28670831Y38315428D01*
X-28569374Y38232166D01*
X-28486112Y38130709D01*
X-28456782Y38094971D01*
X-28456781Y38094969D01*
X-28373117Y37938447D01*
X-28373117Y37938446D01*
X-28321597Y37768607D01*
X-28304201Y37591980D01*
X-28321597Y37415353D01*
X-28355944Y37302127D01*
X-28373117Y37245513D01*
X-28425367Y37147762D01*
X-28456782Y37088989D01*
X-28486112Y37053251D01*
X-28569374Y36951794D01*
X-28670831Y36868532D01*
X-28706569Y36839202D01*
X-28706571Y36839201D01*
X-28863093Y36755537D01*
X-28919707Y36738364D01*
X-29032933Y36704017D01*
X-29099118Y36697498D01*
X-29165300Y36690980D01*
X-29253820Y36690980D01*
X-29320002Y36697498D01*
X-29386187Y36704017D01*
X-29499413Y36738364D01*
X-29556027Y36755537D01*
X-29712549Y36839201D01*
X-29712551Y36839202D01*
X-29748289Y36868532D01*
X-29849746Y36951794D01*
X-29933008Y37053251D01*
X-29962338Y37088989D01*
X-29993753Y37147762D01*
X-30046003Y37245513D01*
X-30063176Y37302127D01*
X-30097523Y37415353D01*
X-30114919Y37591980D01*
X-30097523Y37768607D01*
X-30046003Y37938446D01*
X-30046003Y37938447D01*
X-29962339Y38094969D01*
X-29962338Y38094971D01*
X-29933008Y38130709D01*
X-29849746Y38232166D01*
X-29748289Y38315428D01*
X-29712551Y38344758D01*
X-29694647Y38354328D01*
X-29556027Y38428423D01*
X-29499413Y38445596D01*
X-29386187Y38479943D01*
X-29320003Y38486461D01*
X-29253820Y38492980D01*
X-29165300Y38492980D01*
X-29099117Y38486461D01*
X-29099117Y38486461D01*
G37*
G36*
X-31639117Y38486461D02*
X-31572933Y38479943D01*
X-31459707Y38445596D01*
X-31403093Y38428423D01*
X-31264473Y38354328D01*
X-31246569Y38344758D01*
X-31210831Y38315428D01*
X-31109374Y38232166D01*
X-31026112Y38130709D01*
X-30996782Y38094971D01*
X-30996781Y38094969D01*
X-30913117Y37938447D01*
X-30913117Y37938446D01*
X-30861597Y37768607D01*
X-30844201Y37591980D01*
X-30861597Y37415353D01*
X-30895944Y37302127D01*
X-30913117Y37245513D01*
X-30965367Y37147762D01*
X-30996782Y37088989D01*
X-31026112Y37053251D01*
X-31109374Y36951794D01*
X-31210831Y36868532D01*
X-31246569Y36839202D01*
X-31246571Y36839201D01*
X-31403093Y36755537D01*
X-31459707Y36738364D01*
X-31572933Y36704017D01*
X-31639118Y36697498D01*
X-31705300Y36690980D01*
X-31793820Y36690980D01*
X-31860002Y36697498D01*
X-31926187Y36704017D01*
X-32039413Y36738364D01*
X-32096027Y36755537D01*
X-32252549Y36839201D01*
X-32252551Y36839202D01*
X-32288289Y36868532D01*
X-32389746Y36951794D01*
X-32473008Y37053251D01*
X-32502338Y37088989D01*
X-32533753Y37147762D01*
X-32586003Y37245513D01*
X-32603176Y37302127D01*
X-32637523Y37415353D01*
X-32654919Y37591980D01*
X-32637523Y37768607D01*
X-32586003Y37938446D01*
X-32586003Y37938447D01*
X-32502339Y38094969D01*
X-32502338Y38094971D01*
X-32473008Y38130709D01*
X-32389746Y38232166D01*
X-32288289Y38315428D01*
X-32252551Y38344758D01*
X-32234647Y38354328D01*
X-32096027Y38428423D01*
X-32039413Y38445596D01*
X-31926187Y38479943D01*
X-31860003Y38486461D01*
X-31793820Y38492980D01*
X-31705300Y38492980D01*
X-31639117Y38486461D01*
X-31639117Y38486461D01*
G37*
G36*
X29320883Y39248461D02*
X29387067Y39241943D01*
X29500293Y39207596D01*
X29556907Y39190423D01*
X29695527Y39116328D01*
X29713431Y39106758D01*
X29749169Y39077428D01*
X29850626Y38994166D01*
X29933888Y38892709D01*
X29963218Y38856971D01*
X29963219Y38856969D01*
X30046883Y38700447D01*
X30046883Y38700446D01*
X30098403Y38530607D01*
X30115799Y38353980D01*
X30098403Y38177353D01*
X30073413Y38094971D01*
X30046883Y38007513D01*
X30009966Y37938447D01*
X29963218Y37850989D01*
X29933888Y37815251D01*
X29850626Y37713794D01*
X29749169Y37630532D01*
X29713431Y37601202D01*
X29713429Y37601201D01*
X29556907Y37517537D01*
X29500293Y37500364D01*
X29387067Y37466017D01*
X29320882Y37459498D01*
X29254700Y37452980D01*
X29166180Y37452980D01*
X29099998Y37459498D01*
X29033813Y37466017D01*
X28920587Y37500364D01*
X28863973Y37517537D01*
X28707451Y37601201D01*
X28707449Y37601202D01*
X28671711Y37630532D01*
X28570254Y37713794D01*
X28486992Y37815251D01*
X28457662Y37850989D01*
X28410914Y37938447D01*
X28373997Y38007513D01*
X28347467Y38094971D01*
X28322477Y38177353D01*
X28305081Y38353980D01*
X28322477Y38530607D01*
X28373997Y38700446D01*
X28373997Y38700447D01*
X28457661Y38856969D01*
X28457662Y38856971D01*
X28486992Y38892709D01*
X28570254Y38994166D01*
X28671711Y39077428D01*
X28707449Y39106758D01*
X28725353Y39116328D01*
X28863973Y39190423D01*
X28920587Y39207596D01*
X29033813Y39241943D01*
X29099997Y39248461D01*
X29166180Y39254980D01*
X29254700Y39254980D01*
X29320883Y39248461D01*
X29320883Y39248461D01*
G37*
G36*
X31860883Y39248461D02*
X31927067Y39241943D01*
X32040293Y39207596D01*
X32096907Y39190423D01*
X32235527Y39116328D01*
X32253431Y39106758D01*
X32289169Y39077428D01*
X32390626Y38994166D01*
X32473888Y38892709D01*
X32503218Y38856971D01*
X32503219Y38856969D01*
X32586883Y38700447D01*
X32586883Y38700446D01*
X32638403Y38530607D01*
X32655799Y38353980D01*
X32638403Y38177353D01*
X32613413Y38094971D01*
X32586883Y38007513D01*
X32549966Y37938447D01*
X32503218Y37850989D01*
X32473888Y37815251D01*
X32390626Y37713794D01*
X32289169Y37630532D01*
X32253431Y37601202D01*
X32253429Y37601201D01*
X32096907Y37517537D01*
X32040293Y37500364D01*
X31927067Y37466017D01*
X31860882Y37459498D01*
X31794700Y37452980D01*
X31706180Y37452980D01*
X31639998Y37459498D01*
X31573813Y37466017D01*
X31460587Y37500364D01*
X31403973Y37517537D01*
X31247451Y37601201D01*
X31247449Y37601202D01*
X31211711Y37630532D01*
X31110254Y37713794D01*
X31026992Y37815251D01*
X30997662Y37850989D01*
X30950914Y37938447D01*
X30913997Y38007513D01*
X30887467Y38094971D01*
X30862477Y38177353D01*
X30845081Y38353980D01*
X30862477Y38530607D01*
X30913997Y38700446D01*
X30913997Y38700447D01*
X30997661Y38856969D01*
X30997662Y38856971D01*
X31026992Y38892709D01*
X31110254Y38994166D01*
X31211711Y39077428D01*
X31247449Y39106758D01*
X31265353Y39116328D01*
X31403973Y39190423D01*
X31460587Y39207596D01*
X31573813Y39241943D01*
X31639997Y39248461D01*
X31706180Y39254980D01*
X31794700Y39254980D01*
X31860883Y39248461D01*
X31860883Y39248461D01*
G37*
G36*
X255479Y42122155D02*
X500719Y42047762D01*
X500721Y42047761D01*
X726735Y41926954D01*
X924836Y41764377D01*
X1021363Y41646758D01*
X1087415Y41566274D01*
X1208222Y41340260D01*
X1282615Y41095020D01*
X1301440Y40903885D01*
X1301440Y40376076D01*
X1282615Y40184941D01*
X1208222Y39939701D01*
X1208220Y39939696D01*
X1087416Y39713686D01*
X924837Y39515583D01*
X726736Y39353006D01*
X726734Y39353005D01*
X500720Y39232198D01*
X255480Y39157805D01*
X440Y39132686D01*
X-254599Y39157805D01*
X-499839Y39232198D01*
X-725853Y39353005D01*
X-725855Y39353006D01*
X-923956Y39515583D01*
X-1086534Y39713685D01*
X-1087549Y39715584D01*
X-1207342Y39939700D01*
X-1281735Y40184940D01*
X-1300560Y40376075D01*
X-1300560Y40903884D01*
X-1281735Y41095019D01*
X-1207342Y41340259D01*
X-1087549Y41564376D01*
X-1086534Y41566275D01*
X-923957Y41764376D01*
X-725855Y41926954D01*
X-725856Y41926954D01*
X-725854Y41926955D01*
X-499840Y42047762D01*
X-254600Y42122155D01*
X440Y42147274D01*
X255479Y42122155D01*
X255479Y42122155D01*
G37*
G36*
X-4444521Y42122155D02*
X-4199281Y42047762D01*
X-4199279Y42047761D01*
X-3973265Y41926954D01*
X-3775164Y41764377D01*
X-3678637Y41646758D01*
X-3612585Y41566274D01*
X-3491778Y41340260D01*
X-3417385Y41095020D01*
X-3398560Y40903885D01*
X-3398560Y40376076D01*
X-3417385Y40184941D01*
X-3491778Y39939701D01*
X-3491780Y39939696D01*
X-3612584Y39713686D01*
X-3775163Y39515583D01*
X-3973264Y39353006D01*
X-3973266Y39353005D01*
X-4199280Y39232198D01*
X-4444520Y39157805D01*
X-4699560Y39132686D01*
X-4954599Y39157805D01*
X-5199839Y39232198D01*
X-5425853Y39353005D01*
X-5425855Y39353006D01*
X-5623956Y39515583D01*
X-5786534Y39713685D01*
X-5787549Y39715584D01*
X-5907342Y39939700D01*
X-5981735Y40184940D01*
X-6000560Y40376075D01*
X-6000560Y40903884D01*
X-5981735Y41095019D01*
X-5907342Y41340259D01*
X-5787549Y41564376D01*
X-5786534Y41566275D01*
X-5623957Y41764376D01*
X-5425855Y41926954D01*
X-5425856Y41926954D01*
X-5425854Y41926955D01*
X-5199840Y42047762D01*
X-4954600Y42122155D01*
X-4699560Y42147274D01*
X-4444521Y42122155D01*
X-4444521Y42122155D01*
G37*
G36*
X4955479Y42122155D02*
X5200719Y42047762D01*
X5200721Y42047761D01*
X5426735Y41926954D01*
X5624836Y41764377D01*
X5721363Y41646758D01*
X5787415Y41566274D01*
X5908222Y41340260D01*
X5982615Y41095020D01*
X6001440Y40903885D01*
X6001440Y40376076D01*
X5982615Y40184941D01*
X5908222Y39939701D01*
X5908220Y39939696D01*
X5787416Y39713686D01*
X5624837Y39515583D01*
X5426736Y39353006D01*
X5426734Y39353005D01*
X5200720Y39232198D01*
X4955480Y39157805D01*
X4700440Y39132686D01*
X4445401Y39157805D01*
X4200161Y39232198D01*
X3974147Y39353005D01*
X3974145Y39353006D01*
X3776044Y39515583D01*
X3613466Y39713685D01*
X3612451Y39715584D01*
X3492658Y39939700D01*
X3418265Y40184940D01*
X3399440Y40376075D01*
X3399440Y40903884D01*
X3418265Y41095019D01*
X3492658Y41340259D01*
X3612451Y41564376D01*
X3613466Y41566275D01*
X3776043Y41764376D01*
X3974145Y41926954D01*
X3974144Y41926954D01*
X3974146Y41926955D01*
X4200160Y42047762D01*
X4445400Y42122155D01*
X4700440Y42147274D01*
X4955479Y42122155D01*
X4955479Y42122155D01*
G37*
G36*
X-31639118Y41026462D02*
X-31572933Y41019943D01*
X-31459707Y40985596D01*
X-31403093Y40968423D01*
X-31282355Y40903886D01*
X-31246569Y40884758D01*
X-31210831Y40855428D01*
X-31109374Y40772166D01*
X-31026112Y40670709D01*
X-30996782Y40634971D01*
X-30996781Y40634969D01*
X-30913117Y40478447D01*
X-30913117Y40478446D01*
X-30861597Y40308607D01*
X-30844201Y40131980D01*
X-30861597Y39955353D01*
X-30895944Y39842127D01*
X-30913117Y39785513D01*
X-30987212Y39646893D01*
X-30996782Y39628989D01*
X-31026112Y39593251D01*
X-31109374Y39491794D01*
X-31210831Y39408532D01*
X-31246569Y39379202D01*
X-31246571Y39379201D01*
X-31403093Y39295537D01*
X-31459707Y39278364D01*
X-31572933Y39244017D01*
X-31639118Y39237498D01*
X-31705300Y39230980D01*
X-31793820Y39230980D01*
X-31860002Y39237498D01*
X-31926187Y39244017D01*
X-32039413Y39278364D01*
X-32096027Y39295537D01*
X-32252549Y39379201D01*
X-32252551Y39379202D01*
X-32288289Y39408532D01*
X-32389746Y39491794D01*
X-32473008Y39593251D01*
X-32502338Y39628989D01*
X-32511908Y39646893D01*
X-32586003Y39785513D01*
X-32603176Y39842127D01*
X-32637523Y39955353D01*
X-32654919Y40131980D01*
X-32637523Y40308607D01*
X-32586003Y40478446D01*
X-32586003Y40478447D01*
X-32502339Y40634969D01*
X-32502338Y40634971D01*
X-32473008Y40670709D01*
X-32389746Y40772166D01*
X-32288289Y40855428D01*
X-32252551Y40884758D01*
X-32216765Y40903886D01*
X-32096027Y40968423D01*
X-32039413Y40985596D01*
X-31926187Y41019943D01*
X-31860002Y41026462D01*
X-31793820Y41032980D01*
X-31705300Y41032980D01*
X-31639118Y41026462D01*
X-31639118Y41026462D01*
G37*
G36*
X-29099118Y41026462D02*
X-29032933Y41019943D01*
X-28919707Y40985596D01*
X-28863093Y40968423D01*
X-28742355Y40903886D01*
X-28706569Y40884758D01*
X-28670831Y40855428D01*
X-28569374Y40772166D01*
X-28486112Y40670709D01*
X-28456782Y40634971D01*
X-28456781Y40634969D01*
X-28373117Y40478447D01*
X-28373117Y40478446D01*
X-28321597Y40308607D01*
X-28304201Y40131980D01*
X-28321597Y39955353D01*
X-28355944Y39842127D01*
X-28373117Y39785513D01*
X-28447212Y39646893D01*
X-28456782Y39628989D01*
X-28486112Y39593251D01*
X-28569374Y39491794D01*
X-28670831Y39408532D01*
X-28706569Y39379202D01*
X-28706571Y39379201D01*
X-28863093Y39295537D01*
X-28919707Y39278364D01*
X-29032933Y39244017D01*
X-29099118Y39237498D01*
X-29165300Y39230980D01*
X-29253820Y39230980D01*
X-29320002Y39237498D01*
X-29386187Y39244017D01*
X-29499413Y39278364D01*
X-29556027Y39295537D01*
X-29712549Y39379201D01*
X-29712551Y39379202D01*
X-29748289Y39408532D01*
X-29849746Y39491794D01*
X-29933008Y39593251D01*
X-29962338Y39628989D01*
X-29971908Y39646893D01*
X-30046003Y39785513D01*
X-30063176Y39842127D01*
X-30097523Y39955353D01*
X-30114919Y40131980D01*
X-30097523Y40308607D01*
X-30046003Y40478446D01*
X-30046003Y40478447D01*
X-29962339Y40634969D01*
X-29962338Y40634971D01*
X-29933008Y40670709D01*
X-29849746Y40772166D01*
X-29748289Y40855428D01*
X-29712551Y40884758D01*
X-29676765Y40903886D01*
X-29556027Y40968423D01*
X-29499413Y40985596D01*
X-29386187Y41019943D01*
X-29320002Y41026462D01*
X-29253820Y41032980D01*
X-29165300Y41032980D01*
X-29099118Y41026462D01*
X-29099118Y41026462D01*
G37*
G36*
X40952129Y41936274D02*
X41095480Y41922155D01*
X41340720Y41847762D01*
X41340722Y41847761D01*
X41566736Y41726954D01*
X41764837Y41564377D01*
X41927414Y41366276D01*
X42048221Y41140262D01*
X42048222Y41140260D01*
X42122615Y40895020D01*
X42147734Y40639980D01*
X42122615Y40384940D01*
X42048677Y40141201D01*
X42048221Y40139698D01*
X41927414Y39913684D01*
X41764837Y39715583D01*
X41566736Y39553006D01*
X41566734Y39553005D01*
X41340720Y39432198D01*
X41095480Y39357805D01*
X40952129Y39343686D01*
X40904346Y39338980D01*
X40376534Y39338980D01*
X40328751Y39343686D01*
X40185400Y39357805D01*
X39940160Y39432198D01*
X39714146Y39553005D01*
X39714144Y39553006D01*
X39516043Y39715583D01*
X39353466Y39913684D01*
X39232659Y40139698D01*
X39232203Y40141201D01*
X39158265Y40384940D01*
X39133146Y40639980D01*
X39158265Y40895020D01*
X39232658Y41140260D01*
X39232659Y41140262D01*
X39353466Y41366276D01*
X39516043Y41564377D01*
X39714144Y41726954D01*
X39940158Y41847761D01*
X39940160Y41847762D01*
X40185400Y41922155D01*
X40328751Y41936274D01*
X40376534Y41940980D01*
X40904346Y41940980D01*
X40952129Y41936274D01*
X40952129Y41936274D01*
G37*
G36*
X20632129Y41936274D02*
X20775480Y41922155D01*
X21020720Y41847762D01*
X21020722Y41847761D01*
X21246736Y41726954D01*
X21444837Y41564377D01*
X21607414Y41366276D01*
X21728221Y41140262D01*
X21728222Y41140260D01*
X21802615Y40895020D01*
X21827734Y40639980D01*
X21802615Y40384940D01*
X21728677Y40141201D01*
X21728221Y40139698D01*
X21607414Y39913684D01*
X21444837Y39715583D01*
X21246736Y39553006D01*
X21246734Y39553005D01*
X21020720Y39432198D01*
X20775480Y39357805D01*
X20632129Y39343686D01*
X20584346Y39338980D01*
X20056534Y39338980D01*
X20008751Y39343686D01*
X19865400Y39357805D01*
X19620160Y39432198D01*
X19394146Y39553005D01*
X19394144Y39553006D01*
X19196043Y39715583D01*
X19033466Y39913684D01*
X18912659Y40139698D01*
X18912203Y40141201D01*
X18838265Y40384940D01*
X18813146Y40639980D01*
X18838265Y40895020D01*
X18912658Y41140260D01*
X18912659Y41140262D01*
X19033466Y41366276D01*
X19196043Y41564377D01*
X19394144Y41726954D01*
X19620158Y41847761D01*
X19620160Y41847762D01*
X19865400Y41922155D01*
X20008751Y41936274D01*
X20056534Y41940980D01*
X20584346Y41940980D01*
X20632129Y41936274D01*
X20632129Y41936274D01*
G37*
G36*
X-20007871Y41936274D02*
X-19864520Y41922155D01*
X-19619280Y41847762D01*
X-19619278Y41847761D01*
X-19393264Y41726954D01*
X-19195163Y41564377D01*
X-19032586Y41366276D01*
X-18911779Y41140262D01*
X-18911778Y41140260D01*
X-18837385Y40895020D01*
X-18812266Y40639980D01*
X-18837385Y40384940D01*
X-18911323Y40141201D01*
X-18911779Y40139698D01*
X-19032586Y39913684D01*
X-19195163Y39715583D01*
X-19393264Y39553006D01*
X-19393266Y39553005D01*
X-19619280Y39432198D01*
X-19864520Y39357805D01*
X-20007871Y39343686D01*
X-20055654Y39338980D01*
X-20583466Y39338980D01*
X-20631249Y39343686D01*
X-20774600Y39357805D01*
X-21019840Y39432198D01*
X-21245854Y39553005D01*
X-21245856Y39553006D01*
X-21443957Y39715583D01*
X-21606534Y39913684D01*
X-21727341Y40139698D01*
X-21727797Y40141201D01*
X-21801735Y40384940D01*
X-21826854Y40639980D01*
X-21801735Y40895020D01*
X-21727342Y41140260D01*
X-21727341Y41140262D01*
X-21606534Y41366276D01*
X-21443957Y41564377D01*
X-21245856Y41726954D01*
X-21019842Y41847761D01*
X-21019840Y41847762D01*
X-20774600Y41922155D01*
X-20631249Y41936274D01*
X-20583466Y41940980D01*
X-20055654Y41940980D01*
X-20007871Y41936274D01*
X-20007871Y41936274D01*
G37*
G36*
X-40327871Y41936274D02*
X-40184520Y41922155D01*
X-39939280Y41847762D01*
X-39939278Y41847761D01*
X-39713264Y41726954D01*
X-39515163Y41564377D01*
X-39352586Y41366276D01*
X-39231779Y41140262D01*
X-39231778Y41140260D01*
X-39157385Y40895020D01*
X-39132266Y40639980D01*
X-39157385Y40384940D01*
X-39231323Y40141201D01*
X-39231779Y40139698D01*
X-39352586Y39913684D01*
X-39515163Y39715583D01*
X-39713264Y39553006D01*
X-39713266Y39553005D01*
X-39939280Y39432198D01*
X-40184520Y39357805D01*
X-40327871Y39343686D01*
X-40375654Y39338980D01*
X-40903466Y39338980D01*
X-40951249Y39343686D01*
X-41094600Y39357805D01*
X-41339840Y39432198D01*
X-41565854Y39553005D01*
X-41565856Y39553006D01*
X-41763957Y39715583D01*
X-41926534Y39913684D01*
X-42047341Y40139698D01*
X-42047797Y40141201D01*
X-42121735Y40384940D01*
X-42146854Y40639980D01*
X-42121735Y40895020D01*
X-42047342Y41140260D01*
X-42047341Y41140262D01*
X-41926534Y41366276D01*
X-41763957Y41564377D01*
X-41565856Y41726954D01*
X-41339842Y41847761D01*
X-41339840Y41847762D01*
X-41094600Y41922155D01*
X-40951249Y41936274D01*
X-40903466Y41940980D01*
X-40375654Y41940980D01*
X-40327871Y41936274D01*
X-40327871Y41936274D01*
G37*
G36*
X29320882Y41788462D02*
X29387067Y41781943D01*
X29500293Y41747596D01*
X29556907Y41730423D01*
X29695527Y41656328D01*
X29713431Y41646758D01*
X29749169Y41617428D01*
X29850626Y41534166D01*
X29933888Y41432709D01*
X29963218Y41396971D01*
X29963219Y41396969D01*
X30046883Y41240447D01*
X30046883Y41240446D01*
X30098403Y41070607D01*
X30115799Y40893980D01*
X30098403Y40717353D01*
X30074932Y40639980D01*
X30046883Y40547513D01*
X30009966Y40478447D01*
X29963218Y40390989D01*
X29950979Y40376076D01*
X29850626Y40253794D01*
X29766727Y40184941D01*
X29713431Y40141202D01*
X29713429Y40141201D01*
X29556907Y40057537D01*
X29500293Y40040364D01*
X29387067Y40006017D01*
X29320883Y39999499D01*
X29254700Y39992980D01*
X29166180Y39992980D01*
X29099997Y39999499D01*
X29033813Y40006017D01*
X28920587Y40040364D01*
X28863973Y40057537D01*
X28707451Y40141201D01*
X28707449Y40141202D01*
X28654153Y40184941D01*
X28570254Y40253794D01*
X28469901Y40376076D01*
X28457662Y40390989D01*
X28410914Y40478447D01*
X28373997Y40547513D01*
X28345948Y40639980D01*
X28322477Y40717353D01*
X28305081Y40893980D01*
X28322477Y41070607D01*
X28373997Y41240446D01*
X28373997Y41240447D01*
X28457661Y41396969D01*
X28457662Y41396971D01*
X28486992Y41432709D01*
X28570254Y41534166D01*
X28671711Y41617428D01*
X28707449Y41646758D01*
X28725353Y41656328D01*
X28863973Y41730423D01*
X28920587Y41747596D01*
X29033813Y41781943D01*
X29099998Y41788462D01*
X29166180Y41794980D01*
X29254700Y41794980D01*
X29320882Y41788462D01*
X29320882Y41788462D01*
G37*
G36*
X31860882Y41788462D02*
X31927067Y41781943D01*
X32040293Y41747596D01*
X32096907Y41730423D01*
X32235527Y41656328D01*
X32253431Y41646758D01*
X32289169Y41617428D01*
X32390626Y41534166D01*
X32473888Y41432709D01*
X32503218Y41396971D01*
X32503219Y41396969D01*
X32586883Y41240447D01*
X32586883Y41240446D01*
X32638403Y41070607D01*
X32655799Y40893980D01*
X32638403Y40717353D01*
X32614932Y40639980D01*
X32586883Y40547513D01*
X32549966Y40478447D01*
X32503218Y40390989D01*
X32490979Y40376076D01*
X32390626Y40253794D01*
X32306727Y40184941D01*
X32253431Y40141202D01*
X32253429Y40141201D01*
X32096907Y40057537D01*
X32040293Y40040364D01*
X31927067Y40006017D01*
X31860883Y39999499D01*
X31794700Y39992980D01*
X31706180Y39992980D01*
X31639997Y39999499D01*
X31573813Y40006017D01*
X31460587Y40040364D01*
X31403973Y40057537D01*
X31247451Y40141201D01*
X31247449Y40141202D01*
X31194153Y40184941D01*
X31110254Y40253794D01*
X31009901Y40376076D01*
X30997662Y40390989D01*
X30950914Y40478447D01*
X30913997Y40547513D01*
X30885948Y40639980D01*
X30862477Y40717353D01*
X30845081Y40893980D01*
X30862477Y41070607D01*
X30913997Y41240446D01*
X30913997Y41240447D01*
X30997661Y41396969D01*
X30997662Y41396971D01*
X31026992Y41432709D01*
X31110254Y41534166D01*
X31211711Y41617428D01*
X31247449Y41646758D01*
X31265353Y41656328D01*
X31403973Y41730423D01*
X31460587Y41747596D01*
X31573813Y41781943D01*
X31639998Y41788462D01*
X31706180Y41794980D01*
X31794700Y41794980D01*
X31860882Y41788462D01*
X31860882Y41788462D01*
G37*
G36*
X31860882Y44328462D02*
X31927067Y44321943D01*
X32040293Y44287596D01*
X32096907Y44270423D01*
X32129491Y44253006D01*
X32253431Y44186758D01*
X32289169Y44157428D01*
X32390626Y44074166D01*
X32473888Y43972709D01*
X32503218Y43936971D01*
X32503219Y43936969D01*
X32586883Y43780447D01*
X32586883Y43780446D01*
X32638403Y43610607D01*
X32655799Y43433980D01*
X32638403Y43257353D01*
X32604056Y43144127D01*
X32586883Y43087513D01*
X32512788Y42948893D01*
X32503218Y42930989D01*
X32473888Y42895251D01*
X32390626Y42793794D01*
X32289169Y42710532D01*
X32253431Y42681202D01*
X32253429Y42681201D01*
X32096907Y42597537D01*
X32040293Y42580364D01*
X31927067Y42546017D01*
X31860882Y42539498D01*
X31794700Y42532980D01*
X31706180Y42532980D01*
X31639998Y42539498D01*
X31573813Y42546017D01*
X31460587Y42580364D01*
X31403973Y42597537D01*
X31247451Y42681201D01*
X31247449Y42681202D01*
X31211711Y42710532D01*
X31110254Y42793794D01*
X31026992Y42895251D01*
X30997662Y42930989D01*
X30988092Y42948893D01*
X30913997Y43087513D01*
X30896824Y43144127D01*
X30862477Y43257353D01*
X30845081Y43433980D01*
X30862477Y43610607D01*
X30913997Y43780446D01*
X30913997Y43780447D01*
X30997661Y43936969D01*
X30997662Y43936971D01*
X31026992Y43972709D01*
X31110254Y44074166D01*
X31211711Y44157428D01*
X31247449Y44186758D01*
X31371389Y44253006D01*
X31403973Y44270423D01*
X31460587Y44287596D01*
X31573813Y44321943D01*
X31639998Y44328462D01*
X31706180Y44334980D01*
X31794700Y44334980D01*
X31860882Y44328462D01*
X31860882Y44328462D01*
G37*
G36*
X29320882Y44328462D02*
X29387067Y44321943D01*
X29500293Y44287596D01*
X29556907Y44270423D01*
X29589491Y44253006D01*
X29713431Y44186758D01*
X29749169Y44157428D01*
X29850626Y44074166D01*
X29933888Y43972709D01*
X29963218Y43936971D01*
X29963219Y43936969D01*
X30046883Y43780447D01*
X30046883Y43780446D01*
X30098403Y43610607D01*
X30115799Y43433980D01*
X30098403Y43257353D01*
X30064056Y43144127D01*
X30046883Y43087513D01*
X29972788Y42948893D01*
X29963218Y42930989D01*
X29933888Y42895251D01*
X29850626Y42793794D01*
X29749169Y42710532D01*
X29713431Y42681202D01*
X29713429Y42681201D01*
X29556907Y42597537D01*
X29500293Y42580364D01*
X29387067Y42546017D01*
X29320882Y42539498D01*
X29254700Y42532980D01*
X29166180Y42532980D01*
X29099998Y42539498D01*
X29033813Y42546017D01*
X28920587Y42580364D01*
X28863973Y42597537D01*
X28707451Y42681201D01*
X28707449Y42681202D01*
X28671711Y42710532D01*
X28570254Y42793794D01*
X28486992Y42895251D01*
X28457662Y42930989D01*
X28448092Y42948893D01*
X28373997Y43087513D01*
X28356824Y43144127D01*
X28322477Y43257353D01*
X28305081Y43433980D01*
X28322477Y43610607D01*
X28373997Y43780446D01*
X28373997Y43780447D01*
X28457661Y43936969D01*
X28457662Y43936971D01*
X28486992Y43972709D01*
X28570254Y44074166D01*
X28671711Y44157428D01*
X28707449Y44186758D01*
X28831389Y44253006D01*
X28863973Y44270423D01*
X28920587Y44287596D01*
X29033813Y44321943D01*
X29099998Y44328462D01*
X29166180Y44334980D01*
X29254700Y44334980D01*
X29320882Y44328462D01*
X29320882Y44328462D01*
G37*
G36*
X-40327871Y46636274D02*
X-40184520Y46622155D01*
X-39939280Y46547762D01*
X-39939278Y46547761D01*
X-39713264Y46426954D01*
X-39515163Y46264377D01*
X-39352586Y46066276D01*
X-39352585Y46066274D01*
X-39231778Y45840260D01*
X-39157385Y45595020D01*
X-39132266Y45339980D01*
X-39157385Y45084940D01*
X-39231778Y44839700D01*
X-39231779Y44839698D01*
X-39352586Y44613684D01*
X-39515163Y44415583D01*
X-39713264Y44253006D01*
X-39837205Y44186758D01*
X-39939280Y44132198D01*
X-40184520Y44057805D01*
X-40327871Y44043686D01*
X-40375654Y44038980D01*
X-40903466Y44038980D01*
X-40951249Y44043686D01*
X-41094600Y44057805D01*
X-41339840Y44132198D01*
X-41441915Y44186758D01*
X-41565856Y44253006D01*
X-41763957Y44415583D01*
X-41926534Y44613684D01*
X-42047341Y44839698D01*
X-42047342Y44839700D01*
X-42121735Y45084940D01*
X-42146854Y45339980D01*
X-42121735Y45595020D01*
X-42047342Y45840260D01*
X-41926535Y46066274D01*
X-41926534Y46066276D01*
X-41763957Y46264377D01*
X-41565856Y46426954D01*
X-41339842Y46547761D01*
X-41339840Y46547762D01*
X-41094600Y46622155D01*
X-40951249Y46636274D01*
X-40903466Y46640980D01*
X-40375654Y46640980D01*
X-40327871Y46636274D01*
X-40327871Y46636274D01*
G37*
G36*
X-20007871Y46636274D02*
X-19864520Y46622155D01*
X-19619280Y46547762D01*
X-19619278Y46547761D01*
X-19393264Y46426954D01*
X-19195163Y46264377D01*
X-19032586Y46066276D01*
X-19032585Y46066274D01*
X-18911778Y45840260D01*
X-18837385Y45595020D01*
X-18812266Y45339980D01*
X-18837385Y45084940D01*
X-18911778Y44839700D01*
X-18911779Y44839698D01*
X-19032586Y44613684D01*
X-19195163Y44415583D01*
X-19393264Y44253006D01*
X-19517205Y44186758D01*
X-19619280Y44132198D01*
X-19864520Y44057805D01*
X-20007871Y44043686D01*
X-20055654Y44038980D01*
X-20583466Y44038980D01*
X-20631249Y44043686D01*
X-20774600Y44057805D01*
X-21019840Y44132198D01*
X-21121915Y44186758D01*
X-21245856Y44253006D01*
X-21443957Y44415583D01*
X-21606534Y44613684D01*
X-21727341Y44839698D01*
X-21727342Y44839700D01*
X-21801735Y45084940D01*
X-21826854Y45339980D01*
X-21801735Y45595020D01*
X-21727342Y45840260D01*
X-21606535Y46066274D01*
X-21606534Y46066276D01*
X-21443957Y46264377D01*
X-21245856Y46426954D01*
X-21019842Y46547761D01*
X-21019840Y46547762D01*
X-20774600Y46622155D01*
X-20631249Y46636274D01*
X-20583466Y46640980D01*
X-20055654Y46640980D01*
X-20007871Y46636274D01*
X-20007871Y46636274D01*
G37*
G36*
X20632129Y46636274D02*
X20775480Y46622155D01*
X21020720Y46547762D01*
X21020722Y46547761D01*
X21246736Y46426954D01*
X21444837Y46264377D01*
X21607414Y46066276D01*
X21607415Y46066274D01*
X21728222Y45840260D01*
X21802615Y45595020D01*
X21827734Y45339980D01*
X21802615Y45084940D01*
X21728222Y44839700D01*
X21728221Y44839698D01*
X21607414Y44613684D01*
X21444837Y44415583D01*
X21246736Y44253006D01*
X21122795Y44186758D01*
X21020720Y44132198D01*
X20775480Y44057805D01*
X20632129Y44043686D01*
X20584346Y44038980D01*
X20056534Y44038980D01*
X20008751Y44043686D01*
X19865400Y44057805D01*
X19620160Y44132198D01*
X19518085Y44186758D01*
X19394144Y44253006D01*
X19196043Y44415583D01*
X19033466Y44613684D01*
X18912659Y44839698D01*
X18912658Y44839700D01*
X18838265Y45084940D01*
X18813146Y45339980D01*
X18838265Y45595020D01*
X18912658Y45840260D01*
X19033465Y46066274D01*
X19033466Y46066276D01*
X19196043Y46264377D01*
X19394144Y46426954D01*
X19620158Y46547761D01*
X19620160Y46547762D01*
X19865400Y46622155D01*
X20008751Y46636274D01*
X20056534Y46640980D01*
X20584346Y46640980D01*
X20632129Y46636274D01*
X20632129Y46636274D01*
G37*
G36*
X40952129Y46636274D02*
X41095480Y46622155D01*
X41340720Y46547762D01*
X41340722Y46547761D01*
X41566736Y46426954D01*
X41764837Y46264377D01*
X41927414Y46066276D01*
X41927415Y46066274D01*
X42048222Y45840260D01*
X42122615Y45595020D01*
X42147734Y45339980D01*
X42122615Y45084940D01*
X42048222Y44839700D01*
X42048221Y44839698D01*
X41927414Y44613684D01*
X41764837Y44415583D01*
X41566736Y44253006D01*
X41442795Y44186758D01*
X41340720Y44132198D01*
X41095480Y44057805D01*
X40952129Y44043686D01*
X40904346Y44038980D01*
X40376534Y44038980D01*
X40328751Y44043686D01*
X40185400Y44057805D01*
X39940160Y44132198D01*
X39838085Y44186758D01*
X39714144Y44253006D01*
X39516043Y44415583D01*
X39353466Y44613684D01*
X39232659Y44839698D01*
X39232658Y44839700D01*
X39158265Y45084940D01*
X39133146Y45339980D01*
X39158265Y45595020D01*
X39232658Y45840260D01*
X39353465Y46066274D01*
X39353466Y46066276D01*
X39516043Y46264377D01*
X39714144Y46426954D01*
X39940158Y46547761D01*
X39940160Y46547762D01*
X40185400Y46622155D01*
X40328751Y46636274D01*
X40376534Y46640980D01*
X40904346Y46640980D01*
X40952129Y46636274D01*
X40952129Y46636274D01*
G37*
G36*
X29320883Y46868461D02*
X29387067Y46861943D01*
X29500293Y46827596D01*
X29556907Y46810423D01*
X29695527Y46736328D01*
X29713431Y46726758D01*
X29749169Y46697428D01*
X29850626Y46614166D01*
X29905122Y46547761D01*
X29963218Y46476971D01*
X29963219Y46476969D01*
X30046883Y46320447D01*
X30046883Y46320446D01*
X30098403Y46150607D01*
X30115799Y45973980D01*
X30098403Y45797353D01*
X30064056Y45684127D01*
X30046883Y45627513D01*
X30029513Y45595017D01*
X29963218Y45470989D01*
X29933888Y45435251D01*
X29850626Y45333794D01*
X29749169Y45250532D01*
X29713431Y45221202D01*
X29713429Y45221201D01*
X29556907Y45137537D01*
X29500293Y45120364D01*
X29387067Y45086017D01*
X29320882Y45079498D01*
X29254700Y45072980D01*
X29166180Y45072980D01*
X29099998Y45079498D01*
X29033813Y45086017D01*
X28920587Y45120364D01*
X28863973Y45137537D01*
X28707451Y45221201D01*
X28707449Y45221202D01*
X28671711Y45250532D01*
X28570254Y45333794D01*
X28486992Y45435251D01*
X28457662Y45470989D01*
X28391367Y45595017D01*
X28373997Y45627513D01*
X28356824Y45684127D01*
X28322477Y45797353D01*
X28305081Y45973980D01*
X28322477Y46150607D01*
X28373997Y46320446D01*
X28373997Y46320447D01*
X28457661Y46476969D01*
X28457662Y46476971D01*
X28515758Y46547761D01*
X28570254Y46614166D01*
X28671711Y46697428D01*
X28707449Y46726758D01*
X28725353Y46736328D01*
X28863973Y46810423D01*
X28920587Y46827596D01*
X29033813Y46861943D01*
X29099997Y46868461D01*
X29166180Y46874980D01*
X29254700Y46874980D01*
X29320883Y46868461D01*
X29320883Y46868461D01*
G37*
G36*
X31860883Y46868461D02*
X31927067Y46861943D01*
X32040293Y46827596D01*
X32096907Y46810423D01*
X32235527Y46736328D01*
X32253431Y46726758D01*
X32289169Y46697428D01*
X32390626Y46614166D01*
X32445122Y46547761D01*
X32503218Y46476971D01*
X32503219Y46476969D01*
X32586883Y46320447D01*
X32586883Y46320446D01*
X32638403Y46150607D01*
X32655799Y45973980D01*
X32638403Y45797353D01*
X32604056Y45684127D01*
X32586883Y45627513D01*
X32569513Y45595017D01*
X32503218Y45470989D01*
X32473888Y45435251D01*
X32390626Y45333794D01*
X32289169Y45250532D01*
X32253431Y45221202D01*
X32253429Y45221201D01*
X32096907Y45137537D01*
X32040293Y45120364D01*
X31927067Y45086017D01*
X31860882Y45079498D01*
X31794700Y45072980D01*
X31706180Y45072980D01*
X31639998Y45079498D01*
X31573813Y45086017D01*
X31460587Y45120364D01*
X31403973Y45137537D01*
X31247451Y45221201D01*
X31247449Y45221202D01*
X31211711Y45250532D01*
X31110254Y45333794D01*
X31026992Y45435251D01*
X30997662Y45470989D01*
X30931367Y45595017D01*
X30913997Y45627513D01*
X30896824Y45684127D01*
X30862477Y45797353D01*
X30845081Y45973980D01*
X30862477Y46150607D01*
X30913997Y46320446D01*
X30913997Y46320447D01*
X30997661Y46476969D01*
X30997662Y46476971D01*
X31055758Y46547761D01*
X31110254Y46614166D01*
X31211711Y46697428D01*
X31247449Y46726758D01*
X31265353Y46736328D01*
X31403973Y46810423D01*
X31460587Y46827596D01*
X31573813Y46861943D01*
X31639997Y46868461D01*
X31706180Y46874980D01*
X31794700Y46874980D01*
X31860883Y46868461D01*
X31860883Y46868461D01*
G37*
M02*
